<svg width="36" height="36" viewBox="0 0 36 36" fill="none" xmlns="http://www.w3.org/2000/svg">
<g clip-path="url(#clip0_214_430925)" fill="currentColor">
<path d="M34.2041 16.2047V19.8071H32.4083V21.6024H36V14.3976H32.4083V16.2047H34.2041Z" />
<path d="M30.6006 27H32.4083V28.7953H30.6006V27Z" />
<path d="M30.6006 21.6024L32.4083 21.6024V25.2047H30.6006V21.6024Z" />
<path d="M30.6006 10.8071H32.4083V14.3976H30.6006V10.8071Z" />
<path d="M30.6006 7.20472H32.4083V9H30.6006V7.20472Z" />
<path d="M28.8047 28.7953L30.6006 28.7953V30.6024H28.8047V28.7953Z" />
<path d="M28.8047 25.2047H30.6006V27L28.8047 27V25.2047Z" />
<path d="M28.8047 9L30.6006 9V10.8071L28.8047 10.8071V9Z" />
<path d="M28.8047 5.40945H30.6006V7.20472L28.8047 7.20472V5.40945Z" />
<path d="M26.997 30.6024H28.8047V32.3976H26.997V30.6024Z" />
<path d="M26.997 14.3976H28.8047V21.6024H26.997V14.3976Z" />
<path d="M26.997 3.60236H28.8047V5.40945H26.997V3.60236Z" />
<path d="M25.2012 28.7953H26.997V30.6024H25.2012V28.7953Z" />
<path d="M25.2012 21.6024L26.997 21.6024V25.2047H25.2012V21.6024Z" />
<path d="M25.2012 10.8071H26.997V14.3976H25.2012V10.8071Z" />
<path d="M25.2012 5.40945H26.997V7.20472H25.2012V5.40945Z" />
<path d="M21.5976 30.6024H25.2012V32.3976H21.5976V30.6024Z" />
<path d="M21.5976 25.2047H25.2012V27H21.5976V25.2047Z" />
<path d="M21.5976 9H25.2012V10.8071L21.5976 10.8071V9Z" />
<path d="M21.5976 3.60236H25.2012V5.40945H21.5976V3.60236Z" />
<path d="M19.8018 34.2047H16.1982V32.3976H14.4024V36H21.5976V32.3976H19.8018V34.2047Z" />
<path d="M14.4024 27L21.5976 27V28.7953H14.4024V27Z" />
<path d="M16.1982 21.6024H19.8018V19.8071H21.5976V16.2047H19.8018V14.3976H16.1982V16.2047H14.4024V19.8071H16.1982V21.6024Z" />
<path d="M14.4024 7.20472H21.5976V9L14.4024 9V7.20472Z" />
<path d="M16.1982 1.80709H19.8018V3.60236L21.5976 3.60236V0H14.4024V3.60236H16.1982V1.80709Z" />
<path d="M10.7988 30.6024H14.4024V32.3976H10.7988V30.6024Z" />
<path d="M10.7988 25.2047H14.4024V27L10.7988 27V25.2047Z" />
<path d="M10.7988 9L14.4024 9V10.8071H10.7988V9Z" />
<path d="M10.7988 3.60236L14.4024 3.60236V5.40945H10.7988V3.60236Z" />
<path d="M9.00295 28.7953H10.7988V30.6024H9.00295V28.7953Z" />
<path d="M9.00295 21.6024H10.7988V25.2047H9.00295V21.6024Z" />
<path d="M9.00295 10.8071L10.7988 10.8071V14.3976H9.00295V10.8071Z" />
<path d="M9.00295 5.40945H10.7988V7.20472H9.00295V5.40945Z" />
<path d="M7.19527 30.6024H9.00295V32.3976H7.19527V30.6024Z" />
<path d="M7.19527 14.3976H9.00295V21.6024L7.19527 21.6024V14.3976Z" />
<path d="M7.19527 3.60236H9.00295V5.40945H7.19527V3.60236Z" />
<path d="M5.39941 28.7953H7.19527V30.6024H5.39941V28.7953Z" />
<path d="M5.39941 25.2047H7.19527V27H5.39941V25.2047Z" />
<path d="M5.39941 9H7.19527V10.8071H5.39941V9Z" />
<path d="M5.39941 5.40945H7.19527V7.20472H5.39941V5.40945Z" />
<path d="M3.60354 27L5.39941 27V28.7953L3.60354 28.7953V27Z" />
<path d="M3.60354 21.6024H5.39941V25.2047H3.60354V21.6024Z" />
<path d="M3.60354 10.8071L5.39941 10.8071V14.3976H3.60354V10.8071Z" />
<path d="M3.60354 7.20472L5.39941 7.20472V9L3.60354 9V7.20472Z" />
<path d="M3.60354 19.8071H1.79586V16.2047H3.60354L3.60354 14.3976H0V21.6024L3.60354 21.6024L3.60354 19.8071Z" />
</g>
<defs>
<clipPath id="clip0_214_430925">
<rect width="36" height="36" fill="white" />
</clipPath>
</defs>
</svg>
