<svg width="36" height="36" viewBox="0 0 36 36" fill="none" xmlns="http://www.w3.org/2000/svg">
<g clip-path="url(#clip0_214_430924)" fill="currentColor">
<path d="M34.2788 6.43125H36.0001V28.7062H34.2788V6.43125Z" />
<path d="M32.5688 28.7063L34.2788 28.7062L34.2788 30.4275H32.5688V28.7063Z" />
<path d="M32.5688 4.71H34.2788L34.2788 6.43125L32.5688 6.43125V4.71Z" />
<path d="M30.8588 8.14125H32.5688V11.5725H30.8588V8.14125Z" />
<path d="M3.43131 30.4275H32.5688V32.1375H3.43131V30.4275Z" />
<path d="M29.1376 25.2863H30.8588V26.9963H29.1376V25.2863Z" />
<path d="M29.1376 11.5725L30.8588 11.5725V13.2825H29.1376V11.5725Z" />
<path d="M27.4276 23.565H29.1376L29.1376 25.2863H27.4276V23.565Z" />
<path d="M27.4276 13.2825L29.1376 13.2825L29.1376 14.9925H27.4276V13.2825Z" />
<path d="M25.7063 21.855H27.4276V23.565L25.7063 23.565V21.855Z" />
<path d="M25.7063 14.9925L27.4276 14.9925V16.7137H25.7063V14.9925Z" />
<path d="M23.9963 20.145H25.7063L25.7063 21.855L23.9963 21.855V20.145Z" />
<path d="M23.9963 16.7137H25.7063L25.7063 18.4237H23.9963V16.7137Z" />
<path d="M20.5651 18.4238L23.9963 18.4237V20.145L20.5651 20.145V18.4238Z" />
<path d="M15.4238 20.145L20.5651 20.145L20.5651 21.855H15.4238V20.145Z" />
<path d="M11.9926 18.4238H15.4238V20.145L11.9926 20.145V18.4238Z" />
<path d="M10.2826 20.145L11.9926 20.145V21.855H10.2826V20.145Z" />
<path d="M10.2826 16.7137H11.9926V18.4238L10.2826 18.4237V16.7137Z" />
<path d="M8.57256 21.855L10.2826 21.855L10.2826 23.565H8.57256V21.855Z" />
<path d="M8.57256 14.9925H10.2826L10.2826 16.7137H8.57256V14.9925Z" />
<path d="M6.85131 23.565L8.57256 23.565L8.57256 25.2863H6.85131V23.565Z" />
<path d="M6.85131 13.2825H8.57256L8.57256 14.9925L6.85131 14.9925V13.2825Z" />
<path d="M5.14131 25.2863H6.85131L6.85131 26.9963H5.14131V25.2863Z" />
<path d="M5.14131 11.5725H6.85131L6.85131 13.2825L5.14131 13.2825V11.5725Z" />
<path d="M3.43131 3H32.5688V4.71L3.43131 4.71V3Z" />
<path d="M3.43131 8.14125H5.14131V11.5725L3.43131 11.5725V8.14125Z" />
<path d="M1.71006 28.7063H3.43131L3.43131 30.4275H1.71006V28.7063Z" />
<path d="M1.71006 4.71L3.43131 4.71L3.43131 6.43125H1.71006V4.71Z" />
<path d="M6.10352e-05 6.43125L1.71006 6.43125V28.7063L6.10352e-05 28.7062V6.43125Z" />
</g>
<defs>
<clipPath id="clip0_214_430924">
<rect width="36" height="36" fill="white" />
</clipPath>
</defs>
</svg>
