<svg width="36" height="36" viewBox="0 0 36 36" fill="none" xmlns="http://www.w3.org/2000/svg">
<g fill="currentColor" clip-path="url(#clip0_332_652129)">
<path d="M0.860596 18.855H4.2806V17.145H6.00185V15.4238H7.71185V13.7137H9.4331V12.0038H11.1431V10.2825H12.8531V8.5725H14.5743V6.85125H16.2843V5.14125H19.7156V6.85125H21.4256V8.5725H23.1468V10.2825H24.8568V12.0038H26.5668V13.7137H28.2881V15.4238H29.9981V17.145H31.7081V18.855H35.1393V15.4238H33.4293V13.7137H31.7081V12.0038H29.9981V10.2825H28.2881V8.5725H26.5668V6.85125H24.8568V5.14125H23.1468V3.43125H21.4256V1.71H19.7156V0H16.2843V1.71H14.5743V3.43125H12.8531V5.14125H11.1431V6.85125H9.4331V8.5725H7.71185V10.2825H6.00185V12.0038H4.2806V13.7137H2.5706V15.4238H0.860596V18.855Z" />
<path d="M29.9981 34.29H23.1468V25.7175H21.4256V36H31.7081V20.565H29.9981V34.29Z" />
<path d="M28.2881 18.855H29.9981L29.9981 20.565H28.2881V18.855Z" />
<path d="M26.5668 17.145H28.2881L28.2881 18.855H26.5668V17.145Z" />
<path d="M24.8568 15.4238H26.5668V17.145H24.8568V15.4238Z" />
<path d="M23.1468 13.7137H24.8568V15.4238H23.1468V13.7137Z" />
<path d="M21.4256 12.0038H23.1468L23.1468 13.7137H21.4256V12.0038Z" />
<path d="M19.7156 23.9963H21.4256V25.7175H19.7156V23.9963Z" />
<path d="M19.7156 10.2825H21.4256V12.0038L19.7156 12.0037V10.2825Z" />
<path d="M16.2843 22.2863H19.7156V23.9963H16.2843V22.2863Z" />
<path d="M16.2843 8.5725H19.7156V10.2825H16.2843V8.5725Z" />
<path d="M14.5743 23.9963H16.2843V25.7175H14.5743V23.9963Z" />
<path d="M14.5743 10.2825H16.2843V12.0037H14.5743V10.2825Z" />
<path d="M14.5743 25.7175H12.8531V34.29H6.00185V20.565H4.2806V36H14.5743V25.7175Z" />
<path d="M12.8531 12.0038L14.5743 12.0037V13.7137H12.8531V12.0038Z" />
<path d="M11.1431 13.7137H12.8531V15.4238H11.1431V13.7137Z" />
<path d="M9.4331 15.4238H11.1431V17.145H9.4331V15.4238Z" />
<path d="M7.71185 17.145H9.4331V18.855H7.71185V17.145Z" />
<path d="M6.00185 18.855H7.71185V20.565H6.00185V18.855Z" />
</g>
<defs>
<clipPath id="clip0_332_652129">
<rect width="36" height="36" fill="white"/>
</clipPath>
</defs>
</svg>
