<svg width="40" height="40" viewBox="0 0 40 40" fill="none" xmlns="http://www.w3.org/2000/svg">
<path d="M0.440157 39.2373H8.74705C9.18683 39.2373 9.57774 38.993 9.82206 38.651L32.6905 1.075C32.9836 0.586361 32.6416 0 32.0552 0H24.1881C23.7972 0 23.4551 0.195454 23.2597 0.537498L0.0492441 38.5533C-0.0973482 38.8464 0.0981083 39.2373 0.440157 39.2373Z" fill="#3EA8FF"/>
<path d="M29.0742 38.6512L39.8732 21.3047C40.2153 20.7672 39.8243 20.0831 39.1891 20.0831H31.3709C31.0777 20.0831 30.7845 20.2297 30.6379 20.474L19.5457 38.2115C19.2526 38.6512 19.5946 39.2376 20.1321 39.2376H28.097C28.4879 39.2376 28.8788 39.0422 29.0742 38.6512Z" fill="#3EA8FF"/>
</svg>
