<svg width="36" height="36" viewBox="0 0 36 36" fill="none" xmlns="http://www.w3.org/2000/svg">
<g clip-path="url(#clip0_214_430921)" fill="currentColor">
<path d="M29.2869 5.14768V23.1392H26.7215V10.2954H24.1392V7.71308H11.2785V10.2954H8.71308V23.1392H6.14768V5.14768H8.71308V2.5654H11.2785V0H24.1392V2.5654H26.7215V5.14768H29.2869Z" />
<path d="M31.8523 33.4346H34.4346V36H31.8523V33.4346Z" />
<path d="M29.2869 30.8693H31.8523L31.8523 33.4346L29.2869 33.4347V30.8693Z" />
<path d="M24.1392 28.2869H29.2869L29.2869 30.8693L24.1392 30.8692V28.2869Z" />
<path d="M24.1392 23.1392L26.7215 23.1392L26.7215 25.7215H24.1392V23.1392Z" />
<path d="M11.2785 25.7215L24.1392 25.7215V28.2869L11.2785 28.2869V25.7215Z" />
<path d="M8.71308 23.1392L11.2785 23.1392L11.2785 25.7215L8.71307 25.7215L8.71308 23.1392Z" />
<path d="M6.14768 28.2869L11.2785 28.2869L11.2785 30.8692H6.14768V28.2869Z" />
<path d="M3.5654 30.8693L6.14768 30.8692L6.14767 33.4347H3.5654V30.8693Z" />
<path d="M1 33.4346L3.5654 33.4347L3.5654 36H1V33.4346Z" />
</g>
<defs>
<clipPath id="clip0_214_430921">
<rect width="36" height="36" fill="white" />
</clipPath>
</defs>
</svg>
