<svg width="18" height="18" viewBox="0 0 18 18" fill="none" xmlns="http://www.w3.org/2000/svg">
<g clip-path="url(#clip0_185_382155)">
<path d="M17.1394 5.14125H16.2844V3.42563H15.4237V2.57063H14.5688V1.71563H12.8531V0.855H11.1431V0H6.85687V0.855H5.14125V1.71563H3.42563V2.57063H2.57063V3.42563H1.71V5.14125H0.855V6.85687H0V11.1431H0.855V12.8588H1.71V14.5688H2.57063V15.4294H3.42563V16.2844H5.14125V17.145H6.85687V18H11.1431V17.145H12.8531V16.2844H14.5688V15.4294H15.4237V14.5688H16.2844V12.8588H17.1394V11.1431H18V6.85687H17.1394V5.14125ZM12.8531 9.4275H11.9981V10.2881H11.1431V11.1431H10.2825V11.9981H9.4275V12.8588H7.71187V13.7137H6.85687V4.28625H7.71187V5.14125H9.4275V6.00188H10.2825V6.85687H11.1431V7.71187H11.9981V8.5725H12.8531V9.4275Z" fill="currentColor"/>
</g>
<defs>
<clipPath id="clip0_185_382155">
<rect width="18" height="18" fill="white"/>
</clipPath>
</defs>
</svg>
