<svg width="36" height="36" viewBox="0 0 36 36" fill="none" xmlns="http://www.w3.org/2000/svg">
<g clip-path="url(#clip0_214_430922)" fill="currentColor">
<path d="M1.71 8.5725H34.29V34.2787H36V1.71H34.29V6.85125H1.71V1.71H0V34.2787H1.71V8.5725Z" />
<path d="M1.71 34.2787H34.29V36H1.71L1.71 34.2787Z" />
<path d="M23.9963 29.1375H30.8588V30.8587H23.9963V29.1375Z" />
<path d="M23.9963 25.7063H30.8588V27.4275H23.9963V25.7063Z" />
<path d="M5.14125 11.9925V22.2862H30.8588V11.9925H5.14125ZM29.1375 20.565H17.145V18.855H15.4238V20.565H6.85125V13.7137H23.9963V15.4237H25.7175V13.7137H29.1375V20.565Z" />
<path d="M20.5763 15.4237H23.9963L23.9962 17.1337H20.5763V15.4237Z" />
<path d="M17.145 17.1338L20.5763 17.1337V18.855L17.145 18.855L17.145 17.1338Z" />
<path d="M5.14125 29.1375H18.855V30.8587H5.14125V29.1375Z" />
<path d="M5.14125 25.7063H18.855V27.4275H5.14125V25.7063Z" />
<path d="M10.2825 3.42H12.0037V5.14125H10.2825V3.42Z" />
<path d="M8.5725 15.4237H12.0037V18.855H8.5725V15.4237Z" />
<path d="M6.85125 3.42H8.5725V5.14125H6.85125V3.42Z" />
<path d="M3.43125 3.42H5.14125V5.14125H3.43125V3.42Z" />
<path d="M1.71 0H34.29V1.71H1.71L1.71 0Z" />
</g>
<defs>
<clipPath id="clip0_214_430922">
<rect width="36" height="36" fill="white" />
</clipPath>
</defs>
</svg>
