<svg width="40" height="40" viewBox="0 0 40 40" fill="none" xmlns="http://www.w3.org/2000/svg">
<mask id="mask0_179_1247953" style="mask-type:luminance" maskUnits="userSpaceOnUse" x="0" y="0" width="40" height="40">
<path d="M40 0H0V40H40V0Z" fill="white"/>
</mask>
<g mask="url(#mask0_179_1247953)">
<path d="M16.9141 28.9103C11.7578 28.2723 8.12498 24.484 8.12498 19.5792C8.12498 17.5855 8.82812 15.4321 10 13.9966C9.4922 12.6807 9.57033 9.88933 10.1562 8.73292C11.7187 8.53354 13.8281 9.37092 15.0781 10.5273C16.5625 10.0488 18.125 9.80958 20.0391 9.80958C21.9531 9.80958 23.5156 10.0488 24.9219 10.4875C26.1328 9.37092 28.2813 8.53354 29.8438 8.73292C30.3906 9.80958 30.4687 12.6009 29.9609 13.9567C31.2109 15.472 31.875 17.5057 31.875 19.5792C31.875 24.484 28.2422 28.1925 23.0078 28.8705C24.3359 29.7477 25.2344 31.6618 25.2344 33.855V38.0021C25.2344 39.1984 26.2109 39.8763 27.3828 39.3978C34.4531 36.6463 40 29.4287 40 20.4964C40 9.21142 31.0156 9.94329e-08 19.9609 0C8.90625 -9.94329e-08 9.74041e-08 9.21142 0 20.4964C-7.64086e-08 29.349 5.5078 36.6862 12.9297 39.4377C13.9844 39.8364 15 39.1187 15 38.042V34.8519C14.4531 35.0912 13.75 35.2507 13.125 35.2507C10.5469 35.2507 9.02343 33.8151 7.92967 31.1434C7.5 30.0668 7.03127 29.4287 6.13282 29.3091C5.66408 29.2692 5.5078 29.0698 5.5078 28.8306C5.5078 28.352 6.28906 27.9932 7.07033 27.9932C8.20314 27.9932 9.17967 28.711 10.1953 30.1864C10.9766 31.3428 11.7969 31.8612 12.7734 31.8612C13.75 31.8612 14.375 31.5023 15.2734 30.5851C15.9375 29.9072 16.4453 29.3091 16.9141 28.9103Z" fill="#121212"/>
</g>
</svg>
