<svg width="36" height="36" viewBox="0 0 36 36" fill="none" xmlns="http://www.w3.org/2000/svg">
<g clip-path="url(#clip0_214_430923)" fill="currentColor">
<path d="M25.7062 8.5725V12.0037H23.9963V17.145H25.7062V18.855H27.4275V20.5763H22.2862V22.2862H20.565V23.9963H25.7062V27.4275H23.9963V30.8587H25.7062V32.5687H29.1375V30.8587H30.8587V29.1375H32.5688V25.7175H34.2787V22.2862H36V13.7137H34.2787V10.2825H32.5688V6.8625H30.8587V8.5725H25.7062Z" />
<path d="M29.1375 5.14125H30.8587V6.8625L29.1375 6.8625V5.14125Z" />
<path d="M25.7063 3.43125H29.1375L29.1375 5.14125H25.7063V3.43125Z" />
<path d="M22.2862 32.5687H25.7062V34.29H22.2862V32.5687Z" />
<path d="M22.2862 1.71H25.7062L25.7063 3.43125H22.2862V1.71Z" />
<path d="M18.855 32.5688H17.145V30.8588H11.9925V32.5688H10.2825V34.29H13.7137V36H22.2862V34.29L18.855 34.29V32.5688Z" />
<path d="M13.7137 0H22.2862V1.71L13.7137 1.71V0Z" />
<path d="M11.9925 18.855H13.7137V20.5763H15.4237V15.4237H11.9925V18.855Z" />
<path d="M6.85125 30.8588H10.2825L10.2825 32.5688H6.85125V30.8588Z" />
<path d="M5.14125 29.1375H6.85125L6.85125 30.8588L5.14125 30.8587V29.1375Z" />
<path d="M3.43125 25.7175V29.1375H5.14125L5.14125 27.4275H6.85125V25.7175H8.5725V20.5763H6.85125V18.855H5.14125V17.145H3.43125V15.4238H5.14125V13.7137H10.2825V12.0037H11.9925V10.2825H13.7137V12.0037H15.4237V10.2825H17.145V6.8625H15.4237V5.14125H11.9925V3.43125H13.7137L13.7137 1.71L10.2825 1.71V3.43125H6.85125V5.14125H5.14125V6.8625H3.43125V10.2825H1.71V13.7137H0V22.2862H1.71V25.7175H3.43125Z" />
</g>
<defs>
<clipPath id="clip0_214_430923">
<rect width="36" height="36" fill="white" />
</clipPath>
</defs>
</svg>
