<svg width="320" height="71" viewBox="0 0 320 71" fill="none" xmlns="http://www.w3.org/2000/svg">
  <g fill="currentColor">
    <path d="M276.248 6.62204C260.986 42.7885 253.355 46.8636 222.321 47.8824C223.542 45.4374 226.222 39.902 227.409 37.6947C249.285 37.6947 254.372 26.9975 264.547 6.62204H276.248Z" />
    <path d="M215.707 17.8286H221.812L218.251 26.4881H213.164C211.807 29.7143 208.483 37.4909 206.041 42.7885C203.599 48.0862 195.527 48.0522 191.797 47.373C192.136 45.3355 192.916 41.0566 193.323 40.2416C200.954 39.2228 199.936 35.1477 200.445 33.6196C195.968 39.3247 185.013 43.4677 180.095 44.8261C179.417 42.449 178.06 37.4909 178.06 36.6759C186.607 36.2684 195.527 29.3747 198.919 25.9788H187.727L191.288 17.8286H205.024L206.041 13.7535H217.234L215.707 17.8286Z" />
    <path fill-rule="evenodd" clip-rule="evenodd" d="M56.4706 0C63.6112 -5.63501e-06 62.0668 7.64081 56.9793 10.6971H59.5231L55.4531 20.3755H41.717L28.9984 47.373H17.2973L30.0159 19.8661H15.7711L19.841 10.6971H34.0859L36.1208 5.60326H47.8219L45.787 10.6971H48.3307C45.2782 7.64081 49.3482 5.6207e-06 56.4706 0ZM56.1039 4.47604C55.4003 3.71623 53.977 3.89209 52.9243 4.86903C51.8716 5.84636 51.5886 7.25496 52.2923 8.01489C52.996 8.77462 54.4194 8.59889 55.472 7.62191C56.5247 6.64458 56.8077 5.23598 56.1039 4.47604Z" />
    <path d="M121.081 18.8473L137.87 23.9412L131.765 34.6383L115.994 28.0163L107.345 47.373L96.1526 46.8636L115.485 5.60326H126.677L121.081 18.8473Z" />
    <path d="M181.622 8.1502C169.921 38.7134 148.045 47.373 130.238 47.373C131.765 44.4865 134.919 38.4078 135.326 37.1853C153.887 37.5928 162.731 24.4506 164.833 17.8286H140.922L146.01 8.1502H181.622Z" />
    <path d="M311.86 12.2253H320L315.93 21.9037H308.299L297.107 47.373H285.405L292.019 31.582C285.1 38.1022 273.874 43.1281 269.126 44.8261C269.634 41.9396 270.754 35.8609 271.161 34.6383C278.893 33.8233 286.592 25.809 289.475 21.9037H277.774L282.353 12.2253H299.65L302.703 4.58449H314.913L311.86 12.2253Z" />
    <path d="M25.9459 23.9412C26.7599 26.7938 16.7886 38.7134 11.7011 44.3167H0C2.44197 43.5017 11.5315 30.3934 15.7711 23.9412H25.9459Z" />
    <path d="M51.3832 23.9412C49.6873 29.3747 46.8045 41.0566 48.8394 44.3167H36.6296C37.6471 37.5249 40.089 23.9412 41.717 23.9412H51.3832Z" />
    <path d="M99.2051 22.413C97.6789 22.9224 95.8135 28.8653 94.6264 32.0914H56.9793L62.0668 22.413H99.2051Z" />
    <path d="M240.127 31.582H228.426L240.636 7.64081H251.828L240.127 31.582Z" />
    <path d="M153.022 68.1436L151.646 54.5283H155.187L156.308 65.7633H156.573L166.237 54.5283H169.777L158.049 68.1436H153.022Z" />
    <path d="M169.618 68.2388C167.8 68.2388 166.542 67.8199 165.843 66.982C165.149 66.1315 165.113 64.8874 165.736 63.2497C166.363 61.5994 167.345 60.3553 168.681 59.5174C170.022 58.6668 171.601 58.2415 173.419 58.2415H178.506C179.7 58.2415 180.508 58.5081 180.929 59.0413C181.369 59.5618 181.403 60.3108 181.031 61.2883C180.274 63.2815 178.667 64.278 176.211 64.278H168.519C168.355 65.4586 168.999 66.049 170.451 66.049H178.692L177.86 68.2388H169.618ZM172.586 60.4314C171.189 60.4314 170.118 60.9837 169.372 62.0881H176.901C177.173 62.0881 177.412 62.012 177.619 61.8596C177.84 61.7073 178.001 61.4978 178.102 61.2312C178.305 60.698 178.115 60.4314 177.531 60.4314H172.586Z" />
    <path d="M180.26 68.1436L183.988 58.3368H192.006C193.186 58.3368 193.948 58.616 194.292 59.1746C194.641 59.7205 194.644 60.4441 194.301 61.3455L193.526 63.383H190.535L191.179 61.6882C191.469 60.9265 191.207 60.5457 190.393 60.5457H186.14L183.251 68.1436H180.26Z" />
    <path d="M192.954 68.2388L193.786 66.049H203.758C204.328 66.049 204.726 65.7506 204.953 65.154C205.175 64.57 205.001 64.278 204.431 64.278H197.98C196.773 64.278 195.954 64.0241 195.523 63.5163C195.096 62.9958 195.067 62.2532 195.434 61.2883C195.805 60.3108 196.402 59.5618 197.224 59.0413C198.064 58.5081 199.081 58.2415 200.275 58.2415H209.555L208.722 60.4314H199.585C199.002 60.4314 198.609 60.698 198.406 61.2312C198.305 61.4978 198.306 61.7073 198.411 61.8596C198.516 62.012 198.697 62.0881 198.955 62.0881H205.793C206.851 62.0881 207.559 62.3484 207.918 62.8689C208.294 63.3767 208.297 64.1193 207.925 65.0968C207.549 66.087 206.969 66.8614 206.187 67.42C205.41 67.9659 204.499 68.2388 203.454 68.2388H192.954Z" />
    <path d="M208.499 68.1436L212.227 58.3368H215.178L211.45 68.1436H208.499ZM212.822 56.7181L213.64 54.5663H216.632L215.814 56.7181H212.822Z" />
    <path d="M219.022 68.2388C217.204 68.2388 215.946 67.8199 215.247 66.982C214.552 66.1315 214.517 64.8874 215.139 63.2497C215.767 61.5994 216.749 60.3553 218.085 59.5174C219.425 58.6668 221.005 58.2415 222.823 58.2415H226.587C228.405 58.2415 229.661 58.6668 230.355 59.5174C231.054 60.3553 231.09 61.5994 230.463 63.2497C229.84 64.8874 228.858 66.1315 227.518 66.982C226.181 67.8199 224.605 68.2388 222.787 68.2388H219.022ZM219.854 66.049H223.619C224.501 66.049 225.259 65.8204 225.894 65.3634C226.543 64.9064 227.048 64.2018 227.41 63.2497C227.777 62.2849 227.81 61.574 227.509 61.117C227.221 60.6599 226.637 60.4314 225.755 60.4314H221.99C221.108 60.4314 220.343 60.6599 219.695 61.117C219.06 61.574 218.559 62.2849 218.192 63.2497C217.83 64.2018 217.793 64.9064 218.08 65.3634C218.381 65.8204 218.973 66.049 219.854 66.049Z" />
    <path d="M230.439 68.1436L234.167 58.3368H243.304C244.498 58.3368 245.26 58.616 245.59 59.1746C245.939 59.7205 245.942 60.4441 245.599 61.3455L243.015 68.1436H240.064L242.525 61.6692C242.815 60.9075 242.553 60.5266 241.739 60.5266H236.285L233.389 68.1436H230.439Z" />
    <path d="M251.75 68.1436L253.285 64.1066C253.768 62.8371 254.521 61.8533 255.547 61.155C256.572 60.4568 257.81 60.1077 259.262 60.1077H265.957C267.246 60.1077 268.086 59.5936 268.477 58.5653C268.868 57.537 268.419 57.0228 267.13 57.0228H256.304L257.245 54.5473H268.702C270.113 54.5473 271.07 54.9028 271.573 55.6137C272.089 56.3246 272.109 57.3085 271.631 58.5653C271.153 59.8221 270.385 60.8059 269.328 61.5168C268.285 62.2278 267.058 62.5832 265.647 62.5832H258.768C258.185 62.5832 257.691 62.7229 257.286 63.0022C256.9 63.2688 256.613 63.6496 256.425 64.1447L255.838 65.6872H268.537L267.603 68.1436H251.75Z" />
    <path d="M269.829 68.1436L270.864 65.4206H274.12L273.085 68.1436H269.829Z" />
    <path d="M283.034 68.2388C280.416 68.2388 278.594 67.6612 277.568 66.506C276.56 65.338 276.491 63.6115 277.359 61.3264C278.223 59.054 279.601 57.3402 281.492 56.185C283.401 55.017 285.665 54.433 288.283 54.433H290.928C293.56 54.433 295.38 55.017 296.388 56.185C297.4 57.3402 297.474 59.054 296.61 61.3264C295.742 63.6115 294.359 65.338 292.464 66.506C290.573 67.6612 288.311 68.2388 285.68 68.2388H283.034ZM280.676 61.3264C280.15 62.7102 280.109 63.7639 280.553 64.4875L291.361 57.0419C290.906 56.953 290.374 56.9086 289.763 56.9086H287.566C285.856 56.9086 284.428 57.2577 283.281 57.9559C282.133 58.6541 281.265 59.7776 280.676 61.3264ZM284.199 65.7633H286.397C288.106 65.7633 289.535 65.4142 290.682 64.716C291.834 64.0051 292.704 62.8752 293.293 61.3264C293.819 59.9427 293.854 58.889 293.396 58.1654L282.561 65.63C283.029 65.7189 283.575 65.7633 284.199 65.7633Z" />
  </g>
</svg>
