<svg width="110" height="29" viewBox="0 0 110 29" fill="none" xmlns="http://www.w3.org/2000/svg">
  <g fill="currentColor">
    <path d="M7.45456 24.7008C6.14847 23.503 5.76719 20.9867 6.31133 19.1638C7.25487 20.313 8.56222 20.6773 9.91636 20.8826C12.0069 21.1999 14.0599 21.0813 16.0019 20.1228C16.2241 20.0132 16.4294 19.867 16.6721 19.7194C16.8544 20.2495 16.9018 20.7849 16.8381 21.3298C16.6834 22.6568 16.025 23.682 14.9779 24.4589C14.5592 24.7698 14.1161 25.0476 13.6837 25.3408C12.3551 26.2412 11.9956 27.2974 12.4949 28.8338C12.5067 28.8712 12.5173 28.9086 12.5442 29C11.8659 28.6955 11.3703 28.2521 10.9928 27.6692C10.5941 27.0538 10.4044 26.3732 10.3944 25.6369C10.3894 25.2784 10.3894 24.9168 10.3413 24.5636C10.224 23.7023 9.82089 23.3166 9.06146 23.2942C8.28202 23.2716 7.66549 23.7548 7.502 24.516C7.48951 24.5743 7.47141 24.632 7.45331 24.6999L7.45456 24.7008Z" />
    <path d="M0 18.8599C0 18.8599 3.86757 16.9701 7.74595 16.9701L10.6701 7.89249C10.7796 7.45349 11.0993 7.15514 11.4601 7.15514C11.821 7.15514 12.1407 7.45349 12.2501 7.89249L15.1743 16.9701C19.7676 16.9701 22.9204 18.8599 22.9204 18.8599C22.9204 18.8599 16.3508 0.90857 16.338 0.872552C16.1495 0.341823 15.8312 0 15.402 0H7.51889C7.08976 0 6.78431 0.341823 6.58292 0.872552C6.56872 0.907903 0 18.8599 0 18.8599Z" />
    <path d="M40.7769 13.0856C40.7769 14.6763 38.8043 15.6263 36.0731 15.6263C34.2954 15.6263 33.6669 15.1844 33.6669 14.2565C33.6669 13.2844 34.4472 12.8205 36.2246 12.8205C37.8289 12.8205 39.1944 12.8425 40.7769 13.0414V13.0856ZM40.7986 11.1193C39.8232 10.8983 38.349 10.7658 36.5932 10.7658C31.4774 10.7658 29.0715 11.9809 29.0715 14.8089C29.0715 17.7473 30.7188 18.8741 34.5339 18.8741C37.7638 18.8741 39.953 18.0566 40.7553 16.0461H40.8851C40.8634 16.5321 40.8417 17.0182 40.8417 17.3938C40.8417 18.4322 41.0152 18.5205 41.8605 18.5205H45.8491C45.6323 17.9019 45.5022 16.1565 45.5022 14.6542C45.5022 13.0414 45.5672 11.8263 45.5672 10.1914C45.5672 6.85525 43.5732 4.73428 37.3302 4.73428C34.6423 4.73428 31.6509 5.19825 29.375 5.88314C29.5916 6.78896 29.8951 8.62271 30.0469 9.81574C32.0195 8.88783 34.8158 8.49016 36.9835 8.49016C39.9747 8.49016 40.7986 9.17505 40.7986 10.5669V11.1193Z" />
    <path d="M51.7423 14.0135C51.2005 14.0798 50.4633 14.0798 49.7047 14.0798C48.9027 14.0798 48.1657 14.0577 47.667 13.9914C47.667 14.1682 47.6453 14.367 47.6453 14.5437C47.6453 17.3054 49.4445 18.9181 55.7742 18.9181C61.7351 18.9181 63.6643 17.3275 63.6643 14.5216C63.6643 11.8704 62.3856 10.5669 56.728 10.2797C52.3275 10.0809 51.9375 9.59482 51.9375 9.04249C51.9375 8.40179 52.5009 8.07038 55.449 8.07038C58.5055 8.07038 59.3291 8.49016 59.3291 9.3739V9.57273C59.7625 9.55063 60.5431 9.52856 61.3451 9.52856C62.1037 9.52856 62.9274 9.55063 63.4044 9.59482C63.4044 9.39597 63.4261 9.21924 63.4261 9.06459C63.4261 5.81685 60.738 4.75638 55.5357 4.75638C49.683 4.75638 47.7104 6.19246 47.7104 8.99829C47.7104 11.5169 49.293 13.0856 54.9072 13.3286C59.0472 13.4612 59.5026 13.9251 59.5026 14.5658C59.5026 15.2507 58.8304 15.56 55.926 15.56C52.5877 15.56 51.7423 15.0961 51.7423 14.1461V14.0135Z" />
    <path d="M70.8189 2.37029C69.2366 3.85056 66.397 5.33081 64.8147 5.72849C64.8364 6.54594 64.8364 8.04828 64.8364 8.86574L66.2886 8.88783C66.2669 10.4565 66.2452 12.3565 66.2452 13.6158C66.2452 16.5542 67.7842 18.7636 72.5747 18.7636C74.5907 18.7636 75.9347 18.5426 77.6038 18.1891C77.4303 17.1065 77.2352 15.4495 77.1701 14.1903C76.173 14.5216 74.9159 14.6984 73.5285 14.6984C71.5993 14.6984 70.8189 14.1682 70.8189 12.6437C70.8189 11.3181 70.8189 10.0809 70.8406 8.93203C73.3119 8.95413 75.783 8.99829 77.2352 9.04249C77.2135 7.89363 77.2568 6.23662 77.3219 5.13196C75.2192 5.17615 72.8566 5.19825 70.9057 5.19825C70.9274 4.22614 70.949 3.29823 70.9707 2.37029H70.8189Z" />
    <path d="M83.7656 8.20294C83.7873 7.05408 83.8089 6.082 83.8306 5.13196H79.4734C79.5385 7.03201 79.5385 8.97622 79.5385 11.8263C79.5385 14.6763 79.5168 16.6426 79.4734 18.5205H84.4592C84.3724 17.1949 84.3507 14.9635 84.3507 13.0635C84.3507 10.0588 85.5647 9.19715 88.3176 9.19715C89.5966 9.19715 90.507 9.3518 91.309 9.63902C91.3307 8.51225 91.5475 6.32502 91.6774 5.35291C90.8537 5.10989 89.9433 4.95523 88.8377 4.95523C86.4751 4.93313 84.741 5.90524 83.939 8.22504L83.7656 8.20294Z" />
    <path d="M105.47 11.7379C105.47 14.1461 103.736 15.2728 101.004 15.2728C98.2948 15.2728 96.5607 14.2123 96.5607 11.7379C96.5607 9.26341 98.3165 8.3355 101.004 8.3355C103.714 8.3355 105.47 9.32971 105.47 11.7379ZM110 11.6274C110 6.83315 106.272 4.69011 101.004 4.69011C95.7154 4.69011 92.1168 6.83315 92.1168 11.6274C92.1168 16.3996 95.4768 18.9625 100.983 18.9625C106.532 18.9625 110 16.3996 110 11.6274Z" />
  </g>
</svg>
