<svg width="429" height="237" viewBox="0 0 429 237" fill="none" xmlns="http://www.w3.org/2000/svg">
  <g fill="currentColor">
    <circle opacity="0.75" cx="4.5" cy="127.5" r="4.5" />
    <circle opacity="0.75" cx="124.5" cy="127.5" r="4.5" />
    <circle opacity="0.75" cx="64.5" cy="127.5" r="4.5" />
    <circle opacity="0.75" cx="184.5" cy="127.5" r="4.5" />
    <circle opacity="0.75" cx="259.5" cy="127.5" r="4.5" />
    <circle opacity="0.75" cx="379.5" cy="127.5" r="4.5" />
    <circle opacity="0.75" cx="34.5" cy="127.5" r="4.5" />
    <circle opacity="0.75" cx="154.5" cy="127.5" r="4.5" />
    <circle opacity="0.75" cx="94.5" cy="127.5" r="4.5" />
    <circle opacity="0.75" cx="214.5" cy="127.5" r="4.5" />
    <circle opacity="0.75" cx="334.5" cy="127.5" r="4.5" />
    <circle opacity="0.75" cx="289.5" cy="127.5" r="4.5" />
    <circle opacity="0.75" cx="409.5" cy="127.5" r="4.5" />
    <circle opacity="0.5" cx="4.5" cy="52.5" r="4.5" />
    <circle opacity="0.5" cx="124.5" cy="52.5" r="4.5" />
    <circle opacity="0.5" cx="64.5" cy="52.5" r="4.5" />
    <circle opacity="0.5" cx="184.5" cy="52.5" r="4.5" />
    <circle opacity="0.5" cx="259.5" cy="52.5" r="4.5" />
    <circle opacity="0.5" cx="379.5" cy="52.5" r="4.5" />
    <circle opacity="0.5" cx="34.5" cy="52.5" r="4.5" />
    <circle opacity="0.5" cx="154.5" cy="52.5" r="4.5" />
    <circle opacity="0.5" cx="94.5" cy="52.5" r="4.5" />
    <circle opacity="0.5" cx="214.5" cy="52.5" r="4.5" />
    <circle opacity="0.5" cx="334.5" cy="52.5" r="4.5" />
    <circle opacity="0.5" cx="289.5" cy="52.5" r="4.5" />
    <circle opacity="0.5" cx="409.5" cy="52.5" r="4.5" />
    <circle opacity="0.3" cx="4.5" cy="1.5" r="1.5" />
    <circle opacity="0.3" cx="124.5" cy="1.5" r="1.5" />
    <circle opacity="0.3" cx="64.5" cy="1.5" r="1.5" />
    <circle opacity="0.3" cx="184.5" cy="1.5" r="1.5" />
    <circle opacity="0.3" cx="259.5" cy="1.5" r="1.5" />
    <circle opacity="0.3" cx="379.5" cy="1.5" r="1.5" />
    <circle opacity="0.3" cx="34.5" cy="1.5" r="1.5" />
    <circle opacity="0.3" cx="154.5" cy="1.5" r="1.5" />
    <circle opacity="0.3" cx="94.5" cy="1.5" r="1.5" />
    <circle opacity="0.3" cx="214.5" cy="1.5" r="1.5" />
    <circle opacity="0.3" cx="334.5" cy="1.5" r="1.5" />
    <circle opacity="0.3" cx="289.5" cy="1.5" r="1.5" />
    <circle opacity="0.3" cx="409.5" cy="1.5" r="1.5" />
    <circle opacity="0.75" cx="19.5" cy="127.5" r="4.5" />
    <circle opacity="0.75" cx="139.5" cy="127.5" r="4.5" />
    <circle opacity="0.75" cx="79.5" cy="127.5" r="4.5" />
    <circle opacity="0.75" cx="199.5" cy="127.5" r="4.5" />
    <circle opacity="0.75" cx="319.5" cy="127.5" r="4.5" />
    <circle opacity="0.75" cx="274.5" cy="127.5" r="4.5" />
    <circle opacity="0.75" cx="394.5" cy="127.5" r="4.5" />
    <circle opacity="0.75" cx="49.5" cy="127.5" r="4.5" />
    <circle opacity="0.75" cx="169.5" cy="127.5" r="4.5" />
    <circle opacity="0.75" cx="244.5" cy="127.5" r="4.5" />
    <circle opacity="0.75" cx="364.5" cy="127.5" r="4.5" />
    <circle opacity="0.75" cx="109.5" cy="127.5" r="4.5" />
    <circle opacity="0.75" cx="229.5" cy="127.5" r="4.5" />
    <circle opacity="0.75" cx="349.5" cy="127.5" r="4.5" />
    <circle opacity="0.75" cx="304.5" cy="127.5" r="4.5" />
    <circle opacity="0.75" cx="424.5" cy="127.5" r="4.5" />
    <circle opacity="0.5" cx="19.5" cy="52.5" r="4.5" />
    <circle opacity="0.5" cx="139.5" cy="52.5" r="4.5" />
    <circle opacity="0.5" cx="79.5" cy="52.5" r="4.5" />
    <circle opacity="0.5" cx="199.5" cy="52.5" r="4.5" />
    <circle opacity="0.5" cx="319.5" cy="52.5" r="4.5" />
    <circle opacity="0.5" cx="274.5" cy="52.5" r="4.5" />
    <circle opacity="0.5" cx="394.5" cy="52.5" r="4.5" />
    <circle opacity="0.5" cx="49.5" cy="52.5" r="4.5" />
    <circle opacity="0.5" cx="169.5" cy="52.5" r="4.5" />
    <circle opacity="0.5" cx="244.5" cy="52.5" r="4.5" />
    <circle opacity="0.5" cx="364.5" cy="52.5" r="4.5" />
    <circle opacity="0.5" cx="109.5" cy="52.5" r="4.5" />
    <circle opacity="0.5" cx="229.5" cy="52.5" r="4.5" />
    <circle opacity="0.5" cx="349.5" cy="52.5" r="4.5" />
    <circle opacity="0.5" cx="304.5" cy="52.5" r="4.5" />
    <circle opacity="0.5" cx="424.5" cy="52.5" r="4.5" />
    <circle opacity="0.3" cx="19.5" cy="1.5" r="1.5" />
    <circle opacity="0.3" cx="139.5" cy="1.5" r="1.5" />
    <circle opacity="0.3" cx="79.5" cy="1.5" r="1.5" />
    <circle opacity="0.3" cx="199.5" cy="1.5" r="1.5" />
    <circle opacity="0.3" cx="319.5" cy="1.5" r="1.5" />
    <circle opacity="0.3" cx="274.5" cy="1.5" r="1.5" />
    <circle opacity="0.3" cx="394.5" cy="1.5" r="1.5" />
    <circle opacity="0.3" cx="49.5" cy="1.5" r="1.5" />
    <circle opacity="0.3" cx="169.5" cy="1.5" r="1.5" />
    <circle opacity="0.3" cx="244.5" cy="1.5" r="1.5" />
    <circle opacity="0.3" cx="364.5" cy="1.5" r="1.5" />
    <circle opacity="0.3" cx="109.5" cy="1.5" r="1.5" />
    <circle opacity="0.3" cx="229.5" cy="1.5" r="1.5" />
    <circle opacity="0.3" cx="349.5" cy="1.5" r="1.5" />
    <circle opacity="0.3" cx="304.5" cy="1.5" r="1.5" />
    <circle opacity="0.3" cx="424.5" cy="1.5" r="1.5" />
    <circle opacity="0.8" cx="19.5" cy="142.5" r="4.5" />
    <circle opacity="0.8" cx="139.5" cy="142.5" r="4.5" />
    <circle opacity="0.8" cx="79.5" cy="142.5" r="4.5" />
    <circle opacity="0.8" cx="199.5" cy="142.5" r="4.5" />
    <circle opacity="0.8" cx="319.5" cy="142.5" r="4.5" />
    <circle opacity="0.8" cx="274.5" cy="142.5" r="4.5" />
    <circle opacity="0.8" cx="394.5" cy="142.5" r="4.5" />
    <circle opacity="0.8" cx="49.5" cy="142.5" r="4.5" />
    <circle opacity="0.8" cx="169.5" cy="142.5" r="4.5" />
    <circle opacity="0.8" cx="244.5" cy="142.5" r="4.5" />
    <circle opacity="0.8" cx="364.5" cy="142.5" r="4.5" />
    <circle opacity="0.8" cx="109.5" cy="142.5" r="4.5" />
    <circle opacity="0.8" cx="229.5" cy="142.5" r="4.5" />
    <circle opacity="0.8" cx="349.5" cy="142.5" r="4.5" />
    <circle opacity="0.8" cx="304.5" cy="142.5" r="4.5" />
    <circle opacity="0.8" cx="424.5" cy="142.5" r="4.5" />
    <circle opacity="0.55" cx="19.5" cy="67.5" r="4.5" />
    <circle opacity="0.55" cx="139.5" cy="67.5" r="4.5" />
    <circle opacity="0.55" cx="79.5" cy="67.5" r="4.5" />
    <circle opacity="0.55" cx="199.5" cy="67.5" r="4.5" />
    <circle opacity="0.55" cx="319.5" cy="67.5" r="4.5" />
    <circle opacity="0.55" cx="274.5" cy="67.5" r="4.5" />
    <circle opacity="0.55" cx="394.5" cy="67.5" r="4.5" />
    <circle opacity="0.55" cx="49.5" cy="67.5" r="4.5" />
    <circle opacity="0.55" cx="169.5" cy="67.5" r="4.5" />
    <circle opacity="0.55" cx="244.5" cy="67.5" r="4.5" />
    <circle opacity="0.55" cx="364.5" cy="67.5" r="4.5" />
    <circle opacity="0.55" cx="109.5" cy="67.5" r="4.5" />
    <circle opacity="0.55" cx="229.5" cy="67.5" r="4.5" />
    <circle opacity="0.55" cx="349.5" cy="67.5" r="4.5" />
    <circle opacity="0.55" cx="304.5" cy="67.5" r="4.5" />
    <circle opacity="0.55" cx="424.5" cy="67.5" r="4.5" />
    <circle opacity="0.85" cx="19.5" cy="157.5" r="4.5" />
    <circle opacity="0.85" cx="139.5" cy="157.5" r="4.5" />
    <circle opacity="0.85" cx="79.5" cy="157.5" r="4.5" />
    <circle opacity="0.85" cx="199.5" cy="157.5" r="4.5" />
    <circle opacity="0.85" cx="319.5" cy="157.5" r="4.5" />
    <circle opacity="0.85" cx="274.5" cy="157.5" r="4.5" />
    <circle opacity="0.85" cx="394.5" cy="157.5" r="4.5" />
    <circle opacity="0.85" cx="49.5" cy="157.5" r="4.5" />
    <circle opacity="0.85" cx="169.5" cy="157.5" r="4.5" />
    <circle opacity="0.85" cx="244.5" cy="157.5" r="4.5" />
    <circle opacity="0.85" cx="364.5" cy="157.5" r="4.5" />
    <circle opacity="0.85" cx="109.5" cy="157.5" r="4.5" />
    <circle opacity="0.85" cx="229.5" cy="157.5" r="4.5" />
    <circle opacity="0.85" cx="349.5" cy="157.5" r="4.5" />
    <circle opacity="0.85" cx="304.5" cy="157.5" r="4.5" />
    <circle opacity="0.85" cx="424.5" cy="157.5" r="4.5" />
    <circle opacity="0.6" cx="19.5" cy="82.5" r="4.5" />
    <circle opacity="0.6" cx="139.5" cy="82.5" r="4.5" />
    <circle opacity="0.6" cx="79.5" cy="82.5" r="4.5" />
    <circle opacity="0.6" cx="199.5" cy="82.5" r="4.5" />
    <circle opacity="0.6" cx="319.5" cy="82.5" r="4.5" />
    <circle opacity="0.6" cx="274.5" cy="82.5" r="4.5" />
    <circle opacity="0.6" cx="394.5" cy="82.5" r="4.5" />
    <circle opacity="0.6" cx="49.5" cy="82.5" r="4.5" />
    <circle opacity="0.6" cx="169.5" cy="82.5" r="4.5" />
    <circle opacity="0.6" cx="244.5" cy="82.5" r="4.5" />
    <circle opacity="0.6" cx="364.5" cy="82.5" r="4.5" />
    <circle opacity="0.6" cx="109.5" cy="82.5" r="4.5" />
    <circle opacity="0.6" cx="229.5" cy="82.5" r="4.5" />
    <circle opacity="0.6" cx="349.5" cy="82.5" r="4.5" />
    <circle opacity="0.6" cx="304.5" cy="82.5" r="4.5" />
    <circle opacity="0.6" cx="424.5" cy="82.5" r="4.5" />
    <circle opacity="0.95" cx="19.5" cy="187.5" r="4.5" />
    <circle opacity="0.95" cx="139.5" cy="187.5" r="4.5" />
    <circle opacity="0.95" cx="79.5" cy="187.5" r="4.5" />
    <circle opacity="0.95" cx="199.5" cy="187.5" r="4.5" />
    <circle opacity="0.95" cx="319.5" cy="187.5" r="4.5" />
    <circle opacity="0.95" cx="274.5" cy="187.5" r="4.5" />
    <circle opacity="0.95" cx="394.5" cy="187.5" r="4.5" />
    <circle opacity="0.95" cx="49.5" cy="187.5" r="4.5" />
    <circle opacity="0.95" cx="169.5" cy="187.5" r="4.5" />
    <circle opacity="0.95" cx="244.5" cy="187.5" r="4.5" />
    <circle opacity="0.95" cx="364.5" cy="187.5" r="4.5" />
    <circle opacity="0.95" cx="109.5" cy="187.5" r="4.5" />
    <circle opacity="0.95" cx="229.5" cy="187.5" r="4.5" />
    <circle opacity="0.95" cx="349.5" cy="187.5" r="4.5" />
    <circle opacity="0.95" cx="304.5" cy="187.5" r="4.5" />
    <circle opacity="0.95" cx="424.5" cy="187.5" r="4.5" />
    <circle opacity="0.95" cx="19.5" cy="217.5" r="4.5" />
    <circle opacity="0.95" cx="139.5" cy="217.5" r="4.5" />
    <circle opacity="0.95" cx="79.5" cy="217.5" r="4.5" />
    <circle opacity="0.95" cx="199.5" cy="217.5" r="4.5" />
    <circle opacity="0.95" cx="319.5" cy="217.5" r="4.5" />
    <circle opacity="0.95" cx="274.5" cy="217.5" r="4.5" />
    <circle opacity="0.95" cx="394.5" cy="217.5" r="4.5" />
    <circle opacity="0.95" cx="49.5" cy="217.5" r="4.5" />
    <circle opacity="0.95" cx="169.5" cy="217.5" r="4.5" />
    <circle opacity="0.95" cx="244.5" cy="217.5" r="4.5" />
    <circle opacity="0.95" cx="364.5" cy="217.5" r="4.5" />
    <circle opacity="0.95" cx="109.5" cy="217.5" r="4.5" />
    <circle opacity="0.95" cx="229.5" cy="217.5" r="4.5" />
    <circle opacity="0.95" cx="349.5" cy="217.5" r="4.5" />
    <circle opacity="0.95" cx="304.5" cy="217.5" r="4.5" />
    <circle opacity="0.95" cx="424.5" cy="217.5" r="4.5" />
    <circle opacity="0.7" cx="19.5" cy="112.5" r="4.5" />
    <circle opacity="0.7" cx="139.5" cy="112.5" r="4.5" />
    <circle opacity="0.7" cx="79.5" cy="112.5" r="4.5" />
    <circle opacity="0.7" cx="199.5" cy="112.5" r="4.5" />
    <circle opacity="0.7" cx="319.5" cy="112.5" r="4.5" />
    <circle opacity="0.7" cx="274.5" cy="112.5" r="4.5" />
    <circle opacity="0.7" cx="394.5" cy="112.5" r="4.5" />
    <circle opacity="0.7" cx="49.5" cy="112.5" r="4.5" />
    <circle opacity="0.7" cx="169.5" cy="112.5" r="4.5" />
    <circle opacity="0.7" cx="244.5" cy="112.5" r="4.5" />
    <circle opacity="0.7" cx="364.5" cy="112.5" r="4.5" />
    <circle opacity="0.7" cx="109.5" cy="112.5" r="4.5" />
    <circle opacity="0.7" cx="229.5" cy="112.5" r="4.5" />
    <circle opacity="0.7" cx="349.5" cy="112.5" r="4.5" />
    <circle opacity="0.7" cx="304.5" cy="112.5" r="4.5" />
    <circle opacity="0.7" cx="424.5" cy="112.5" r="4.5" />
    <circle opacity="0.9" cx="19.5" cy="172.5" r="4.5" />
    <circle opacity="0.9" cx="139.5" cy="172.5" r="4.5" />
    <circle opacity="0.9" cx="79.5" cy="172.5" r="4.5" />
    <circle opacity="0.9" cx="199.5" cy="172.5" r="4.5" />
    <circle opacity="0.9" cx="319.5" cy="172.5" r="4.5" />
    <circle opacity="0.9" cx="274.5" cy="172.5" r="4.5" />
    <circle opacity="0.9" cx="394.5" cy="172.5" r="4.5" />
    <circle opacity="0.9" cx="49.5" cy="172.5" r="4.5" />
    <circle opacity="0.9" cx="169.5" cy="172.5" r="4.5" />
    <circle opacity="0.9" cx="244.5" cy="172.5" r="4.5" />
    <circle opacity="0.9" cx="364.5" cy="172.5" r="4.5" />
    <circle opacity="0.9" cx="109.5" cy="172.5" r="4.5" />
    <circle opacity="0.9" cx="229.5" cy="172.5" r="4.5" />
    <circle opacity="0.9" cx="349.5" cy="172.5" r="4.5" />
    <circle opacity="0.9" cx="304.5" cy="172.5" r="4.5" />
    <circle opacity="0.9" cx="424.5" cy="172.5" r="4.5" />
    <circle opacity="0.65" cx="19.5" cy="97.5" r="4.5" />
    <circle opacity="0.65" cx="139.5" cy="97.5" r="4.5" />
    <circle opacity="0.65" cx="79.5" cy="97.5" r="4.5" />
    <circle opacity="0.65" cx="199.5" cy="97.5" r="4.5" />
    <circle opacity="0.65" cx="319.5" cy="97.5" r="4.5" />
    <circle opacity="0.65" cx="274.5" cy="97.5" r="4.5" />
    <circle opacity="0.65" cx="394.5" cy="97.5" r="4.5" />
    <circle opacity="0.65" cx="49.5" cy="97.5" r="4.5" />
    <circle opacity="0.65" cx="169.5" cy="97.5" r="4.5" />
    <circle opacity="0.65" cx="244.5" cy="97.5" r="4.5" />
    <circle opacity="0.65" cx="364.5" cy="97.5" r="4.5" />
    <circle opacity="0.65" cx="109.5" cy="97.5" r="4.5" />
    <circle opacity="0.65" cx="229.5" cy="97.5" r="4.5" />
    <circle opacity="0.65" cx="349.5" cy="97.5" r="4.5" />
    <circle opacity="0.65" cx="304.5" cy="97.5" r="4.5" />
    <circle opacity="0.65" cx="424.5" cy="97.5" r="4.5" />
    <circle cx="19.5" cy="202.5" r="4.5" />
    <circle cx="139.5" cy="202.5" r="4.5" />
    <circle cx="79.5" cy="202.5" r="4.5" />
    <circle cx="199.5" cy="202.5" r="4.5" />
    <circle cx="319.5" cy="202.5" r="4.5" />
    <circle cx="274.5" cy="202.5" r="4.5" />
    <circle cx="394.5" cy="202.5" r="4.5" />
    <circle cx="49.5" cy="202.5" r="4.5" />
    <circle cx="169.5" cy="202.5" r="4.5" />
    <circle cx="244.5" cy="202.5" r="4.5" />
    <circle cx="364.5" cy="202.5" r="4.5" />
    <circle cx="109.5" cy="202.5" r="4.5" />
    <circle cx="229.5" cy="202.5" r="4.5" />
    <circle cx="349.5" cy="202.5" r="4.5" />
    <circle cx="304.5" cy="202.5" r="4.5" />
    <circle cx="424.5" cy="202.5" r="4.5" />
    <circle cx="19.5" cy="232.5" r="4.5" />
    <circle cx="139.5" cy="232.5" r="4.5" />
    <circle cx="79.5" cy="232.5" r="4.5" />
    <circle cx="199.5" cy="232.5" r="4.5" />
    <circle cx="319.5" cy="232.5" r="4.5" />
    <circle cx="274.5" cy="232.5" r="4.5" />
    <circle cx="394.5" cy="232.5" r="4.5" />
    <circle cx="49.5" cy="232.5" r="4.5" />
    <circle cx="169.5" cy="232.5" r="4.5" />
    <circle cx="244.5" cy="232.5" r="4.5" />
    <circle cx="364.5" cy="232.5" r="4.5" />
    <circle cx="109.5" cy="232.5" r="4.5" />
    <circle cx="229.5" cy="232.5" r="4.5" />
    <circle cx="349.5" cy="232.5" r="4.5" />
    <circle cx="304.5" cy="232.5" r="4.5" />
    <circle cx="424.5" cy="232.5" r="4.5" />
    <circle opacity="0.8" cx="4.5" cy="142.5" r="4.5" />
    <circle opacity="0.8" cx="124.5" cy="142.5" r="4.5" />
    <circle opacity="0.8" cx="64.5" cy="142.5" r="4.5" />
    <circle opacity="0.8" cx="184.5" cy="142.5" r="4.5" />
    <circle opacity="0.8" cx="259.5" cy="142.5" r="4.5" />
    <circle opacity="0.8" cx="379.5" cy="142.5" r="4.5" />
    <circle opacity="0.8" cx="34.5" cy="142.5" r="4.5" />
    <circle opacity="0.8" cx="154.5" cy="142.5" r="4.5" />
    <circle opacity="0.8" cx="94.5" cy="142.5" r="4.5" />
    <circle opacity="0.8" cx="214.5" cy="142.5" r="4.5" />
    <circle opacity="0.8" cx="334.5" cy="142.5" r="4.5" />
    <circle opacity="0.8" cx="289.5" cy="142.5" r="4.5" />
    <circle opacity="0.8" cx="409.5" cy="142.5" r="4.5" />
    <circle opacity="0.55" cx="4.5" cy="67.5" r="4.5" />
    <circle opacity="0.55" cx="124.5" cy="67.5" r="4.5" />
    <circle opacity="0.55" cx="64.5" cy="67.5" r="4.5" />
    <circle opacity="0.55" cx="184.5" cy="67.5" r="4.5" />
    <circle opacity="0.55" cx="259.5" cy="67.5" r="4.5" />
    <circle opacity="0.55" cx="379.5" cy="67.5" r="4.5" />
    <circle opacity="0.55" cx="34.5" cy="67.5" r="4.5" />
    <circle opacity="0.55" cx="154.5" cy="67.5" r="4.5" />
    <circle opacity="0.55" cx="94.5" cy="67.5" r="4.5" />
    <circle opacity="0.55" cx="214.5" cy="67.5" r="4.5" />
    <circle opacity="0.55" cx="334.5" cy="67.5" r="4.5" />
    <circle opacity="0.55" cx="289.5" cy="67.5" r="4.5" />
    <circle opacity="0.55" cx="409.5" cy="67.5" r="4.5" />
    <circle opacity="0.35" cx="4.5" cy="11.5" r="2.5" />
    <circle opacity="0.35" cx="124.5" cy="11.5" r="2.5" />
    <circle opacity="0.35" cx="64.5" cy="11.5" r="2.5" />
    <circle opacity="0.35" cx="184.5" cy="11.5" r="2.5" />
    <circle opacity="0.35" cx="259.5" cy="11.5" r="2.5" />
    <circle opacity="0.35" cx="379.5" cy="11.5" r="2.5" />
    <circle opacity="0.35" cx="34.5" cy="11.5" r="2.5" />
    <circle opacity="0.35" cx="154.5" cy="11.5" r="2.5" />
    <circle opacity="0.35" cx="94.5" cy="11.5" r="2.5" />
    <circle opacity="0.35" cx="214.5" cy="11.5" r="2.5" />
    <circle opacity="0.35" cx="334.5" cy="11.5" r="2.5" />
    <circle opacity="0.35" cx="289.5" cy="11.5" r="2.5" />
    <circle opacity="0.35" cx="409.5" cy="11.5" r="2.5" />
    <circle opacity="0.35" cx="19.5" cy="11.5" r="2.5" />
    <circle opacity="0.35" cx="139.5" cy="11.5" r="2.5" />
    <circle opacity="0.35" cx="79.5" cy="11.5" r="2.5" />
    <circle opacity="0.35" cx="199.5" cy="11.5" r="2.5" />
    <circle opacity="0.35" cx="319.5" cy="11.5" r="2.5" />
    <circle opacity="0.35" cx="274.5" cy="11.5" r="2.5" />
    <circle opacity="0.35" cx="394.5" cy="11.5" r="2.5" />
    <circle opacity="0.35" cx="49.5" cy="11.5" r="2.5" />
    <circle opacity="0.35" cx="169.5" cy="11.5" r="2.5" />
    <circle opacity="0.35" cx="244.5" cy="11.5" r="2.5" />
    <circle opacity="0.35" cx="364.5" cy="11.5" r="2.5" />
    <circle opacity="0.35" cx="109.5" cy="11.5" r="2.5" />
    <circle opacity="0.35" cx="229.5" cy="11.5" r="2.5" />
    <circle opacity="0.35" cx="349.5" cy="11.5" r="2.5" />
    <circle opacity="0.35" cx="304.5" cy="11.5" r="2.5" />
    <circle opacity="0.35" cx="424.5" cy="11.5" r="2.5" />
    <circle opacity="0.85" cx="4.5" cy="157.5" r="4.5" />
    <circle opacity="0.85" cx="124.5" cy="157.5" r="4.5" />
    <circle opacity="0.85" cx="64.5" cy="157.5" r="4.5" />
    <circle opacity="0.85" cx="184.5" cy="157.5" r="4.5" />
    <circle opacity="0.85" cx="259.5" cy="157.5" r="4.5" />
    <circle opacity="0.85" cx="379.5" cy="157.5" r="4.5" />
    <circle opacity="0.85" cx="34.5" cy="157.5" r="4.5" />
    <circle opacity="0.85" cx="154.5" cy="157.5" r="4.5" />
    <circle opacity="0.85" cx="94.5" cy="157.5" r="4.5" />
    <circle opacity="0.85" cx="214.5" cy="157.5" r="4.5" />
    <circle opacity="0.85" cx="334.5" cy="157.5" r="4.5" />
    <circle opacity="0.85" cx="289.5" cy="157.5" r="4.5" />
    <circle opacity="0.85" cx="409.5" cy="157.5" r="4.5" />
    <circle opacity="0.6" cx="4.5" cy="82.5" r="4.5" />
    <circle opacity="0.6" cx="124.5" cy="82.5" r="4.5" />
    <circle opacity="0.6" cx="64.5" cy="82.5" r="4.5" />
    <circle opacity="0.6" cx="184.5" cy="82.5" r="4.5" />
    <circle opacity="0.6" cx="259.5" cy="82.5" r="4.5" />
    <circle opacity="0.6" cx="379.5" cy="82.5" r="4.5" />
    <circle opacity="0.6" cx="34.5" cy="82.5" r="4.5" />
    <circle opacity="0.6" cx="154.5" cy="82.5" r="4.5" />
    <circle opacity="0.6" cx="94.5" cy="82.5" r="4.5" />
    <circle opacity="0.6" cx="214.5" cy="82.5" r="4.5" />
    <circle opacity="0.6" cx="334.5" cy="82.5" r="4.5" />
    <circle opacity="0.6" cx="289.5" cy="82.5" r="4.5" />
    <circle opacity="0.6" cx="409.5" cy="82.5" r="4.5" />
    <circle opacity="0.4" cx="4.5" cy="23.5" r="3.5" />
    <circle opacity="0.4" cx="124.5" cy="23.5" r="3.5" />
    <circle opacity="0.4" cx="64.5" cy="23.5" r="3.5" />
    <circle opacity="0.4" cx="184.5" cy="23.5" r="3.5" />
    <circle opacity="0.4" cx="259.5" cy="23.5" r="3.5" />
    <circle opacity="0.4" cx="379.5" cy="23.5" r="3.5" />
    <circle opacity="0.4" cx="34.5" cy="23.5" r="3.5" />
    <circle opacity="0.4" cx="154.5" cy="23.5" r="3.5" />
    <circle opacity="0.4" cx="94.5" cy="23.5" r="3.5" />
    <circle opacity="0.4" cx="214.5" cy="23.5" r="3.5" />
    <circle opacity="0.4" cx="334.5" cy="23.5" r="3.5" />
    <circle opacity="0.4" cx="289.5" cy="23.5" r="3.5" />
    <circle opacity="0.4" cx="409.5" cy="23.5" r="3.5" />
    <circle opacity="0.4" cx="19.5" cy="23.5" r="3.5" />
    <circle opacity="0.4" cx="139.5" cy="23.5" r="3.5" />
    <circle opacity="0.4" cx="79.5" cy="23.5" r="3.5" />
    <circle opacity="0.4" cx="199.5" cy="23.5" r="3.5" />
    <circle opacity="0.4" cx="319.5" cy="23.5" r="3.5" />
    <circle opacity="0.4" cx="274.5" cy="23.5" r="3.5" />
    <circle opacity="0.4" cx="394.5" cy="23.5" r="3.5" />
    <circle opacity="0.4" cx="49.5" cy="23.5" r="3.5" />
    <circle opacity="0.4" cx="169.5" cy="23.5" r="3.5" />
    <circle opacity="0.4" cx="244.5" cy="23.5" r="3.5" />
    <circle opacity="0.4" cx="364.5" cy="23.5" r="3.5" />
    <circle opacity="0.4" cx="109.5" cy="23.5" r="3.5" />
    <circle opacity="0.4" cx="229.5" cy="23.5" r="3.5" />
    <circle opacity="0.4" cx="349.5" cy="23.5" r="3.5" />
    <circle opacity="0.4" cx="304.5" cy="23.5" r="3.5" />
    <circle opacity="0.4" cx="424.5" cy="23.5" r="3.5" />
    <circle opacity="0.95" cx="4.5" cy="187.5" r="4.5" />
    <circle opacity="0.95" cx="124.5" cy="187.5" r="4.5" />
    <circle opacity="0.95" cx="64.5" cy="187.5" r="4.5" />
    <circle opacity="0.95" cx="184.5" cy="187.5" r="4.5" />
    <circle opacity="0.95" cx="259.5" cy="187.5" r="4.5" />
    <circle opacity="0.95" cx="379.5" cy="187.5" r="4.5" />
    <circle opacity="0.95" cx="34.5" cy="187.5" r="4.5" />
    <circle opacity="0.95" cx="154.5" cy="187.5" r="4.5" />
    <circle opacity="0.95" cx="94.5" cy="187.5" r="4.5" />
    <circle opacity="0.95" cx="214.5" cy="187.5" r="4.5" />
    <circle opacity="0.95" cx="334.5" cy="187.5" r="4.5" />
    <circle opacity="0.95" cx="289.5" cy="187.5" r="4.5" />
    <circle opacity="0.95" cx="409.5" cy="187.5" r="4.5" />
    <circle opacity="0.95" cx="4.5" cy="217.5" r="4.5" />
    <circle opacity="0.95" cx="124.5" cy="217.5" r="4.5" />
    <circle opacity="0.95" cx="64.5" cy="217.5" r="4.5" />
    <circle opacity="0.95" cx="184.5" cy="217.5" r="4.5" />
    <circle opacity="0.95" cx="259.5" cy="217.5" r="4.5" />
    <circle opacity="0.95" cx="379.5" cy="217.5" r="4.5" />
    <circle opacity="0.95" cx="34.5" cy="217.5" r="4.5" />
    <circle opacity="0.95" cx="154.5" cy="217.5" r="4.5" />
    <circle opacity="0.95" cx="94.5" cy="217.5" r="4.5" />
    <circle opacity="0.95" cx="214.5" cy="217.5" r="4.5" />
    <circle opacity="0.95" cx="334.5" cy="217.5" r="4.5" />
    <circle opacity="0.95" cx="289.5" cy="217.5" r="4.5" />
    <circle opacity="0.95" cx="409.5" cy="217.5" r="4.5" />
    <circle opacity="0.7" cx="4.5" cy="112.5" r="4.5" />
    <circle opacity="0.7" cx="124.5" cy="112.5" r="4.5" />
    <circle opacity="0.7" cx="64.5" cy="112.5" r="4.5" />
    <circle opacity="0.7" cx="184.5" cy="112.5" r="4.5" />
    <circle opacity="0.7" cx="259.5" cy="112.5" r="4.5" />
    <circle opacity="0.7" cx="379.5" cy="112.5" r="4.5" />
    <circle opacity="0.7" cx="34.5" cy="112.5" r="4.5" />
    <circle opacity="0.7" cx="154.5" cy="112.5" r="4.5" />
    <circle opacity="0.7" cx="94.5" cy="112.5" r="4.5" />
    <circle opacity="0.7" cx="214.5" cy="112.5" r="4.5" />
    <circle opacity="0.7" cx="334.5" cy="112.5" r="4.5" />
    <circle opacity="0.7" cx="289.5" cy="112.5" r="4.5" />
    <circle opacity="0.7" cx="409.5" cy="112.5" r="4.5" />
    <circle opacity="0.9" cx="4.5" cy="172.5" r="4.5" />
    <circle opacity="0.9" cx="124.5" cy="172.5" r="4.5" />
    <circle opacity="0.9" cx="64.5" cy="172.5" r="4.5" />
    <circle opacity="0.9" cx="184.5" cy="172.5" r="4.5" />
    <circle opacity="0.9" cx="259.5" cy="172.5" r="4.5" />
    <circle opacity="0.9" cx="379.5" cy="172.5" r="4.5" />
    <circle opacity="0.9" cx="34.5" cy="172.5" r="4.5" />
    <circle opacity="0.9" cx="154.5" cy="172.5" r="4.5" />
    <circle opacity="0.9" cx="94.5" cy="172.5" r="4.5" />
    <circle opacity="0.9" cx="214.5" cy="172.5" r="4.5" />
    <circle opacity="0.9" cx="334.5" cy="172.5" r="4.5" />
    <circle opacity="0.9" cx="289.5" cy="172.5" r="4.5" />
    <circle opacity="0.9" cx="409.5" cy="172.5" r="4.5" />
    <circle opacity="0.65" cx="4.5" cy="97.5" r="4.5" />
    <circle opacity="0.65" cx="124.5" cy="97.5" r="4.5" />
    <circle opacity="0.65" cx="64.5" cy="97.5" r="4.5" />
    <circle opacity="0.65" cx="184.5" cy="97.5" r="4.5" />
    <circle opacity="0.65" cx="259.5" cy="97.5" r="4.5" />
    <circle opacity="0.65" cx="379.5" cy="97.5" r="4.5" />
    <circle opacity="0.65" cx="34.5" cy="97.5" r="4.5" />
    <circle opacity="0.65" cx="154.5" cy="97.5" r="4.5" />
    <circle opacity="0.65" cx="94.5" cy="97.5" r="4.5" />
    <circle opacity="0.65" cx="214.5" cy="97.5" r="4.5" />
    <circle opacity="0.65" cx="334.5" cy="97.5" r="4.5" />
    <circle opacity="0.65" cx="289.5" cy="97.5" r="4.5" />
    <circle opacity="0.65" cx="409.5" cy="97.5" r="4.5" />
    <circle opacity="0.45" cx="4.5" cy="37.5" r="4.5" />
    <circle opacity="0.45" cx="124.5" cy="37.5" r="4.5" />
    <circle opacity="0.45" cx="64.5" cy="37.5" r="4.5" />
    <circle opacity="0.45" cx="184.5" cy="37.5" r="4.5" />
    <circle opacity="0.45" cx="259.5" cy="37.5" r="4.5" />
    <circle opacity="0.45" cx="379.5" cy="37.5" r="4.5" />
    <circle opacity="0.45" cx="34.5" cy="37.5" r="4.5" />
    <circle opacity="0.45" cx="154.5" cy="37.5" r="4.5" />
    <circle opacity="0.45" cx="94.5" cy="37.5" r="4.5" />
    <circle opacity="0.45" cx="214.5" cy="37.5" r="4.5" />
    <circle opacity="0.45" cx="334.5" cy="37.5" r="4.5" />
    <circle opacity="0.45" cx="289.5" cy="37.5" r="4.5" />
    <circle opacity="0.45" cx="409.5" cy="37.5" r="4.5" />
    <circle opacity="0.45" cx="19.5" cy="37.5" r="4.5" />
    <circle opacity="0.45" cx="139.5" cy="37.5" r="4.5" />
    <circle opacity="0.45" cx="79.5" cy="37.5" r="4.5" />
    <circle opacity="0.45" cx="199.5" cy="37.5" r="4.5" />
    <circle opacity="0.45" cx="319.5" cy="37.5" r="4.5" />
    <circle opacity="0.45" cx="274.5" cy="37.5" r="4.5" />
    <circle opacity="0.45" cx="394.5" cy="37.5" r="4.5" />
    <circle opacity="0.45" cx="49.5" cy="37.5" r="4.5" />
    <circle opacity="0.45" cx="169.5" cy="37.5" r="4.5" />
    <circle opacity="0.45" cx="244.5" cy="37.5" r="4.5" />
    <circle opacity="0.45" cx="364.5" cy="37.5" r="4.5" />
    <circle opacity="0.45" cx="109.5" cy="37.5" r="4.5" />
    <circle opacity="0.45" cx="229.5" cy="37.5" r="4.5" />
    <circle opacity="0.45" cx="349.5" cy="37.5" r="4.5" />
    <circle opacity="0.45" cx="304.5" cy="37.5" r="4.5" />
    <circle opacity="0.45" cx="424.5" cy="37.5" r="4.5" />
    <circle cx="4.5" cy="202.5" r="4.5" />
    <circle cx="124.5" cy="202.5" r="4.5" />
    <circle cx="64.5" cy="202.5" r="4.5" />
    <circle cx="184.5" cy="202.5" r="4.5" />
    <circle cx="259.5" cy="202.5" r="4.5" />
    <circle cx="379.5" cy="202.5" r="4.5" />
    <circle cx="34.5" cy="202.5" r="4.5" />
    <circle cx="154.5" cy="202.5" r="4.5" />
    <circle cx="94.5" cy="202.5" r="4.5" />
    <circle cx="214.5" cy="202.5" r="4.5" />
    <circle cx="334.5" cy="202.5" r="4.5" />
    <circle cx="289.5" cy="202.5" r="4.5" />
    <circle cx="409.5" cy="202.5" r="4.5" />
    <circle cx="4.5" cy="232.5" r="4.5" />
    <circle cx="124.5" cy="232.5" r="4.5" />
    <circle cx="64.5" cy="232.5" r="4.5" />
    <circle cx="184.5" cy="232.5" r="4.5" />
    <circle cx="259.5" cy="232.5" r="4.5" />
    <circle cx="379.5" cy="232.5" r="4.5" />
    <circle cx="34.5" cy="232.5" r="4.5" />
    <circle cx="154.5" cy="232.5" r="4.5" />
    <circle cx="94.5" cy="232.5" r="4.5" />
    <circle cx="214.5" cy="232.5" r="4.5" />
    <circle cx="334.5" cy="232.5" r="4.5" />
    <circle cx="289.5" cy="232.5" r="4.5" />
    <circle cx="409.5" cy="232.5" r="4.5" />
  </g>
</svg>
