<svg width="829" height="829" viewBox="0 0 829 829" fill="none" xmlns="http://www.w3.org/2000/svg">
<path d="M448.91 807.521L449.771 817.483L450.632 827.446C438.72 828.476 426.669 829 414.5 829C402.331 829 390.28 828.476 378.368 827.446L380.09 807.521V807.518C391.43 808.497 402.906 809 414.5 809C426.093 809 437.57 808.497 448.909 807.518L448.91 807.521ZM188.208 737.685C206.923 750.813 226.83 762.358 247.735 772.123L239.271 790.244C217.301 779.982 196.384 767.851 176.723 754.059L188.208 737.685ZM640.792 737.686L652.277 754.059C632.616 767.851 611.699 779.982 589.729 790.244L581.264 772.123C602.169 762.358 622.076 750.813 640.791 737.685L640.792 737.686ZM56.876 581.264C66.641 602.169 78.1861 622.076 91.3145 640.791L83.1279 646.535L83.127 646.534L74.9414 652.277C61.1493 632.616 49.0184 611.699 38.7559 589.729L56.876 581.264ZM772.123 581.264L790.244 589.729C779.982 611.699 767.851 632.616 754.059 652.277L745.872 646.534L737.686 640.792L737.685 640.791C750.813 622.076 762.358 602.169 772.123 581.264ZM20 414.5C20 426.093 20.5017 437.57 21.4814 448.909L21.4795 448.91L11.5166 449.771L1.55371 450.632C0.524471 438.72 0 426.669 0 414.5C0 402.331 0.524471 390.28 1.55371 378.368L21.4795 380.09H21.4814C20.5016 391.43 20 402.906 20 414.5ZM809 414.5C809 402.906 808.497 391.43 807.518 380.09H807.521L827.446 378.368C828.476 390.28 829 402.331 829 414.5C829 426.669 828.476 438.72 827.446 450.632L817.483 449.771L807.521 448.91L807.518 448.909C808.497 437.57 809 426.093 809 414.5ZM83.127 182.465L91.3145 188.208C78.186 206.923 66.641 226.83 56.876 247.735L38.7559 239.271C49.0184 217.301 61.1493 196.384 74.9414 176.723L83.127 182.465ZM754.059 176.723C767.851 196.384 779.982 217.301 790.244 239.271L772.123 247.735C762.358 226.83 750.813 206.923 737.685 188.208L754.059 176.723ZM247.735 56.876C226.83 66.641 206.923 78.186 188.208 91.3145L182.465 83.1279L176.723 74.9414C196.384 61.1493 217.301 49.0184 239.271 38.7559L247.735 56.876ZM589.729 38.7559C611.699 49.0184 632.616 61.1493 652.277 74.9414L646.534 83.127L646.535 83.1279L640.792 91.3145C622.077 78.1861 602.169 66.641 581.264 56.876L589.729 38.7559ZM414.5 0C426.669 0 438.72 0.524471 450.632 1.55371L449.771 11.5166L448.91 21.4795L448.909 21.4814C437.57 20.5017 426.093 20 414.5 20C402.906 20 391.43 20.5016 380.09 21.4814V21.4795L378.368 1.55371C390.28 0.524471 402.331 0 414.5 0Z" fill="#FFB3ED" fill-opacity="0.2"/>
</svg>
