<svg width="1280" height="674" viewBox="0 0 1280 674" fill="none" xmlns="http://www.w3.org/2000/svg">
<g clip-path="url(#clip0_228_476484)">
<rect x="1106.05" y="41.4812" width="439.583" height="485.211" transform="rotate(42.9488 1106.05 41.4812)" fill="#FFB3ED"/>
<g clip-path="url(#clip1_228_476484)">
<rect width="625" height="720" transform="translate(962.167 34.7236) rotate(28)" fill="url(#paint0_linear_228_476484)"/>
<g opacity="0.3">
<circle opacity="0.5" cx="980.908" cy="677.674" r="6" transform="rotate(-62.0243 980.908 677.674)" fill="#FF9ADC"/>
<circle opacity="0.3" cx="920.853" cy="645.775" r="2" transform="rotate(-62.0243 920.853 645.775)" fill="#FF9ADC"/>
<circle opacity="0.75" cx="1125.51" cy="618.606" r="6" transform="rotate(-62.0243 1125.51 618.606)" fill="#FF9ADC"/>
<circle opacity="0.5" cx="1037.2" cy="571.696" r="6" transform="rotate(-62.0243 1037.2 571.696)" fill="#FF9ADC"/>
<circle opacity="0.3" cx="977.144" cy="539.797" r="2" transform="rotate(-62.0243 977.144 539.797)" fill="#FF9ADC"/>
<circle opacity="0.75" cx="1097.37" cy="671.595" r="6" transform="rotate(-62.0243 1097.37 671.595)" fill="#FF9ADC"/>
<circle opacity="0.5" cx="1009.05" cy="624.685" r="6" transform="rotate(-62.0243 1009.05 624.685)" fill="#FF9ADC"/>
<circle opacity="0.3" cx="948.998" cy="592.786" r="2" transform="rotate(-62.0243 948.998 592.786)" fill="#FF9ADC"/>
<circle opacity="0.75" cx="1153.66" cy="565.617" r="6" transform="rotate(-62.0243 1153.66 565.617)" fill="#FF9ADC"/>
<circle opacity="0.5" cx="1065.35" cy="518.707" r="6" transform="rotate(-62.0243 1065.35 518.707)" fill="#FF9ADC"/>
<circle opacity="0.3" cx="1005.29" cy="486.808" r="2" transform="rotate(-62.0243 1005.29 486.808)" fill="#FF9ADC"/>
<circle opacity="0.5" cx="990.29" cy="660.011" r="6" transform="rotate(-62.0243 990.29 660.011)" fill="#FF9ADC"/>
<circle opacity="0.3" cx="930.235" cy="628.112" r="2" transform="rotate(-62.0243 930.235 628.112)" fill="#FF9ADC"/>
<circle opacity="0.75" cx="1134.9" cy="600.943" r="6" transform="rotate(-62.0243 1134.9 600.943)" fill="#FF9ADC"/>
<circle opacity="0.5" cx="1046.58" cy="554.033" r="6" transform="rotate(-62.0243 1046.58 554.033)" fill="#FF9ADC"/>
<circle opacity="0.3" cx="986.526" cy="522.134" r="2" transform="rotate(-62.0243 986.526 522.134)" fill="#FF9ADC"/>
<circle opacity="0.75" cx="1106.75" cy="653.932" r="6" transform="rotate(-62.0243 1106.75 653.932)" fill="#FF9ADC"/>
<circle opacity="0.5" cx="1018.44" cy="607.022" r="6" transform="rotate(-62.0243 1018.44 607.022)" fill="#FF9ADC"/>
<circle opacity="0.3" cx="958.381" cy="575.123" r="2" transform="rotate(-62.0243 958.381 575.123)" fill="#FF9ADC"/>
<circle opacity="0.75" cx="1163.04" cy="547.954" r="6" transform="rotate(-62.0243 1163.04 547.954)" fill="#FF9ADC"/>
<circle opacity="0.5" cx="1074.73" cy="501.044" r="6" transform="rotate(-62.0243 1074.73 501.044)" fill="#FF9ADC"/>
<circle opacity="0.3" cx="1014.67" cy="469.146" r="2" transform="rotate(-62.0243 1014.67 469.146)" fill="#FF9ADC"/>
<circle opacity="0.5" cx="999.672" cy="642.348" r="6" transform="rotate(-62.0243 999.672 642.348)" fill="#FF9ADC"/>
<circle opacity="0.3" cx="939.617" cy="610.449" r="2" transform="rotate(-62.0243 939.617 610.449)" fill="#FF9ADC"/>
<circle opacity="0.75" cx="1144.28" cy="583.28" r="6" transform="rotate(-62.0243 1144.28 583.28)" fill="#FF9ADC"/>
<circle opacity="0.5" cx="1055.96" cy="536.37" r="6" transform="rotate(-62.0243 1055.96 536.37)" fill="#FF9ADC"/>
<circle opacity="0.3" cx="995.908" cy="504.471" r="2" transform="rotate(-62.0243 995.908 504.471)" fill="#FF9ADC"/>
<circle opacity="0.75" cx="1116.13" cy="636.269" r="6" transform="rotate(-62.0243 1116.13 636.269)" fill="#FF9ADC"/>
<circle opacity="0.5" cx="1027.82" cy="589.359" r="6" transform="rotate(-62.0243 1027.82 589.359)" fill="#FF9ADC"/>
<circle opacity="0.3" cx="967.763" cy="557.46" r="2" transform="rotate(-62.0243 967.763 557.46)" fill="#FF9ADC"/>
<circle opacity="0.75" cx="1172.42" cy="530.291" r="6" transform="rotate(-62.0243 1172.42 530.291)" fill="#FF9ADC"/>
<circle opacity="0.5" cx="1084.11" cy="483.381" r="6" transform="rotate(-62.0243 1084.11 483.381)" fill="#FF9ADC"/>
<circle opacity="0.3" cx="1024.05" cy="451.482" r="2" transform="rotate(-62.0243 1024.05 451.482)" fill="#FF9ADC"/>
<circle opacity="0.55" cx="1007.95" cy="669.393" r="6" transform="rotate(-62.0243 1007.95 669.393)" fill="#FF9ADC"/>
<circle opacity="0.35" cx="941.716" cy="634.21" r="3" transform="rotate(-62.0243 941.716 634.21)" fill="#FF9ADC"/>
<circle opacity="0.8" cx="1152.56" cy="610.325" r="6" transform="rotate(-62.0243 1152.56 610.325)" fill="#FF9ADC"/>
<circle opacity="0.55" cx="1064.24" cy="563.415" r="6" transform="rotate(-62.0243 1064.24 563.415)" fill="#FF9ADC"/>
<circle opacity="0.35" cx="998.007" cy="528.232" r="3" transform="rotate(-62.0243 998.007 528.232)" fill="#FF9ADC"/>
<circle opacity="0.8" cx="1124.41" cy="663.314" r="6" transform="rotate(-62.0243 1124.41 663.314)" fill="#FF9ADC"/>
<circle opacity="0.55" cx="1036.1" cy="616.404" r="6" transform="rotate(-62.0243 1036.1 616.404)" fill="#FF9ADC"/>
<circle opacity="0.35" cx="969.861" cy="581.221" r="3" transform="rotate(-62.0243 969.861 581.221)" fill="#FF9ADC"/>
<circle opacity="0.8" cx="1180.7" cy="557.336" r="6" transform="rotate(-62.0243 1180.7 557.336)" fill="#FF9ADC"/>
<circle opacity="0.55" cx="1092.39" cy="510.426" r="6" transform="rotate(-62.0243 1092.39 510.426)" fill="#FF9ADC"/>
<circle opacity="0.35" cx="1026.15" cy="475.244" r="3" transform="rotate(-62.0243 1026.15 475.244)" fill="#FF9ADC"/>
<circle opacity="0.55" cx="1017.33" cy="651.73" r="6" transform="rotate(-62.0243 1017.33 651.73)" fill="#FF9ADC"/>
<circle opacity="0.35" cx="951.098" cy="616.547" r="3" transform="rotate(-62.0243 951.098 616.547)" fill="#FF9ADC"/>
<circle opacity="0.8" cx="1161.94" cy="592.662" r="6" transform="rotate(-62.0243 1161.94 592.662)" fill="#FF9ADC"/>
<circle opacity="0.55" cx="1073.63" cy="545.752" r="6" transform="rotate(-62.0243 1073.63 545.752)" fill="#FF9ADC"/>
<circle opacity="0.35" cx="1007.39" cy="510.57" r="3" transform="rotate(-62.0243 1007.39 510.57)" fill="#FF9ADC"/>
<circle opacity="0.8" cx="1133.8" cy="645.651" r="6" transform="rotate(-62.0243 1133.8 645.651)" fill="#FF9ADC"/>
<circle opacity="0.55" cx="1045.48" cy="598.741" r="6" transform="rotate(-62.0243 1045.48 598.741)" fill="#FF9ADC"/>
<circle opacity="0.35" cx="979.243" cy="563.558" r="3" transform="rotate(-62.0243 979.243 563.558)" fill="#FF9ADC"/>
<circle opacity="0.8" cx="1190.09" cy="539.673" r="6" transform="rotate(-62.0243 1190.09 539.673)" fill="#FF9ADC"/>
<circle opacity="0.55" cx="1101.77" cy="492.763" r="6" transform="rotate(-62.0243 1101.77 492.763)" fill="#FF9ADC"/>
<circle opacity="0.35" cx="1035.54" cy="457.581" r="3" transform="rotate(-62.0243 1035.54 457.581)" fill="#FF9ADC"/>
<circle opacity="0.6" cx="1025.62" cy="678.775" r="6" transform="rotate(-62.0243 1025.62 678.775)" fill="#FF9ADC"/>
<circle opacity="0.4" cx="955.847" cy="641.716" r="5" transform="rotate(-62.0243 955.847 641.716)" fill="#FF9ADC"/>
<circle opacity="0.85" cx="1170.22" cy="619.707" r="6" transform="rotate(-62.0243 1170.22 619.707)" fill="#FF9ADC"/>
<circle opacity="0.6" cx="1081.91" cy="572.797" r="6" transform="rotate(-62.0243 1081.91 572.797)" fill="#FF9ADC"/>
<circle opacity="0.4" cx="1012.14" cy="535.738" r="5" transform="rotate(-62.0243 1012.14 535.738)" fill="#FF9ADC"/>
<circle opacity="0.85" cx="1142.08" cy="672.696" r="6" transform="rotate(-62.0243 1142.08 672.696)" fill="#FF9ADC"/>
<circle opacity="0.6" cx="1053.76" cy="625.786" r="6" transform="rotate(-62.0243 1053.76 625.786)" fill="#FF9ADC"/>
<circle opacity="0.4" cx="983.993" cy="588.727" r="5" transform="rotate(-62.0243 983.993 588.727)" fill="#FF9ADC"/>
<circle opacity="0.85" cx="1198.37" cy="566.718" r="6" transform="rotate(-62.0243 1198.37 566.718)" fill="#FF9ADC"/>
<circle opacity="0.6" cx="1110.05" cy="519.808" r="6" transform="rotate(-62.0243 1110.05 519.808)" fill="#FF9ADC"/>
<circle opacity="0.4" cx="1040.28" cy="482.75" r="5" transform="rotate(-62.0243 1040.28 482.75)" fill="#FF9ADC"/>
<circle opacity="0.95" cx="1205.55" cy="638.471" r="6" transform="rotate(-62.0243 1205.55 638.471)" fill="#FF9ADC"/>
<circle opacity="0.7" cx="1117.23" cy="591.561" r="6" transform="rotate(-62.0243 1117.23 591.561)" fill="#FF9ADC"/>
<circle opacity="0.7" cx="1089.09" cy="644.55" r="6" transform="rotate(-62.0243 1089.09 644.55)" fill="#FF9ADC"/>
<circle opacity="0.95" cx="1233.69" cy="585.482" r="6" transform="rotate(-62.0243 1233.69 585.482)" fill="#FF9ADC"/>
<circle opacity="0.7" cx="1145.38" cy="538.572" r="6" transform="rotate(-62.0243 1145.38 538.572)" fill="#FF9ADC"/>
<circle cx="1240.87" cy="657.234" r="6" transform="rotate(-62.0243 1240.87 657.234)" fill="#FF9ADC"/>
<circle cx="1269.02" cy="604.246" r="6" transform="rotate(-62.0243 1269.02 604.246)" fill="#FF9ADC"/>
<circle cx="1276.2" cy="675.998" r="6" transform="rotate(-62.0243 1276.2 675.998)" fill="#FF9ADC"/>
<circle opacity="0.6" cx="1035" cy="661.112" r="6" transform="rotate(-62.0243 1035 661.112)" fill="#FF9ADC"/>
<circle opacity="0.4" cx="965.229" cy="624.053" r="5" transform="rotate(-62.0243 965.229 624.053)" fill="#FF9ADC"/>
<circle opacity="0.85" cx="1179.6" cy="602.044" r="6" transform="rotate(-62.0243 1179.6 602.044)" fill="#FF9ADC"/>
<circle opacity="0.6" cx="1091.29" cy="555.134" r="6" transform="rotate(-62.0243 1091.29 555.134)" fill="#FF9ADC"/>
<circle opacity="0.4" cx="1021.52" cy="518.076" r="5" transform="rotate(-62.0243 1021.52 518.076)" fill="#FF9ADC"/>
<circle opacity="0.85" cx="1151.46" cy="655.033" r="6" transform="rotate(-62.0243 1151.46 655.033)" fill="#FF9ADC"/>
<circle opacity="0.6" cx="1063.14" cy="608.123" r="6" transform="rotate(-62.0243 1063.14 608.123)" fill="#FF9ADC"/>
<circle opacity="0.4" cx="993.375" cy="571.064" r="5" transform="rotate(-62.0243 993.375 571.064)" fill="#FF9ADC"/>
<circle opacity="0.85" cx="1207.75" cy="549.055" r="6" transform="rotate(-62.0243 1207.75 549.055)" fill="#FF9ADC"/>
<circle opacity="0.6" cx="1119.43" cy="502.145" r="6" transform="rotate(-62.0243 1119.43 502.145)" fill="#FF9ADC"/>
<circle opacity="0.4" cx="1049.67" cy="465.087" r="5" transform="rotate(-62.0243 1049.67 465.087)" fill="#FF9ADC"/>
<circle opacity="0.7" cx="1070.32" cy="679.876" r="6" transform="rotate(-62.0243 1070.32 679.876)" fill="#FF9ADC"/>
<circle opacity="0.95" cx="1214.93" cy="620.808" r="6" transform="rotate(-62.0243 1214.93 620.808)" fill="#FF9ADC"/>
<circle opacity="0.7" cx="1126.61" cy="573.898" r="6" transform="rotate(-62.0243 1126.61 573.898)" fill="#FF9ADC"/>
<circle opacity="0.95" cx="1186.78" cy="673.796" r="6" transform="rotate(-62.0243 1186.78 673.796)" fill="#FF9ADC"/>
<circle opacity="0.7" cx="1098.47" cy="626.887" r="6" transform="rotate(-62.0243 1098.47 626.887)" fill="#FF9ADC"/>
<circle opacity="0.95" cx="1243.08" cy="567.819" r="6" transform="rotate(-62.0243 1243.08 567.819)" fill="#FF9ADC"/>
<circle opacity="0.7" cx="1154.76" cy="520.909" r="6" transform="rotate(-62.0243 1154.76 520.909)" fill="#FF9ADC"/>
<circle cx="1250.26" cy="639.572" r="6" transform="rotate(-62.0243 1250.26 639.572)" fill="#FF9ADC"/>
<circle cx="1278.4" cy="586.583" r="6" transform="rotate(-62.0243 1278.4 586.583)" fill="#FF9ADC"/>
<circle cx="1285.58" cy="658.335" r="6" transform="rotate(-62.0243 1285.58 658.335)" fill="#FF9ADC"/>
<circle opacity="0.45" cx="972.627" cy="650.629" r="6" transform="rotate(-62.0243 972.627 650.629)" fill="#FF9ADC"/>
<circle opacity="0.9" cx="1187.88" cy="629.089" r="6" transform="rotate(-62.0243 1187.88 629.089)" fill="#FF9ADC"/>
<circle opacity="0.65" cx="1099.57" cy="582.179" r="6" transform="rotate(-62.0243 1099.57 582.179)" fill="#FF9ADC"/>
<circle opacity="0.45" cx="1028.92" cy="544.651" r="6" transform="rotate(-62.0243 1028.92 544.651)" fill="#FF9ADC"/>
<circle opacity="0.9" cx="1159.74" cy="682.077" r="6" transform="rotate(-62.0243 1159.74 682.077)" fill="#FF9ADC"/>
<circle opacity="0.65" cx="1071.42" cy="635.168" r="6" transform="rotate(-62.0243 1071.42 635.168)" fill="#FF9ADC"/>
<circle opacity="0.45" cx="1000.77" cy="597.64" r="6" transform="rotate(-62.0243 1000.77 597.64)" fill="#FF9ADC"/>
<circle opacity="0.9" cx="1216.03" cy="576.1" r="6" transform="rotate(-62.0243 1216.03 576.1)" fill="#FF9ADC"/>
<circle opacity="0.65" cx="1127.72" cy="529.19" r="6" transform="rotate(-62.0243 1127.72 529.19)" fill="#FF9ADC"/>
<circle opacity="0.45" cx="1057.06" cy="491.662" r="6" transform="rotate(-62.0243 1057.06 491.662)" fill="#FF9ADC"/>
<circle cx="1223.21" cy="647.853" r="6" transform="rotate(-62.0243 1223.21 647.853)" fill="#FF9ADC"/>
<circle cx="1251.36" cy="594.864" r="6" transform="rotate(-62.0243 1251.36 594.864)" fill="#FF9ADC"/>
<circle cx="1258.54" cy="666.616" r="6" transform="rotate(-62.0243 1258.54 666.616)" fill="#FF9ADC"/>
<circle cx="1286.68" cy="613.628" r="6" transform="rotate(-62.0243 1286.68 613.628)" fill="#FF9ADC"/>
<circle opacity="0.65" cx="1052.66" cy="670.494" r="6" transform="rotate(-62.0243 1052.66 670.494)" fill="#FF9ADC"/>
<circle opacity="0.45" cx="982.008" cy="632.966" r="6" transform="rotate(-62.0243 982.008 632.966)" fill="#FF9ADC"/>
<circle opacity="0.9" cx="1197.27" cy="611.426" r="6" transform="rotate(-62.0243 1197.27 611.426)" fill="#FF9ADC"/>
<circle opacity="0.65" cx="1108.95" cy="564.516" r="6" transform="rotate(-62.0243 1108.95 564.516)" fill="#FF9ADC"/>
<circle opacity="0.45" cx="1038.3" cy="526.988" r="6" transform="rotate(-62.0243 1038.3 526.988)" fill="#FF9ADC"/>
<circle opacity="0.9" cx="1169.12" cy="664.415" r="6" transform="rotate(-62.0243 1169.12 664.415)" fill="#FF9ADC"/>
<circle opacity="0.65" cx="1080.81" cy="617.505" r="6" transform="rotate(-62.0243 1080.81 617.505)" fill="#FF9ADC"/>
<circle opacity="0.45" cx="1010.15" cy="579.977" r="6" transform="rotate(-62.0243 1010.15 579.977)" fill="#FF9ADC"/>
<circle opacity="0.9" cx="1225.41" cy="558.437" r="6" transform="rotate(-62.0243 1225.41 558.437)" fill="#FF9ADC"/>
<circle opacity="0.65" cx="1137.1" cy="511.527" r="6" transform="rotate(-62.0243 1137.1 511.527)" fill="#FF9ADC"/>
<circle opacity="0.45" cx="1066.45" cy="474" r="6" transform="rotate(-62.0243 1066.45 474)" fill="#FF9ADC"/>
<circle cx="1232.59" cy="630.19" r="6" transform="rotate(-62.0243 1232.59 630.19)" fill="#FF9ADC"/>
<circle cx="1260.74" cy="577.201" r="6" transform="rotate(-62.0243 1260.74 577.201)" fill="#FF9ADC"/>
<circle cx="1267.92" cy="648.953" r="6" transform="rotate(-62.0243 1267.92 648.953)" fill="#FF9ADC"/>
<circle opacity="0.35" cx="932.334" cy="651.873" r="3" transform="rotate(-62.0243 932.334 651.873)" fill="#FF9ADC"/>
<circle opacity="0.8" cx="1143.18" cy="627.988" r="6" transform="rotate(-62.0243 1143.18 627.988)" fill="#FF9ADC"/>
<circle opacity="0.55" cx="1054.86" cy="581.078" r="6" transform="rotate(-62.0243 1054.86 581.078)" fill="#FF9ADC"/>
<circle opacity="0.35" cx="988.626" cy="545.896" r="3" transform="rotate(-62.0243 988.626 545.896)" fill="#FF9ADC"/>
<circle opacity="0.8" cx="1115.03" cy="680.976" r="6" transform="rotate(-62.0243 1115.03 680.976)" fill="#FF9ADC"/>
<circle opacity="0.55" cx="1026.72" cy="634.067" r="6" transform="rotate(-62.0243 1026.72 634.067)" fill="#FF9ADC"/>
<circle opacity="0.35" cx="960.48" cy="598.884" r="3" transform="rotate(-62.0243 960.48 598.884)" fill="#FF9ADC"/>
<circle opacity="0.8" cx="1171.32" cy="574.999" r="6" transform="rotate(-62.0243 1171.32 574.999)" fill="#FF9ADC"/>
<circle opacity="0.55" cx="1083.01" cy="528.089" r="6" transform="rotate(-62.0243 1083.01 528.089)" fill="#FF9ADC"/>
<circle opacity="0.35" cx="1016.77" cy="492.907" r="3" transform="rotate(-62.0243 1016.77 492.907)" fill="#FF9ADC"/>
<circle opacity="0.4" cx="946.465" cy="659.379" r="5" transform="rotate(-62.0243 946.465 659.379)" fill="#FF9ADC"/>
<circle opacity="0.85" cx="1160.84" cy="637.37" r="6" transform="rotate(-62.0243 1160.84 637.37)" fill="#FF9ADC"/>
<circle opacity="0.6" cx="1072.53" cy="590.46" r="6" transform="rotate(-62.0243 1072.53 590.46)" fill="#FF9ADC"/>
<circle opacity="0.4" cx="1002.76" cy="553.401" r="5" transform="rotate(-62.0243 1002.76 553.401)" fill="#FF9ADC"/>
<circle opacity="0.6" cx="1044.38" cy="643.449" r="6" transform="rotate(-62.0243 1044.38 643.449)" fill="#FF9ADC"/>
<circle opacity="0.4" cx="974.611" cy="606.39" r="5" transform="rotate(-62.0243 974.611 606.39)" fill="#FF9ADC"/>
<circle opacity="0.85" cx="1188.99" cy="584.381" r="6" transform="rotate(-62.0243 1188.99 584.381)" fill="#FF9ADC"/>
<circle opacity="0.6" cx="1100.67" cy="537.471" r="6" transform="rotate(-62.0243 1100.67 537.471)" fill="#FF9ADC"/>
<circle opacity="0.4" cx="1030.9" cy="500.412" r="5" transform="rotate(-62.0243 1030.9 500.412)" fill="#FF9ADC"/>
<circle opacity="0.95" cx="1196.17" cy="656.134" r="6" transform="rotate(-62.0243 1196.17 656.134)" fill="#FF9ADC"/>
<circle opacity="0.7" cx="1107.85" cy="609.224" r="6" transform="rotate(-62.0243 1107.85 609.224)" fill="#FF9ADC"/>
<circle opacity="0.7" cx="1079.71" cy="662.213" r="6" transform="rotate(-62.0243 1079.71 662.213)" fill="#FF9ADC"/>
<circle opacity="0.95" cx="1224.31" cy="603.145" r="6" transform="rotate(-62.0243 1224.31 603.145)" fill="#FF9ADC"/>
<circle opacity="0.7" cx="1136" cy="556.235" r="6" transform="rotate(-62.0243 1136 556.235)" fill="#FF9ADC"/>
<circle cx="1231.49" cy="674.897" r="6" transform="rotate(-62.0243 1231.49 674.897)" fill="#FF9ADC"/>
<circle cx="1259.64" cy="621.909" r="6" transform="rotate(-62.0243 1259.64 621.909)" fill="#FF9ADC"/>
<circle opacity="0.45" cx="963.245" cy="668.292" r="6" transform="rotate(-62.0243 963.245 668.292)" fill="#FF9ADC"/>
<circle opacity="0.9" cx="1178.5" cy="646.752" r="6" transform="rotate(-62.0243 1178.5 646.752)" fill="#FF9ADC"/>
<circle opacity="0.65" cx="1090.19" cy="599.842" r="6" transform="rotate(-62.0243 1090.19 599.842)" fill="#FF9ADC"/>
<circle opacity="0.45" cx="1019.54" cy="562.314" r="6" transform="rotate(-62.0243 1019.54 562.314)" fill="#FF9ADC"/>
<circle opacity="0.65" cx="1062.04" cy="652.831" r="6" transform="rotate(-62.0243 1062.04 652.831)" fill="#FF9ADC"/>
<circle opacity="0.45" cx="991.391" cy="615.303" r="6" transform="rotate(-62.0243 991.391 615.303)" fill="#FF9ADC"/>
<circle opacity="0.9" cx="1206.65" cy="593.763" r="6" transform="rotate(-62.0243 1206.65 593.763)" fill="#FF9ADC"/>
<circle opacity="0.65" cx="1118.33" cy="546.853" r="6" transform="rotate(-62.0243 1118.33 546.853)" fill="#FF9ADC"/>
<circle opacity="0.45" cx="1047.68" cy="509.325" r="6" transform="rotate(-62.0243 1047.68 509.325)" fill="#FF9ADC"/>
<circle cx="1213.83" cy="665.515" r="6" transform="rotate(-62.0243 1213.83 665.515)" fill="#FF9ADC"/>
<circle cx="1241.97" cy="612.527" r="6" transform="rotate(-62.0243 1241.97 612.527)" fill="#FF9ADC"/>
<circle cx="1277.3" cy="631.291" r="6" transform="rotate(-62.0243 1277.3 631.291)" fill="#FF9ADC"/>
<circle opacity="0.75" cx="1181.99" cy="512.731" r="6" transform="rotate(-62.0243 1181.99 512.731)" fill="#FF9ADC"/>
<circle opacity="0.5" cx="1093.67" cy="465.822" r="6" transform="rotate(-62.0243 1093.67 465.822)" fill="#FF9ADC"/>
<circle opacity="0.3" cx="1033.62" cy="433.923" r="2" transform="rotate(-62.0243 1033.62 433.923)" fill="#FF9ADC"/>
<circle opacity="0.75" cx="1238.28" cy="406.754" r="6" transform="rotate(-62.0243 1238.28 406.754)" fill="#FF9ADC"/>
<circle opacity="0.5" cx="1149.97" cy="359.844" r="6" transform="rotate(-62.0243 1149.97 359.844)" fill="#FF9ADC"/>
<circle opacity="0.5" cx="1215.64" cy="236.199" r="6" transform="rotate(-62.0243 1215.64 236.199)" fill="#FF9ADC"/>
<circle opacity="0.3" cx="1089.91" cy="327.945" r="2" transform="rotate(-62.0243 1089.91 327.945)" fill="#FF9ADC"/>
<circle opacity="0.3" cx="1155.59" cy="204.3" r="2" transform="rotate(-62.0243 1155.59 204.3)" fill="#FF9ADC"/>
<circle opacity="0.75" cx="1210.14" cy="459.742" r="6" transform="rotate(-62.0243 1210.14 459.742)" fill="#FF9ADC"/>
<circle opacity="0.5" cx="1121.82" cy="412.833" r="6" transform="rotate(-62.0243 1121.82 412.833)" fill="#FF9ADC"/>
<circle opacity="0.3" cx="1061.77" cy="380.934" r="2" transform="rotate(-62.0243 1061.77 380.934)" fill="#FF9ADC"/>
<circle opacity="0.75" cx="1266.43" cy="353.765" r="6" transform="rotate(-62.0243 1266.43 353.765)" fill="#FF9ADC"/>
<circle opacity="0.5" cx="1178.11" cy="306.855" r="6" transform="rotate(-62.0243 1178.11 306.855)" fill="#FF9ADC"/>
<circle opacity="0.5" cx="1243.79" cy="183.21" r="6" transform="rotate(-62.0243 1243.79 183.21)" fill="#FF9ADC"/>
<circle opacity="0.3" cx="1118.06" cy="274.956" r="2" transform="rotate(-62.0243 1118.06 274.956)" fill="#FF9ADC"/>
<circle opacity="0.3" cx="1183.73" cy="151.312" r="2" transform="rotate(-62.0243 1183.73 151.312)" fill="#FF9ADC"/>
<circle opacity="0.75" cx="1191.37" cy="495.068" r="6" transform="rotate(-62.0243 1191.37 495.068)" fill="#FF9ADC"/>
<circle opacity="0.5" cx="1103.06" cy="448.159" r="6" transform="rotate(-62.0243 1103.06 448.159)" fill="#FF9ADC"/>
<circle opacity="0.3" cx="1043" cy="416.26" r="2" transform="rotate(-62.0243 1043 416.26)" fill="#FF9ADC"/>
<circle opacity="0.75" cx="1247.66" cy="389.091" r="6" transform="rotate(-62.0243 1247.66 389.091)" fill="#FF9ADC"/>
<circle opacity="0.5" cx="1159.35" cy="342.181" r="6" transform="rotate(-62.0243 1159.35 342.181)" fill="#FF9ADC"/>
<circle opacity="0.5" cx="1225.02" cy="218.536" r="6" transform="rotate(-62.0243 1225.02 218.536)" fill="#FF9ADC"/>
<circle opacity="0.3" cx="1099.29" cy="310.282" r="2" transform="rotate(-62.0243 1099.29 310.282)" fill="#FF9ADC"/>
<circle opacity="0.3" cx="1164.97" cy="186.637" r="2" transform="rotate(-62.0243 1164.97 186.637)" fill="#FF9ADC"/>
<circle opacity="0.75" cx="1219.52" cy="442.08" r="6" transform="rotate(-62.0243 1219.52 442.08)" fill="#FF9ADC"/>
<circle opacity="0.5" cx="1131.2" cy="395.17" r="6" transform="rotate(-62.0243 1131.2 395.17)" fill="#FF9ADC"/>
<circle opacity="0.3" cx="1071.15" cy="363.271" r="2" transform="rotate(-62.0243 1071.15 363.271)" fill="#FF9ADC"/>
<circle opacity="0.75" cx="1275.81" cy="336.102" r="6" transform="rotate(-62.0243 1275.81 336.102)" fill="#FF9ADC"/>
<circle opacity="0.5" cx="1187.49" cy="289.192" r="6" transform="rotate(-62.0243 1187.49 289.192)" fill="#FF9ADC"/>
<circle opacity="0.5" cx="1253.17" cy="165.547" r="6" transform="rotate(-62.0243 1253.17 165.547)" fill="#FF9ADC"/>
<circle opacity="0.3" cx="1127.44" cy="257.293" r="2" transform="rotate(-62.0243 1127.44 257.293)" fill="#FF9ADC"/>
<circle opacity="0.3" cx="1193.12" cy="133.648" r="2" transform="rotate(-62.0243 1193.12 133.648)" fill="#FF9ADC"/>
<circle opacity="0.75" cx="1200.75" cy="477.406" r="6" transform="rotate(-62.0243 1200.75 477.406)" fill="#FF9ADC"/>
<circle opacity="0.5" cx="1112.44" cy="430.496" r="6" transform="rotate(-62.0243 1112.44 430.496)" fill="#FF9ADC"/>
<circle opacity="0.3" cx="1052.38" cy="398.597" r="2" transform="rotate(-62.0243 1052.38 398.597)" fill="#FF9ADC"/>
<circle opacity="0.75" cx="1257.05" cy="371.428" r="6" transform="rotate(-62.0243 1257.05 371.428)" fill="#FF9ADC"/>
<circle opacity="0.5" cx="1168.73" cy="324.518" r="6" transform="rotate(-62.0243 1168.73 324.518)" fill="#FF9ADC"/>
<circle opacity="0.5" cx="1234.41" cy="200.873" r="6" transform="rotate(-62.0243 1234.41 200.873)" fill="#FF9ADC"/>
<circle opacity="0.3" cx="1108.68" cy="292.619" r="2" transform="rotate(-62.0243 1108.68 292.619)" fill="#FF9ADC"/>
<circle opacity="0.3" cx="1174.35" cy="168.974" r="2" transform="rotate(-62.0243 1174.35 168.974)" fill="#FF9ADC"/>
<circle opacity="0.75" cx="1228.9" cy="424.417" r="6" transform="rotate(-62.0243 1228.9 424.417)" fill="#FF9ADC"/>
<circle opacity="0.5" cx="1140.58" cy="377.507" r="6" transform="rotate(-62.0243 1140.58 377.507)" fill="#FF9ADC"/>
<circle opacity="0.5" cx="1206.26" cy="253.862" r="6" transform="rotate(-62.0243 1206.26 253.862)" fill="#FF9ADC"/>
<circle opacity="0.3" cx="1080.53" cy="345.608" r="2" transform="rotate(-62.0243 1080.53 345.608)" fill="#FF9ADC"/>
<circle opacity="0.3" cx="1146.21" cy="221.963" r="2" transform="rotate(-62.0243 1146.21 221.963)" fill="#FF9ADC"/>
<circle opacity="0.75" cx="1285.19" cy="318.439" r="6" transform="rotate(-62.0243 1285.19 318.439)" fill="#FF9ADC"/>
<circle opacity="0.5" cx="1196.88" cy="271.529" r="6" transform="rotate(-62.0243 1196.88 271.529)" fill="#FF9ADC"/>
<circle opacity="0.5" cx="1262.55" cy="147.885" r="6" transform="rotate(-62.0243 1262.55 147.885)" fill="#FF9ADC"/>
<circle opacity="0.3" cx="1136.82" cy="239.63" r="2" transform="rotate(-62.0243 1136.82 239.63)" fill="#FF9ADC"/>
<circle opacity="0.3" cx="1202.5" cy="115.986" r="2" transform="rotate(-62.0243 1202.5 115.986)" fill="#FF9ADC"/>
<circle opacity="0.8" cx="1209.03" cy="504.45" r="6" transform="rotate(-62.0243 1209.03 504.45)" fill="#FF9ADC"/>
<circle opacity="0.55" cx="1120.72" cy="457.541" r="6" transform="rotate(-62.0243 1120.72 457.541)" fill="#FF9ADC"/>
<circle opacity="0.35" cx="1054.48" cy="422.358" r="3" transform="rotate(-62.0243 1054.48 422.358)" fill="#FF9ADC"/>
<circle opacity="0.8" cx="1265.33" cy="398.473" r="6" transform="rotate(-62.0243 1265.33 398.473)" fill="#FF9ADC"/>
<circle opacity="0.55" cx="1177.01" cy="351.563" r="6" transform="rotate(-62.0243 1177.01 351.563)" fill="#FF9ADC"/>
<circle opacity="0.55" cx="1242.69" cy="227.918" r="6" transform="rotate(-62.0243 1242.69 227.918)" fill="#FF9ADC"/>
<circle opacity="0.35" cx="1110.77" cy="316.38" r="3" transform="rotate(-62.0243 1110.77 316.38)" fill="#FF9ADC"/>
<circle opacity="0.35" cx="1176.45" cy="192.736" r="3" transform="rotate(-62.0243 1176.45 192.736)" fill="#FF9ADC"/>
<circle opacity="0.8" cx="1237.18" cy="451.461" r="6" transform="rotate(-62.0243 1237.18 451.461)" fill="#FF9ADC"/>
<circle opacity="0.55" cx="1148.87" cy="404.552" r="6" transform="rotate(-62.0243 1148.87 404.552)" fill="#FF9ADC"/>
<circle opacity="0.35" cx="1082.63" cy="369.369" r="3" transform="rotate(-62.0243 1082.63 369.369)" fill="#FF9ADC"/>
<circle opacity="0.55" cx="1205.16" cy="298.574" r="6" transform="rotate(-62.0243 1205.16 298.574)" fill="#FF9ADC"/>
<circle opacity="0.55" cx="1270.83" cy="174.929" r="6" transform="rotate(-62.0243 1270.83 174.929)" fill="#FF9ADC"/>
<circle opacity="0.35" cx="1138.92" cy="263.392" r="3" transform="rotate(-62.0243 1138.92 263.392)" fill="#FF9ADC"/>
<circle opacity="0.35" cx="1204.6" cy="139.747" r="3" transform="rotate(-62.0243 1204.6 139.747)" fill="#FF9ADC"/>
<circle opacity="0.8" cx="1218.42" cy="486.787" r="6" transform="rotate(-62.0243 1218.42 486.787)" fill="#FF9ADC"/>
<circle opacity="0.55" cx="1130.1" cy="439.878" r="6" transform="rotate(-62.0243 1130.1 439.878)" fill="#FF9ADC"/>
<circle opacity="0.35" cx="1063.86" cy="404.695" r="3" transform="rotate(-62.0243 1063.86 404.695)" fill="#FF9ADC"/>
<circle opacity="0.8" cx="1274.71" cy="380.81" r="6" transform="rotate(-62.0243 1274.71 380.81)" fill="#FF9ADC"/>
<circle opacity="0.55" cx="1186.39" cy="333.9" r="6" transform="rotate(-62.0243 1186.39 333.9)" fill="#FF9ADC"/>
<circle opacity="0.55" cx="1252.07" cy="210.255" r="6" transform="rotate(-62.0243 1252.07 210.255)" fill="#FF9ADC"/>
<circle opacity="0.35" cx="1120.16" cy="298.718" r="3" transform="rotate(-62.0243 1120.16 298.718)" fill="#FF9ADC"/>
<circle opacity="0.35" cx="1185.83" cy="175.073" r="3" transform="rotate(-62.0243 1185.83 175.073)" fill="#FF9ADC"/>
<circle opacity="0.8" cx="1246.56" cy="433.799" r="6" transform="rotate(-62.0243 1246.56 433.799)" fill="#FF9ADC"/>
<circle opacity="0.55" cx="1158.25" cy="386.889" r="6" transform="rotate(-62.0243 1158.25 386.889)" fill="#FF9ADC"/>
<circle opacity="0.55" cx="1223.92" cy="263.244" r="6" transform="rotate(-62.0243 1223.92 263.244)" fill="#FF9ADC"/>
<circle opacity="0.35" cx="1092.01" cy="351.706" r="3" transform="rotate(-62.0243 1092.01 351.706)" fill="#FF9ADC"/>
<circle opacity="0.35" cx="1157.69" cy="228.062" r="3" transform="rotate(-62.0243 1157.69 228.062)" fill="#FF9ADC"/>
<circle opacity="0.55" cx="1214.54" cy="280.911" r="6" transform="rotate(-62.0243 1214.54 280.911)" fill="#FF9ADC"/>
<circle opacity="0.55" cx="1280.21" cy="157.266" r="6" transform="rotate(-62.0243 1280.21 157.266)" fill="#FF9ADC"/>
<circle opacity="0.35" cx="1148.3" cy="245.729" r="3" transform="rotate(-62.0243 1148.3 245.729)" fill="#FF9ADC"/>
<circle opacity="0.35" cx="1213.98" cy="122.084" r="3" transform="rotate(-62.0243 1213.98 122.084)" fill="#FF9ADC"/>
<circle opacity="0.85" cx="1226.7" cy="513.832" r="6" transform="rotate(-62.0243 1226.7 513.832)" fill="#FF9ADC"/>
<circle opacity="0.6" cx="1138.38" cy="466.923" r="6" transform="rotate(-62.0243 1138.38 466.923)" fill="#FF9ADC"/>
<circle opacity="0.4" cx="1068.61" cy="429.864" r="5" transform="rotate(-62.0243 1068.61 429.864)" fill="#FF9ADC"/>
<circle opacity="0.85" cx="1282.99" cy="407.855" r="6" transform="rotate(-62.0243 1282.99 407.855)" fill="#FF9ADC"/>
<circle opacity="0.6" cx="1194.67" cy="360.945" r="6" transform="rotate(-62.0243 1194.67 360.945)" fill="#FF9ADC"/>
<circle opacity="0.6" cx="1260.35" cy="237.3" r="6" transform="rotate(-62.0243 1260.35 237.3)" fill="#FF9ADC"/>
<circle opacity="0.4" cx="1124.91" cy="323.886" r="5" transform="rotate(-62.0243 1124.91 323.886)" fill="#FF9ADC"/>
<circle opacity="0.4" cx="1190.58" cy="200.242" r="5" transform="rotate(-62.0243 1190.58 200.242)" fill="#FF9ADC"/>
<circle opacity="0.85" cx="1254.84" cy="460.844" r="6" transform="rotate(-62.0243 1254.84 460.844)" fill="#FF9ADC"/>
<circle opacity="0.6" cx="1166.53" cy="413.934" r="6" transform="rotate(-62.0243 1166.53 413.934)" fill="#FF9ADC"/>
<circle opacity="0.4" cx="1096.76" cy="376.875" r="5" transform="rotate(-62.0243 1096.76 376.875)" fill="#FF9ADC"/>
<circle opacity="0.6" cx="1222.82" cy="307.956" r="6" transform="rotate(-62.0243 1222.82 307.956)" fill="#FF9ADC"/>
<circle opacity="0.4" cx="1153.05" cy="270.898" r="5" transform="rotate(-62.0243 1153.05 270.898)" fill="#FF9ADC"/>
<circle opacity="0.4" cx="1218.73" cy="147.253" r="5" transform="rotate(-62.0243 1218.73 147.253)" fill="#FF9ADC"/>
<circle opacity="0.95" cx="1262.02" cy="532.596" r="6" transform="rotate(-62.0243 1262.02 532.596)" fill="#FF9ADC"/>
<circle opacity="0.7" cx="1173.71" cy="485.686" r="6" transform="rotate(-62.0243 1173.71 485.686)" fill="#FF9ADC"/>
<circle opacity="0.7" cx="1230" cy="379.709" r="6" transform="rotate(-62.0243 1230 379.709)" fill="#FF9ADC"/>
<circle opacity="0.7" cx="1201.85" cy="432.698" r="6" transform="rotate(-62.0243 1201.85 432.698)" fill="#FF9ADC"/>
<circle opacity="0.7" cx="1258.15" cy="326.72" r="6" transform="rotate(-62.0243 1258.15 326.72)" fill="#FF9ADC"/>
<circle opacity="0.85" cx="1236.08" cy="496.169" r="6" transform="rotate(-62.0243 1236.08 496.169)" fill="#FF9ADC"/>
<circle opacity="0.6" cx="1147.76" cy="449.26" r="6" transform="rotate(-62.0243 1147.76 449.26)" fill="#FF9ADC"/>
<circle opacity="0.4" cx="1078" cy="412.201" r="5" transform="rotate(-62.0243 1078 412.201)" fill="#FF9ADC"/>
<circle opacity="0.6" cx="1204.06" cy="343.282" r="6" transform="rotate(-62.0243 1204.06 343.282)" fill="#FF9ADC"/>
<circle opacity="0.6" cx="1269.73" cy="219.637" r="6" transform="rotate(-62.0243 1269.73 219.637)" fill="#FF9ADC"/>
<circle opacity="0.4" cx="1134.29" cy="306.223" r="5" transform="rotate(-62.0243 1134.29 306.223)" fill="#FF9ADC"/>
<circle opacity="0.4" cx="1199.96" cy="182.578" r="5" transform="rotate(-62.0243 1199.96 182.578)" fill="#FF9ADC"/>
<circle opacity="0.85" cx="1264.22" cy="443.18" r="6" transform="rotate(-62.0243 1264.22 443.18)" fill="#FF9ADC"/>
<circle opacity="0.6" cx="1175.91" cy="396.271" r="6" transform="rotate(-62.0243 1175.91 396.271)" fill="#FF9ADC"/>
<circle opacity="0.6" cx="1241.59" cy="272.626" r="6" transform="rotate(-62.0243 1241.59 272.626)" fill="#FF9ADC"/>
<circle opacity="0.4" cx="1106.14" cy="359.212" r="5" transform="rotate(-62.0243 1106.14 359.212)" fill="#FF9ADC"/>
<circle opacity="0.4" cx="1171.82" cy="235.567" r="5" transform="rotate(-62.0243 1171.82 235.567)" fill="#FF9ADC"/>
<circle opacity="0.6" cx="1232.2" cy="290.293" r="6" transform="rotate(-62.0243 1232.2 290.293)" fill="#FF9ADC"/>
<circle opacity="0.4" cx="1162.43" cy="253.235" r="5" transform="rotate(-62.0243 1162.43 253.235)" fill="#FF9ADC"/>
<circle opacity="0.4" cx="1228.11" cy="129.59" r="5" transform="rotate(-62.0243 1228.11 129.59)" fill="#FF9ADC"/>
<circle opacity="0.95" cx="1271.4" cy="514.933" r="6" transform="rotate(-62.0243 1271.4 514.933)" fill="#FF9ADC"/>
<circle opacity="0.7" cx="1183.09" cy="468.023" r="6" transform="rotate(-62.0243 1183.09 468.023)" fill="#FF9ADC"/>
<circle opacity="0.7" cx="1239.38" cy="362.046" r="6" transform="rotate(-62.0243 1239.38 362.046)" fill="#FF9ADC"/>
<circle opacity="0.7" cx="1211.24" cy="415.035" r="6" transform="rotate(-62.0243 1211.24 415.035)" fill="#FF9ADC"/>
<circle opacity="0.7" cx="1276.91" cy="291.39" r="6" transform="rotate(-62.0243 1276.91 291.39)" fill="#FF9ADC"/>
<circle opacity="0.7" cx="1267.53" cy="309.057" r="6" transform="rotate(-62.0243 1267.53 309.057)" fill="#FF9ADC"/>
<circle opacity="0.9" cx="1244.36" cy="523.214" r="6" transform="rotate(-62.0243 1244.36 523.214)" fill="#FF9ADC"/>
<circle opacity="0.65" cx="1156.05" cy="476.305" r="6" transform="rotate(-62.0243 1156.05 476.305)" fill="#FF9ADC"/>
<circle opacity="0.45" cx="1085.39" cy="438.777" r="6" transform="rotate(-62.0243 1085.39 438.777)" fill="#FF9ADC"/>
<circle opacity="0.65" cx="1212.34" cy="370.327" r="6" transform="rotate(-62.0243 1212.34 370.327)" fill="#FF9ADC"/>
<circle opacity="0.65" cx="1278.01" cy="246.682" r="6" transform="rotate(-62.0243 1278.01 246.682)" fill="#FF9ADC"/>
<circle opacity="0.45" cx="1141.69" cy="332.799" r="6" transform="rotate(-62.0243 1141.69 332.799)" fill="#FF9ADC"/>
<circle opacity="0.45" cx="1207.36" cy="209.154" r="6" transform="rotate(-62.0243 1207.36 209.154)" fill="#FF9ADC"/>
<circle opacity="0.9" cx="1272.51" cy="470.225" r="6" transform="rotate(-62.0243 1272.51 470.225)" fill="#FF9ADC"/>
<circle opacity="0.65" cx="1184.19" cy="423.316" r="6" transform="rotate(-62.0243 1184.19 423.316)" fill="#FF9ADC"/>
<circle opacity="0.45" cx="1113.54" cy="385.788" r="6" transform="rotate(-62.0243 1113.54 385.788)" fill="#FF9ADC"/>
<circle opacity="0.65" cx="1240.48" cy="317.338" r="6" transform="rotate(-62.0243 1240.48 317.338)" fill="#FF9ADC"/>
<circle opacity="0.45" cx="1169.83" cy="279.81" r="6" transform="rotate(-62.0243 1169.83 279.81)" fill="#FF9ADC"/>
<circle opacity="0.45" cx="1235.51" cy="156.166" r="6" transform="rotate(-62.0243 1235.51 156.166)" fill="#FF9ADC"/>
<circle cx="1279.69" cy="541.978" r="6" transform="rotate(-62.0243 1279.69 541.978)" fill="#FF9ADC"/>
<circle opacity="0.9" cx="1253.74" cy="505.551" r="6" transform="rotate(-62.0243 1253.74 505.551)" fill="#FF9ADC"/>
<circle opacity="0.65" cx="1165.43" cy="458.642" r="6" transform="rotate(-62.0243 1165.43 458.642)" fill="#FF9ADC"/>
<circle opacity="0.45" cx="1094.78" cy="421.114" r="6" transform="rotate(-62.0243 1094.78 421.114)" fill="#FF9ADC"/>
<circle opacity="0.65" cx="1221.72" cy="352.664" r="6" transform="rotate(-62.0243 1221.72 352.664)" fill="#FF9ADC"/>
<circle opacity="0.65" cx="1287.39" cy="229.019" r="6" transform="rotate(-62.0243 1287.39 229.019)" fill="#FF9ADC"/>
<circle opacity="0.45" cx="1151.07" cy="315.136" r="6" transform="rotate(-62.0243 1151.07 315.136)" fill="#FF9ADC"/>
<circle opacity="0.45" cx="1216.74" cy="191.491" r="6" transform="rotate(-62.0243 1216.74 191.491)" fill="#FF9ADC"/>
<circle opacity="0.9" cx="1281.89" cy="452.563" r="6" transform="rotate(-62.0243 1281.89 452.563)" fill="#FF9ADC"/>
<circle opacity="0.65" cx="1193.57" cy="405.653" r="6" transform="rotate(-62.0243 1193.57 405.653)" fill="#FF9ADC"/>
<circle opacity="0.65" cx="1259.25" cy="282.008" r="6" transform="rotate(-62.0243 1259.25 282.008)" fill="#FF9ADC"/>
<circle opacity="0.45" cx="1122.92" cy="368.125" r="6" transform="rotate(-62.0243 1122.92 368.125)" fill="#FF9ADC"/>
<circle opacity="0.45" cx="1188.6" cy="244.48" r="6" transform="rotate(-62.0243 1188.6 244.48)" fill="#FF9ADC"/>
<circle opacity="0.65" cx="1249.86" cy="299.675" r="6" transform="rotate(-62.0243 1249.86 299.675)" fill="#FF9ADC"/>
<circle opacity="0.45" cx="1179.21" cy="262.148" r="6" transform="rotate(-62.0243 1179.21 262.148)" fill="#FF9ADC"/>
<circle opacity="0.45" cx="1244.89" cy="138.503" r="6" transform="rotate(-62.0243 1244.89 138.503)" fill="#FF9ADC"/>
<circle opacity="0.8" cx="1199.65" cy="522.113" r="6" transform="rotate(-62.0243 1199.65 522.113)" fill="#FF9ADC"/>
<circle opacity="0.55" cx="1111.34" cy="475.204" r="6" transform="rotate(-62.0243 1111.34 475.204)" fill="#FF9ADC"/>
<circle opacity="0.35" cx="1045.1" cy="440.021" r="3" transform="rotate(-62.0243 1045.1 440.021)" fill="#FF9ADC"/>
<circle opacity="0.8" cx="1255.94" cy="416.136" r="6" transform="rotate(-62.0243 1255.94 416.136)" fill="#FF9ADC"/>
<circle opacity="0.55" cx="1167.63" cy="369.226" r="6" transform="rotate(-62.0243 1167.63 369.226)" fill="#FF9ADC"/>
<circle opacity="0.55" cx="1233.31" cy="245.581" r="6" transform="rotate(-62.0243 1233.31 245.581)" fill="#FF9ADC"/>
<circle opacity="0.35" cx="1101.39" cy="334.043" r="3" transform="rotate(-62.0243 1101.39 334.043)" fill="#FF9ADC"/>
<circle opacity="0.35" cx="1167.07" cy="210.398" r="3" transform="rotate(-62.0243 1167.07 210.398)" fill="#FF9ADC"/>
<circle opacity="0.8" cx="1227.8" cy="469.125" r="6" transform="rotate(-62.0243 1227.8 469.125)" fill="#FF9ADC"/>
<circle opacity="0.55" cx="1139.48" cy="422.215" r="6" transform="rotate(-62.0243 1139.48 422.215)" fill="#FF9ADC"/>
<circle opacity="0.35" cx="1073.25" cy="387.032" r="3" transform="rotate(-62.0243 1073.25 387.032)" fill="#FF9ADC"/>
<circle opacity="0.8" cx="1284.09" cy="363.147" r="6" transform="rotate(-62.0243 1284.09 363.147)" fill="#FF9ADC"/>
<circle opacity="0.55" cx="1195.78" cy="316.237" r="6" transform="rotate(-62.0243 1195.78 316.237)" fill="#FF9ADC"/>
<circle opacity="0.55" cx="1261.45" cy="192.592" r="6" transform="rotate(-62.0243 1261.45 192.592)" fill="#FF9ADC"/>
<circle opacity="0.35" cx="1129.54" cy="281.054" r="3" transform="rotate(-62.0243 1129.54 281.054)" fill="#FF9ADC"/>
<circle opacity="0.35" cx="1195.21" cy="157.41" r="3" transform="rotate(-62.0243 1195.21 157.41)" fill="#FF9ADC"/>
<circle opacity="0.85" cx="1217.32" cy="531.495" r="6" transform="rotate(-62.0243 1217.32 531.495)" fill="#FF9ADC"/>
<circle opacity="0.6" cx="1129" cy="484.586" r="6" transform="rotate(-62.0243 1129 484.586)" fill="#FF9ADC"/>
<circle opacity="0.4" cx="1059.23" cy="447.527" r="5" transform="rotate(-62.0243 1059.23 447.527)" fill="#FF9ADC"/>
<circle opacity="0.85" cx="1273.61" cy="425.518" r="6" transform="rotate(-62.0243 1273.61 425.518)" fill="#FF9ADC"/>
<circle opacity="0.6" cx="1185.29" cy="378.608" r="6" transform="rotate(-62.0243 1185.29 378.608)" fill="#FF9ADC"/>
<circle opacity="0.6" cx="1250.97" cy="254.963" r="6" transform="rotate(-62.0243 1250.97 254.963)" fill="#FF9ADC"/>
<circle opacity="0.4" cx="1115.52" cy="341.549" r="5" transform="rotate(-62.0243 1115.52 341.549)" fill="#FF9ADC"/>
<circle opacity="0.4" cx="1181.2" cy="217.904" r="5" transform="rotate(-62.0243 1181.2 217.904)" fill="#FF9ADC"/>
<circle opacity="0.85" cx="1245.46" cy="478.506" r="6" transform="rotate(-62.0243 1245.46 478.506)" fill="#FF9ADC"/>
<circle opacity="0.6" cx="1157.15" cy="431.597" r="6" transform="rotate(-62.0243 1157.15 431.597)" fill="#FF9ADC"/>
<circle opacity="0.4" cx="1087.38" cy="394.538" r="5" transform="rotate(-62.0243 1087.38 394.538)" fill="#FF9ADC"/>
<circle opacity="0.6" cx="1213.44" cy="325.619" r="6" transform="rotate(-62.0243 1213.44 325.619)" fill="#FF9ADC"/>
<circle opacity="0.6" cx="1279.11" cy="201.974" r="6" transform="rotate(-62.0243 1279.11 201.974)" fill="#FF9ADC"/>
<circle opacity="0.4" cx="1143.67" cy="288.56" r="5" transform="rotate(-62.0243 1143.67 288.56)" fill="#FF9ADC"/>
<circle opacity="0.4" cx="1209.35" cy="164.916" r="5" transform="rotate(-62.0243 1209.35 164.916)" fill="#FF9ADC"/>
<circle opacity="0.95" cx="1252.64" cy="550.259" r="6" transform="rotate(-62.0243 1252.64 550.259)" fill="#FF9ADC"/>
<circle opacity="0.7" cx="1164.33" cy="503.349" r="6" transform="rotate(-62.0243 1164.33 503.349)" fill="#FF9ADC"/>
<circle opacity="0.7" cx="1220.62" cy="397.372" r="6" transform="rotate(-62.0243 1220.62 397.372)" fill="#FF9ADC"/>
<circle opacity="0.7" cx="1286.29" cy="273.727" r="6" transform="rotate(-62.0243 1286.29 273.727)" fill="#FF9ADC"/>
<circle opacity="0.95" cx="1280.79" cy="497.27" r="6" transform="rotate(-62.0243 1280.79 497.27)" fill="#FF9ADC"/>
<circle opacity="0.7" cx="1192.47" cy="450.361" r="6" transform="rotate(-62.0243 1192.47 450.361)" fill="#FF9ADC"/>
<circle opacity="0.7" cx="1248.76" cy="344.383" r="6" transform="rotate(-62.0243 1248.76 344.383)" fill="#FF9ADC"/>
<circle cx="1287.97" cy="569.023" r="6" transform="rotate(-62.0243 1287.97 569.023)" fill="#FF9ADC"/>
<circle opacity="0.9" cx="1234.98" cy="540.877" r="6" transform="rotate(-62.0243 1234.98 540.877)" fill="#FF9ADC"/>
<circle opacity="0.65" cx="1146.66" cy="493.967" r="6" transform="rotate(-62.0243 1146.66 493.967)" fill="#FF9ADC"/>
<circle opacity="0.45" cx="1076.01" cy="456.44" r="6" transform="rotate(-62.0243 1076.01 456.44)" fill="#FF9ADC"/>
<circle opacity="0.65" cx="1202.96" cy="387.99" r="6" transform="rotate(-62.0243 1202.96 387.99)" fill="#FF9ADC"/>
<circle opacity="0.65" cx="1268.63" cy="264.345" r="6" transform="rotate(-62.0243 1268.63 264.345)" fill="#FF9ADC"/>
<circle opacity="0.45" cx="1132.3" cy="350.462" r="6" transform="rotate(-62.0243 1132.3 350.462)" fill="#FF9ADC"/>
<circle opacity="0.45" cx="1197.98" cy="226.817" r="6" transform="rotate(-62.0243 1197.98 226.817)" fill="#FF9ADC"/>
<circle opacity="0.9" cx="1263.12" cy="487.888" r="6" transform="rotate(-62.0243 1263.12 487.888)" fill="#FF9ADC"/>
<circle opacity="0.65" cx="1174.81" cy="440.979" r="6" transform="rotate(-62.0243 1174.81 440.979)" fill="#FF9ADC"/>
<circle opacity="0.45" cx="1104.16" cy="403.451" r="6" transform="rotate(-62.0243 1104.16 403.451)" fill="#FF9ADC"/>
<circle opacity="0.65" cx="1231.1" cy="335.001" r="6" transform="rotate(-62.0243 1231.1 335.001)" fill="#FF9ADC"/>
<circle opacity="0.45" cx="1160.45" cy="297.473" r="6" transform="rotate(-62.0243 1160.45 297.473)" fill="#FF9ADC"/>
<circle opacity="0.45" cx="1226.13" cy="173.828" r="6" transform="rotate(-62.0243 1226.13 173.828)" fill="#FF9ADC"/>
<circle cx="1270.3" cy="559.641" r="6" transform="rotate(-62.0243 1270.3 559.641)" fill="#FF9ADC"/>
</g>
</g>
<g opacity="0.6">
<rect width="625" height="720" transform="translate(-17.458 102.295) rotate(13)" fill="#97F6FF"/>
</g>
<g clip-path="url(#clip2_228_476484)">
<rect width="625" height="720" transform="translate(-192.423 140.889) rotate(-13)" fill="url(#paint1_linear_228_476484)"/>
<g opacity="0.3">
<circle opacity="0.75" cx="18.5313" cy="98.6654" r="6" transform="rotate(77 18.5313 98.6654)" fill="#70E9F5"/>
<circle opacity="0.5" cx="115.968" cy="76.1702" r="6" transform="rotate(77 115.968 76.1702)" fill="#70E9F5"/>
<circle opacity="0.3" cx="182.226" cy="60.8735" r="2" transform="rotate(77 182.226 60.8735)" fill="#70E9F5"/>
<circle opacity="0.75" cx="45.5255" cy="215.59" r="6" transform="rotate(77 45.5255 215.59)" fill="#70E9F5"/>
<circle opacity="0.5" cx="142.962" cy="193.095" r="6" transform="rotate(77 142.962 193.095)" fill="#70E9F5"/>
<circle opacity="0.3" cx="209.22" cy="177.798" r="2" transform="rotate(77 209.22 177.798)" fill="#70E9F5"/>
<circle opacity="0.75" cx="32.0284" cy="157.128" r="6" transform="rotate(77 32.0284 157.128)" fill="#70E9F5"/>
<circle opacity="0.5" cx="129.465" cy="134.632" r="6" transform="rotate(77 129.465 134.632)" fill="#70E9F5"/>
<circle opacity="0.3" cx="195.723" cy="119.336" r="2" transform="rotate(77 195.723 119.336)" fill="#70E9F5"/>
<circle opacity="0.75" cx="59.0225" cy="274.052" r="6" transform="rotate(77 59.0225 274.052)" fill="#70E9F5"/>
<circle opacity="0.5" cx="156.46" cy="251.557" r="6" transform="rotate(77 156.46 251.557)" fill="#70E9F5"/>
<circle opacity="0.3" cx="222.717" cy="236.26" r="2" transform="rotate(77 222.717 236.26)" fill="#70E9F5"/>
<circle opacity="0.75" cx="23.0303" cy="118.153" r="6" transform="rotate(77 23.0303 118.153)" fill="#70E9F5"/>
<circle opacity="0.5" cx="120.467" cy="95.6576" r="6" transform="rotate(77 120.467 95.6576)" fill="#70E9F5"/>
<circle opacity="0.3" cx="186.725" cy="80.3609" r="2" transform="rotate(77 186.725 80.3609)" fill="#70E9F5"/>
<circle opacity="0.75" cx="50.0245" cy="235.077" r="6" transform="rotate(77 50.0245 235.077)" fill="#70E9F5"/>
<circle opacity="0.5" cx="147.461" cy="212.582" r="6" transform="rotate(77 147.461 212.582)" fill="#70E9F5"/>
<circle opacity="0.3" cx="213.719" cy="197.285" r="2" transform="rotate(77 213.719 197.285)" fill="#70E9F5"/>
<circle opacity="0.75" cx="36.5274" cy="176.615" r="6" transform="rotate(77 36.5274 176.615)" fill="#70E9F5"/>
<circle opacity="0.5" cx="133.964" cy="154.12" r="6" transform="rotate(77 133.964 154.12)" fill="#70E9F5"/>
<circle opacity="0.3" cx="200.222" cy="138.823" r="2" transform="rotate(77 200.222 138.823)" fill="#70E9F5"/>
<circle opacity="0.75" cx="63.5216" cy="293.539" r="6" transform="rotate(77 63.5216 293.539)" fill="#70E9F5"/>
<circle opacity="0.5" cx="160.959" cy="271.044" r="6" transform="rotate(77 160.959 271.044)" fill="#70E9F5"/>
<circle opacity="0.3" cx="227.216" cy="255.748" r="2" transform="rotate(77 227.216 255.748)" fill="#70E9F5"/>
<circle opacity="0.75" cx="27.5294" cy="137.64" r="6" transform="rotate(77 27.5294 137.64)" fill="#70E9F5"/>
<circle opacity="0.5" cx="124.966" cy="115.145" r="6" transform="rotate(77 124.966 115.145)" fill="#70E9F5"/>
<circle opacity="0.3" cx="191.224" cy="99.8484" r="2" transform="rotate(77 191.224 99.8484)" fill="#70E9F5"/>
<circle opacity="0.75" cx="54.5235" cy="254.565" r="6" transform="rotate(77 54.5235 254.565)" fill="#70E9F5"/>
<circle opacity="0.5" cx="151.961" cy="232.069" r="6" transform="rotate(77 151.961 232.069)" fill="#70E9F5"/>
<circle opacity="0.3" cx="218.218" cy="216.773" r="2" transform="rotate(77 218.218 216.773)" fill="#70E9F5"/>
<circle opacity="0.75" cx="41.0264" cy="196.102" r="6" transform="rotate(77 41.0264 196.102)" fill="#70E9F5"/>
<circle opacity="0.5" cx="138.463" cy="173.607" r="6" transform="rotate(77 138.463 173.607)" fill="#70E9F5"/>
<circle opacity="0.3" cx="204.721" cy="158.311" r="2" transform="rotate(77 204.721 158.311)" fill="#70E9F5"/>
<circle opacity="0.75" cx="68.0206" cy="313.027" r="6" transform="rotate(77 68.0206 313.027)" fill="#70E9F5"/>
<circle opacity="0.5" cx="165.458" cy="290.532" r="6" transform="rotate(77 165.458 290.532)" fill="#70E9F5"/>
<circle opacity="0.3" cx="231.715" cy="275.235" r="2" transform="rotate(77 231.715 275.235)" fill="#70E9F5"/>
<circle opacity="0.8" cx="3.54304" cy="122.652" r="6" transform="rotate(77 3.54304 122.652)" fill="#70E9F5"/>
<circle opacity="0.55" cx="100.98" cy="100.157" r="6" transform="rotate(77 100.98 100.157)" fill="#70E9F5"/>
<circle opacity="0.35" cx="174.058" cy="83.2852" r="3" transform="rotate(77 174.058 83.2852)" fill="#70E9F5"/>
<circle opacity="0.8" cx="30.5372" cy="239.576" r="6" transform="rotate(77 30.5372 239.576)" fill="#70E9F5"/>
<circle opacity="0.55" cx="127.974" cy="217.081" r="6" transform="rotate(77 127.974 217.081)" fill="#70E9F5"/>
<circle opacity="0.35" cx="201.052" cy="200.21" r="3" transform="rotate(77 201.052 200.21)" fill="#70E9F5"/>
<circle opacity="0.8" cx="17.0401" cy="181.114" r="6" transform="rotate(77 17.0401 181.114)" fill="#70E9F5"/>
<circle opacity="0.55" cx="114.477" cy="158.619" r="6" transform="rotate(77 114.477 158.619)" fill="#70E9F5"/>
<circle opacity="0.35" cx="187.555" cy="141.747" r="3" transform="rotate(77 187.555 141.747)" fill="#70E9F5"/>
<circle opacity="0.8" cx="44.0342" cy="298.038" r="6" transform="rotate(77 44.0342 298.038)" fill="#70E9F5"/>
<circle opacity="0.55" cx="141.471" cy="275.543" r="6" transform="rotate(77 141.471 275.543)" fill="#70E9F5"/>
<circle opacity="0.35" cx="214.549" cy="258.672" r="3" transform="rotate(77 214.549 258.672)" fill="#70E9F5"/>
<circle opacity="0.8" cx="8.04206" cy="142.139" r="6" transform="rotate(77 8.04206 142.139)" fill="#70E9F5"/>
<circle opacity="0.55" cx="105.479" cy="119.644" r="6" transform="rotate(77 105.479 119.644)" fill="#70E9F5"/>
<circle opacity="0.35" cx="178.557" cy="102.773" r="3" transform="rotate(77 178.557 102.773)" fill="#70E9F5"/>
<circle opacity="0.8" cx="35.0362" cy="259.064" r="6" transform="rotate(77 35.0362 259.064)" fill="#70E9F5"/>
<circle opacity="0.55" cx="132.473" cy="236.568" r="6" transform="rotate(77 132.473 236.568)" fill="#70E9F5"/>
<circle opacity="0.35" cx="205.551" cy="219.697" r="3" transform="rotate(77 205.551 219.697)" fill="#70E9F5"/>
<circle opacity="0.8" cx="21.5391" cy="200.601" r="6" transform="rotate(77 21.5391 200.601)" fill="#70E9F5"/>
<circle opacity="0.55" cx="118.976" cy="178.106" r="6" transform="rotate(77 118.976 178.106)" fill="#70E9F5"/>
<circle opacity="0.35" cx="192.054" cy="161.235" r="3" transform="rotate(77 192.054 161.235)" fill="#70E9F5"/>
<circle opacity="0.8" cx="48.5333" cy="317.526" r="6" transform="rotate(77 48.5333 317.526)" fill="#70E9F5"/>
<circle opacity="0.55" cx="145.97" cy="295.031" r="6" transform="rotate(77 145.97 295.031)" fill="#70E9F5"/>
<circle opacity="0.35" cx="219.048" cy="278.159" r="3" transform="rotate(77 219.048 278.159)" fill="#70E9F5"/>
<circle opacity="0.6" cx="81.4927" cy="104.656" r="6" transform="rotate(77 81.4927 104.656)" fill="#70E9F5"/>
<circle opacity="0.4" cx="158.468" cy="86.8845" r="5" transform="rotate(77 158.468 86.8845)" fill="#70E9F5"/>
<circle opacity="0.85" cx="11.0499" cy="244.075" r="6" transform="rotate(77 11.0499 244.075)" fill="#70E9F5"/>
<circle opacity="0.6" cx="108.487" cy="221.58" r="6" transform="rotate(77 108.487 221.58)" fill="#70E9F5"/>
<circle opacity="0.4" cx="185.462" cy="203.809" r="5" transform="rotate(77 185.462 203.809)" fill="#70E9F5"/>
<circle opacity="0.85" cx="-2.4472" cy="185.613" r="6" transform="rotate(77 -2.4472 185.613)" fill="#70E9F5"/>
<circle opacity="0.6" cx="94.9898" cy="163.118" r="6" transform="rotate(77 94.9898 163.118)" fill="#70E9F5"/>
<circle opacity="0.4" cx="171.965" cy="145.347" r="5" transform="rotate(77 171.965 145.347)" fill="#70E9F5"/>
<circle opacity="0.85" cx="24.5469" cy="302.537" r="6" transform="rotate(77 24.5469 302.537)" fill="#70E9F5"/>
<circle opacity="0.6" cx="121.984" cy="280.042" r="6" transform="rotate(77 121.984 280.042)" fill="#70E9F5"/>
<circle opacity="0.4" cx="198.959" cy="262.271" r="5" transform="rotate(77 198.959 262.271)" fill="#70E9F5"/>
<circle opacity="0.7" cx="42.5181" cy="113.654" r="6" transform="rotate(77 42.5181 113.654)" fill="#70E9F5"/>
<circle opacity="0.7" cx="69.5123" cy="230.578" r="6" transform="rotate(77 69.5123 230.578)" fill="#70E9F5"/>
<circle opacity="0.7" cx="56.0152" cy="172.116" r="6" transform="rotate(77 56.0152 172.116)" fill="#70E9F5"/>
<circle opacity="0.7" cx="83.0093" cy="289.04" r="6" transform="rotate(77 83.0093 289.04)" fill="#70E9F5"/>
<circle opacity="0.6" cx="85.9918" cy="124.143" r="6" transform="rotate(77 85.9918 124.143)" fill="#70E9F5"/>
<circle opacity="0.4" cx="162.967" cy="106.372" r="5" transform="rotate(77 162.967 106.372)" fill="#70E9F5"/>
<circle opacity="0.85" cx="15.5489" cy="263.563" r="6" transform="rotate(77 15.5489 263.563)" fill="#70E9F5"/>
<circle opacity="0.6" cx="112.986" cy="241.068" r="6" transform="rotate(77 112.986 241.068)" fill="#70E9F5"/>
<circle opacity="0.4" cx="189.961" cy="223.296" r="5" transform="rotate(77 189.961 223.296)" fill="#70E9F5"/>
<circle opacity="0.85" cx="2.05183" cy="205.1" r="6" transform="rotate(77 2.05183 205.1)" fill="#70E9F5"/>
<circle opacity="0.6" cx="99.4888" cy="182.605" r="6" transform="rotate(77 99.4888 182.605)" fill="#70E9F5"/>
<circle opacity="0.4" cx="176.464" cy="164.834" r="5" transform="rotate(77 176.464 164.834)" fill="#70E9F5"/>
<circle opacity="0.85" cx="29.046" cy="322.025" r="6" transform="rotate(77 29.046 322.025)" fill="#70E9F5"/>
<circle opacity="0.6" cx="126.483" cy="299.53" r="6" transform="rotate(77 126.483 299.53)" fill="#70E9F5"/>
<circle opacity="0.4" cx="203.458" cy="281.759" r="5" transform="rotate(77 203.458 281.759)" fill="#70E9F5"/>
<circle opacity="0.7" cx="47.0172" cy="133.141" r="6" transform="rotate(77 47.0172 133.141)" fill="#70E9F5"/>
<circle opacity="0.7" cx="74.0113" cy="250.066" r="6" transform="rotate(77 74.0113 250.066)" fill="#70E9F5"/>
<circle opacity="0.7" cx="60.5142" cy="191.603" r="6" transform="rotate(77 60.5142 191.603)" fill="#70E9F5"/>
<circle opacity="0.7" cx="87.5084" cy="308.528" r="6" transform="rotate(77 87.5084 308.528)" fill="#70E9F5"/>
<circle opacity="0.65" cx="62.0054" cy="109.155" r="6" transform="rotate(77 62.0054 109.155)" fill="#70E9F5"/>
<circle opacity="0.45" cx="139.955" cy="91.1586" r="6" transform="rotate(77 139.955 91.1586)" fill="#70E9F5"/>
<circle opacity="0.65" cx="88.9996" cy="226.079" r="6" transform="rotate(77 88.9996 226.079)" fill="#70E9F5"/>
<circle opacity="0.45" cx="166.949" cy="208.083" r="6" transform="rotate(77 166.949 208.083)" fill="#70E9F5"/>
<circle opacity="0.65" cx="75.5025" cy="167.617" r="6" transform="rotate(77 75.5025 167.617)" fill="#70E9F5"/>
<circle opacity="0.45" cx="153.452" cy="149.621" r="6" transform="rotate(77 153.452 149.621)" fill="#70E9F5"/>
<circle opacity="0.9" cx="5.05964" cy="307.036" r="6" transform="rotate(77 5.05964 307.036)" fill="#70E9F5"/>
<circle opacity="0.65" cx="102.497" cy="284.541" r="6" transform="rotate(77 102.497 284.541)" fill="#70E9F5"/>
<circle opacity="0.45" cx="180.446" cy="266.545" r="6" transform="rotate(77 180.446 266.545)" fill="#70E9F5"/>
<circle opacity="0.65" cx="66.5045" cy="128.642" r="6" transform="rotate(77 66.5045 128.642)" fill="#70E9F5"/>
<circle opacity="0.45" cx="144.454" cy="110.646" r="6" transform="rotate(77 144.454 110.646)" fill="#70E9F5"/>
<circle opacity="0.9" cx="-3.93841" cy="268.062" r="6" transform="rotate(77 -3.93841 268.062)" fill="#70E9F5"/>
<circle opacity="0.65" cx="93.4986" cy="245.567" r="6" transform="rotate(77 93.4986 245.567)" fill="#70E9F5"/>
<circle opacity="0.45" cx="171.448" cy="227.57" r="6" transform="rotate(77 171.448 227.57)" fill="#70E9F5"/>
<circle opacity="0.65" cx="80.0015" cy="187.104" r="6" transform="rotate(77 80.0015 187.104)" fill="#70E9F5"/>
<circle opacity="0.45" cx="157.951" cy="169.108" r="6" transform="rotate(77 157.951 169.108)" fill="#70E9F5"/>
<circle opacity="0.9" cx="9.55866" cy="326.524" r="6" transform="rotate(77 9.55866 326.524)" fill="#70E9F5"/>
<circle opacity="0.65" cx="106.996" cy="304.029" r="6" transform="rotate(77 106.996 304.029)" fill="#70E9F5"/>
<circle opacity="0.45" cx="184.945" cy="286.033" r="6" transform="rotate(77 184.945 286.033)" fill="#70E9F5"/>
<circle opacity="0.8" cx="-0.955987" cy="103.164" r="6" transform="rotate(77 -0.955987 103.164)" fill="#70E9F5"/>
<circle opacity="0.55" cx="96.481" cy="80.6692" r="6" transform="rotate(77 96.481 80.6692)" fill="#70E9F5"/>
<circle opacity="0.35" cx="169.559" cy="63.7979" r="3" transform="rotate(77 169.559 63.7979)" fill="#70E9F5"/>
<circle opacity="0.8" cx="26.0382" cy="220.089" r="6" transform="rotate(77 26.0382 220.089)" fill="#70E9F5"/>
<circle opacity="0.55" cx="123.475" cy="197.594" r="6" transform="rotate(77 123.475 197.594)" fill="#70E9F5"/>
<circle opacity="0.35" cx="196.553" cy="180.722" r="3" transform="rotate(77 196.553 180.722)" fill="#70E9F5"/>
<circle opacity="0.8" cx="12.5411" cy="161.627" r="6" transform="rotate(77 12.5411 161.627)" fill="#70E9F5"/>
<circle opacity="0.55" cx="109.978" cy="139.131" r="6" transform="rotate(77 109.978 139.131)" fill="#70E9F5"/>
<circle opacity="0.35" cx="183.056" cy="122.26" r="3" transform="rotate(77 183.056 122.26)" fill="#70E9F5"/>
<circle opacity="0.8" cx="39.5352" cy="278.551" r="6" transform="rotate(77 39.5352 278.551)" fill="#70E9F5"/>
<circle opacity="0.55" cx="136.972" cy="256.056" r="6" transform="rotate(77 136.972 256.056)" fill="#70E9F5"/>
<circle opacity="0.35" cx="210.05" cy="239.184" r="3" transform="rotate(77 210.05 239.184)" fill="#70E9F5"/>
<circle opacity="0.6" cx="76.9937" cy="85.1682" r="6" transform="rotate(77 76.9937 85.1682)" fill="#70E9F5"/>
<circle opacity="0.4" cx="153.969" cy="67.3971" r="5" transform="rotate(77 153.969 67.3971)" fill="#70E9F5"/>
<circle opacity="0.85" cx="6.55085" cy="224.588" r="6" transform="rotate(77 6.55085 224.588)" fill="#70E9F5"/>
<circle opacity="0.6" cx="103.988" cy="202.093" r="6" transform="rotate(77 103.988 202.093)" fill="#70E9F5"/>
<circle opacity="0.4" cx="180.963" cy="184.322" r="5" transform="rotate(77 180.963 184.322)" fill="#70E9F5"/>
<circle opacity="0.85" cx="-6.94622" cy="166.126" r="6" transform="rotate(77 -6.94622 166.126)" fill="#70E9F5"/>
<circle opacity="0.6" cx="90.4908" cy="143.63" r="6" transform="rotate(77 90.4908 143.63)" fill="#70E9F5"/>
<circle opacity="0.4" cx="167.466" cy="125.859" r="5" transform="rotate(77 167.466 125.859)" fill="#70E9F5"/>
<circle opacity="0.85" cx="20.0479" cy="283.05" r="6" transform="rotate(77 20.0479 283.05)" fill="#70E9F5"/>
<circle opacity="0.6" cx="117.485" cy="260.555" r="6" transform="rotate(77 117.485 260.555)" fill="#70E9F5"/>
<circle opacity="0.4" cx="194.46" cy="242.784" r="5" transform="rotate(77 194.46 242.784)" fill="#70E9F5"/>
<circle opacity="0.7" cx="38.0191" cy="94.1663" r="6" transform="rotate(77 38.0191 94.1663)" fill="#70E9F5"/>
<circle opacity="0.7" cx="65.0133" cy="211.091" r="6" transform="rotate(77 65.0133 211.091)" fill="#70E9F5"/>
<circle opacity="0.7" cx="51.5162" cy="152.629" r="6" transform="rotate(77 51.5162 152.629)" fill="#70E9F5"/>
<circle opacity="0.7" cx="78.5103" cy="269.553" r="6" transform="rotate(77 78.5103 269.553)" fill="#70E9F5"/>
<circle opacity="0.65" cx="57.5064" cy="89.6672" r="6" transform="rotate(77 57.5064 89.6672)" fill="#70E9F5"/>
<circle opacity="0.45" cx="135.456" cy="71.6712" r="6" transform="rotate(77 135.456 71.6712)" fill="#70E9F5"/>
<circle opacity="0.65" cx="84.5006" cy="206.592" r="6" transform="rotate(77 84.5006 206.592)" fill="#70E9F5"/>
<circle opacity="0.45" cx="162.45" cy="188.596" r="6" transform="rotate(77 162.45 188.596)" fill="#70E9F5"/>
<circle opacity="0.65" cx="71.0035" cy="148.13" r="6" transform="rotate(77 71.0035 148.13)" fill="#70E9F5"/>
<circle opacity="0.45" cx="148.953" cy="130.133" r="6" transform="rotate(77 148.953 130.133)" fill="#70E9F5"/>
<circle opacity="0.9" cx="0.560615" cy="287.549" r="6" transform="rotate(77 0.560615 287.549)" fill="#70E9F5"/>
<circle opacity="0.65" cx="97.9976" cy="265.054" r="6" transform="rotate(77 97.9976 265.054)" fill="#70E9F5"/>
<circle opacity="0.45" cx="175.947" cy="247.058" r="6" transform="rotate(77 175.947 247.058)" fill="#70E9F5"/>
<circle opacity="0.75" cx="72.3135" cy="332.557" r="6" transform="rotate(77 72.3135 332.557)" fill="#70E9F5"/>
<circle opacity="0.5" cx="169.751" cy="310.062" r="6" transform="rotate(77 169.751 310.062)" fill="#70E9F5"/>
<circle opacity="0.3" cx="236.008" cy="294.765" r="2" transform="rotate(77 236.008 294.765)" fill="#70E9F5"/>
<circle opacity="0.75" cx="99.3077" cy="449.481" r="6" transform="rotate(77 99.3077 449.481)" fill="#70E9F5"/>
<circle opacity="0.75" cx="130.802" cy="585.898" r="6" transform="rotate(77 130.802 585.898)" fill="#70E9F5"/>
<circle opacity="0.5" cx="196.745" cy="426.986" r="6" transform="rotate(77 196.745 426.986)" fill="#70E9F5"/>
<circle opacity="0.5" cx="228.239" cy="563.403" r="6" transform="rotate(77 228.239 563.403)" fill="#70E9F5"/>
<circle opacity="0.3" cx="263.002" cy="411.689" r="2" transform="rotate(77 263.002 411.689)" fill="#70E9F5"/>
<circle opacity="0.3" cx="294.496" cy="548.106" r="2" transform="rotate(77 294.496 548.106)" fill="#70E9F5"/>
<circle opacity="0.75" cx="85.8106" cy="391.019" r="6" transform="rotate(77 85.8106 391.019)" fill="#70E9F5"/>
<circle opacity="0.5" cx="183.248" cy="368.524" r="6" transform="rotate(77 183.248 368.524)" fill="#70E9F5"/>
<circle opacity="0.3" cx="249.505" cy="353.227" r="2" transform="rotate(77 249.505 353.227)" fill="#70E9F5"/>
<circle opacity="0.75" cx="112.805" cy="507.943" r="6" transform="rotate(77 112.805 507.943)" fill="#70E9F5"/>
<circle opacity="0.75" cx="144.299" cy="644.36" r="6" transform="rotate(77 144.299 644.36)" fill="#70E9F5"/>
<circle opacity="0.5" cx="210.242" cy="485.448" r="6" transform="rotate(77 210.242 485.448)" fill="#70E9F5"/>
<circle opacity="0.5" cx="241.736" cy="621.865" r="6" transform="rotate(77 241.736 621.865)" fill="#70E9F5"/>
<circle opacity="0.3" cx="276.499" cy="470.152" r="2" transform="rotate(77 276.499 470.152)" fill="#70E9F5"/>
<circle opacity="0.3" cx="307.993" cy="606.568" r="2" transform="rotate(77 307.993 606.568)" fill="#70E9F5"/>
<circle opacity="0.75" cx="76.8126" cy="352.044" r="6" transform="rotate(77 76.8126 352.044)" fill="#70E9F5"/>
<circle opacity="0.5" cx="174.25" cy="329.549" r="6" transform="rotate(77 174.25 329.549)" fill="#70E9F5"/>
<circle opacity="0.3" cx="240.507" cy="314.252" r="2" transform="rotate(77 240.507 314.252)" fill="#70E9F5"/>
<circle opacity="0.75" cx="103.807" cy="468.969" r="6" transform="rotate(77 103.807 468.969)" fill="#70E9F5"/>
<circle opacity="0.75" cx="135.301" cy="605.385" r="6" transform="rotate(77 135.301 605.385)" fill="#70E9F5"/>
<circle opacity="0.5" cx="201.244" cy="446.474" r="6" transform="rotate(77 201.244 446.474)" fill="#70E9F5"/>
<circle opacity="0.5" cx="232.738" cy="582.89" r="6" transform="rotate(77 232.738 582.89)" fill="#70E9F5"/>
<circle opacity="0.3" cx="267.501" cy="431.177" r="2" transform="rotate(77 267.501 431.177)" fill="#70E9F5"/>
<circle opacity="0.3" cx="298.995" cy="567.593" r="2" transform="rotate(77 298.995 567.593)" fill="#70E9F5"/>
<circle opacity="0.75" cx="90.3096" cy="410.506" r="6" transform="rotate(77 90.3096 410.506)" fill="#70E9F5"/>
<circle opacity="0.5" cx="187.747" cy="388.011" r="6" transform="rotate(77 187.747 388.011)" fill="#70E9F5"/>
<circle opacity="0.3" cx="254.004" cy="372.715" r="2" transform="rotate(77 254.004 372.715)" fill="#70E9F5"/>
<circle opacity="0.75" cx="117.304" cy="527.431" r="6" transform="rotate(77 117.304 527.431)" fill="#70E9F5"/>
<circle opacity="0.75" cx="148.798" cy="663.847" r="6" transform="rotate(77 148.798 663.847)" fill="#70E9F5"/>
<circle opacity="0.5" cx="214.741" cy="504.936" r="6" transform="rotate(77 214.741 504.936)" fill="#70E9F5"/>
<circle opacity="0.5" cx="246.235" cy="641.352" r="6" transform="rotate(77 246.235 641.352)" fill="#70E9F5"/>
<circle opacity="0.3" cx="280.998" cy="489.639" r="2" transform="rotate(77 280.998 489.639)" fill="#70E9F5"/>
<circle opacity="0.3" cx="312.492" cy="626.056" r="2" transform="rotate(77 312.492 626.056)" fill="#70E9F5"/>
<circle opacity="0.75" cx="81.3116" cy="371.532" r="6" transform="rotate(77 81.3116 371.532)" fill="#70E9F5"/>
<circle opacity="0.5" cx="178.749" cy="349.036" r="6" transform="rotate(77 178.749 349.036)" fill="#70E9F5"/>
<circle opacity="0.3" cx="245.006" cy="333.74" r="2" transform="rotate(77 245.006 333.74)" fill="#70E9F5"/>
<circle opacity="0.75" cx="108.306" cy="488.456" r="6" transform="rotate(77 108.306 488.456)" fill="#70E9F5"/>
<circle opacity="0.75" cx="139.8" cy="624.872" r="6" transform="rotate(77 139.8 624.872)" fill="#70E9F5"/>
<circle opacity="0.5" cx="205.743" cy="465.961" r="6" transform="rotate(77 205.743 465.961)" fill="#70E9F5"/>
<circle opacity="0.5" cx="237.237" cy="602.377" r="6" transform="rotate(77 237.237 602.377)" fill="#70E9F5"/>
<circle opacity="0.3" cx="272" cy="450.664" r="2" transform="rotate(77 272 450.664)" fill="#70E9F5"/>
<circle opacity="0.3" cx="303.494" cy="587.081" r="2" transform="rotate(77 303.494 587.081)" fill="#70E9F5"/>
<circle opacity="0.75" cx="94.8087" cy="429.994" r="6" transform="rotate(77 94.8087 429.994)" fill="#70E9F5"/>
<circle opacity="0.75" cx="126.303" cy="566.41" r="6" transform="rotate(77 126.303 566.41)" fill="#70E9F5"/>
<circle opacity="0.5" cx="192.246" cy="407.499" r="6" transform="rotate(77 192.246 407.499)" fill="#70E9F5"/>
<circle opacity="0.5" cx="223.74" cy="543.915" r="6" transform="rotate(77 223.74 543.915)" fill="#70E9F5"/>
<circle opacity="0.3" cx="258.503" cy="392.202" r="2" transform="rotate(77 258.503 392.202)" fill="#70E9F5"/>
<circle opacity="0.3" cx="289.997" cy="528.619" r="2" transform="rotate(77 289.997 528.619)" fill="#70E9F5"/>
<circle opacity="0.75" cx="121.803" cy="546.918" r="6" transform="rotate(77 121.803 546.918)" fill="#70E9F5"/>
<circle opacity="0.5" cx="219.24" cy="524.423" r="6" transform="rotate(77 219.24 524.423)" fill="#70E9F5"/>
<circle opacity="0.5" cx="250.734" cy="660.84" r="6" transform="rotate(77 250.734 660.84)" fill="#70E9F5"/>
<circle opacity="0.3" cx="285.497" cy="509.126" r="2" transform="rotate(77 285.497 509.126)" fill="#70E9F5"/>
<circle opacity="0.3" cx="316.991" cy="645.543" r="2" transform="rotate(77 316.991 645.543)" fill="#70E9F5"/>
<circle opacity="0.8" cx="57.3248" cy="356.543" r="6" transform="rotate(77 57.3248 356.543)" fill="#70E9F5"/>
<circle opacity="0.55" cx="154.762" cy="334.048" r="6" transform="rotate(77 154.762 334.048)" fill="#70E9F5"/>
<circle opacity="0.35" cx="227.84" cy="317.177" r="3" transform="rotate(77 227.84 317.177)" fill="#70E9F5"/>
<circle opacity="0.8" cx="84.3189" cy="473.468" r="6" transform="rotate(77 84.3189 473.468)" fill="#70E9F5"/>
<circle opacity="0.8" cx="115.814" cy="609.884" r="6" transform="rotate(77 115.814 609.884)" fill="#70E9F5"/>
<circle opacity="0.55" cx="181.756" cy="450.973" r="6" transform="rotate(77 181.756 450.973)" fill="#70E9F5"/>
<circle opacity="0.55" cx="213.251" cy="587.389" r="6" transform="rotate(77 213.251 587.389)" fill="#70E9F5"/>
<circle opacity="0.35" cx="254.834" cy="434.101" r="3" transform="rotate(77 254.834 434.101)" fill="#70E9F5"/>
<circle opacity="0.35" cx="286.328" cy="570.518" r="3" transform="rotate(77 286.328 570.518)" fill="#70E9F5"/>
<circle opacity="0.8" cx="70.8218" cy="415.005" r="6" transform="rotate(77 70.8218 415.005)" fill="#70E9F5"/>
<circle opacity="0.55" cx="168.259" cy="392.51" r="6" transform="rotate(77 168.259 392.51)" fill="#70E9F5"/>
<circle opacity="0.35" cx="241.337" cy="375.639" r="3" transform="rotate(77 241.337 375.639)" fill="#70E9F5"/>
<circle opacity="0.8" cx="97.816" cy="531.93" r="6" transform="rotate(77 97.816 531.93)" fill="#70E9F5"/>
<circle opacity="0.8" cx="129.311" cy="668.346" r="6" transform="rotate(77 129.311 668.346)" fill="#70E9F5"/>
<circle opacity="0.55" cx="195.253" cy="509.435" r="6" transform="rotate(77 195.253 509.435)" fill="#70E9F5"/>
<circle opacity="0.55" cx="226.748" cy="645.851" r="6" transform="rotate(77 226.748 645.851)" fill="#70E9F5"/>
<circle opacity="0.35" cx="268.331" cy="492.563" r="3" transform="rotate(77 268.331 492.563)" fill="#70E9F5"/>
<circle opacity="0.35" cx="299.825" cy="628.98" r="3" transform="rotate(77 299.825 628.98)" fill="#70E9F5"/>
<circle opacity="0.8" cx="61.8238" cy="376.031" r="6" transform="rotate(77 61.8238 376.031)" fill="#70E9F5"/>
<circle opacity="0.55" cx="159.261" cy="353.536" r="6" transform="rotate(77 159.261 353.536)" fill="#70E9F5"/>
<circle opacity="0.35" cx="232.339" cy="336.664" r="3" transform="rotate(77 232.339 336.664)" fill="#70E9F5"/>
<circle opacity="0.8" cx="88.8179" cy="492.955" r="6" transform="rotate(77 88.8179 492.955)" fill="#70E9F5"/>
<circle opacity="0.8" cx="120.313" cy="629.371" r="6" transform="rotate(77 120.313 629.371)" fill="#70E9F5"/>
<circle opacity="0.55" cx="186.255" cy="470.46" r="6" transform="rotate(77 186.255 470.46)" fill="#70E9F5"/>
<circle opacity="0.55" cx="217.75" cy="606.876" r="6" transform="rotate(77 217.75 606.876)" fill="#70E9F5"/>
<circle opacity="0.35" cx="259.333" cy="453.588" r="3" transform="rotate(77 259.333 453.588)" fill="#70E9F5"/>
<circle opacity="0.35" cx="290.827" cy="590.005" r="3" transform="rotate(77 290.827 590.005)" fill="#70E9F5"/>
<circle opacity="0.8" cx="75.3209" cy="434.493" r="6" transform="rotate(77 75.3209 434.493)" fill="#70E9F5"/>
<circle opacity="0.8" cx="106.815" cy="570.909" r="6" transform="rotate(77 106.815 570.909)" fill="#70E9F5"/>
<circle opacity="0.55" cx="172.758" cy="411.998" r="6" transform="rotate(77 172.758 411.998)" fill="#70E9F5"/>
<circle opacity="0.55" cx="204.253" cy="548.414" r="6" transform="rotate(77 204.253 548.414)" fill="#70E9F5"/>
<circle opacity="0.35" cx="245.836" cy="395.126" r="3" transform="rotate(77 245.836 395.126)" fill="#70E9F5"/>
<circle opacity="0.35" cx="277.33" cy="531.543" r="3" transform="rotate(77 277.33 531.543)" fill="#70E9F5"/>
<circle opacity="0.8" cx="102.315" cy="551.417" r="6" transform="rotate(77 102.315 551.417)" fill="#70E9F5"/>
<circle opacity="0.55" cx="199.752" cy="528.922" r="6" transform="rotate(77 199.752 528.922)" fill="#70E9F5"/>
<circle opacity="0.55" cx="231.247" cy="665.339" r="6" transform="rotate(77 231.247 665.339)" fill="#70E9F5"/>
<circle opacity="0.35" cx="272.83" cy="512.051" r="3" transform="rotate(77 272.83 512.051)" fill="#70E9F5"/>
<circle opacity="0.35" cx="304.324" cy="648.467" r="3" transform="rotate(77 304.324 648.467)" fill="#70E9F5"/>
<circle opacity="0.85" cx="37.8375" cy="361.042" r="6" transform="rotate(77 37.8375 361.042)" fill="#70E9F5"/>
<circle opacity="0.6" cx="135.274" cy="338.547" r="6" transform="rotate(77 135.274 338.547)" fill="#70E9F5"/>
<circle opacity="0.4" cx="212.25" cy="320.776" r="5" transform="rotate(77 212.25 320.776)" fill="#70E9F5"/>
<circle opacity="0.85" cx="64.8316" cy="477.967" r="6" transform="rotate(77 64.8316 477.967)" fill="#70E9F5"/>
<circle opacity="0.85" cx="96.3258" cy="614.383" r="6" transform="rotate(77 96.3258 614.383)" fill="#70E9F5"/>
<circle opacity="0.6" cx="162.269" cy="455.472" r="6" transform="rotate(77 162.269 455.472)" fill="#70E9F5"/>
<circle opacity="0.6" cx="193.763" cy="591.888" r="6" transform="rotate(77 193.763 591.888)" fill="#70E9F5"/>
<circle opacity="0.4" cx="239.244" cy="437.7" r="5" transform="rotate(77 239.244 437.7)" fill="#70E9F5"/>
<circle opacity="0.4" cx="270.738" cy="574.117" r="5" transform="rotate(77 270.738 574.117)" fill="#70E9F5"/>
<circle opacity="0.85" cx="51.3345" cy="419.504" r="6" transform="rotate(77 51.3345 419.504)" fill="#70E9F5"/>
<circle opacity="0.6" cx="148.772" cy="397.009" r="6" transform="rotate(77 148.772 397.009)" fill="#70E9F5"/>
<circle opacity="0.4" cx="225.747" cy="379.238" r="5" transform="rotate(77 225.747 379.238)" fill="#70E9F5"/>
<circle opacity="0.85" cx="78.3287" cy="536.429" r="6" transform="rotate(77 78.3287 536.429)" fill="#70E9F5"/>
<circle opacity="0.85" cx="109.823" cy="672.845" r="6" transform="rotate(77 109.823 672.845)" fill="#70E9F5"/>
<circle opacity="0.6" cx="175.766" cy="513.934" r="6" transform="rotate(77 175.766 513.934)" fill="#70E9F5"/>
<circle opacity="0.6" cx="207.26" cy="650.35" r="6" transform="rotate(77 207.26 650.35)" fill="#70E9F5"/>
<circle opacity="0.4" cx="252.741" cy="496.163" r="5" transform="rotate(77 252.741 496.163)" fill="#70E9F5"/>
<circle opacity="0.4" cx="284.235" cy="632.579" r="5" transform="rotate(77 284.235 632.579)" fill="#70E9F5"/>
<circle opacity="0.95" cx="-1.13714" cy="370.04" r="6" transform="rotate(77 -1.13714 370.04)" fill="#70E9F5"/>
<circle opacity="0.7" cx="96.2999" cy="347.545" r="6" transform="rotate(77 96.2999 347.545)" fill="#70E9F5"/>
<circle opacity="0.95" cx="25.857" cy="486.965" r="6" transform="rotate(77 25.857 486.965)" fill="#70E9F5"/>
<circle opacity="0.95" cx="57.3511" cy="623.381" r="6" transform="rotate(77 57.3511 623.381)" fill="#70E9F5"/>
<circle opacity="0.7" cx="123.294" cy="464.47" r="6" transform="rotate(77 123.294 464.47)" fill="#70E9F5"/>
<circle opacity="0.7" cx="154.788" cy="600.886" r="6" transform="rotate(77 154.788 600.886)" fill="#70E9F5"/>
<circle opacity="0.95" cx="12.3599" cy="428.502" r="6" transform="rotate(77 12.3599 428.502)" fill="#70E9F5"/>
<circle opacity="0.7" cx="109.797" cy="406.007" r="6" transform="rotate(77 109.797 406.007)" fill="#70E9F5"/>
<circle opacity="0.95" cx="39.3541" cy="545.427" r="6" transform="rotate(77 39.3541 545.427)" fill="#70E9F5"/>
<circle opacity="0.7" cx="136.791" cy="522.932" r="6" transform="rotate(77 136.791 522.932)" fill="#70E9F5"/>
<circle opacity="0.7" cx="168.285" cy="659.348" r="6" transform="rotate(77 168.285 659.348)" fill="#70E9F5"/>
<circle cx="18.3765" cy="632.379" r="6" transform="rotate(77 18.3765 632.379)" fill="#70E9F5"/>
<circle cx="0.378974" cy="554.425" r="6" transform="rotate(77 0.378974 554.425)" fill="#70E9F5"/>
<circle opacity="0.85" cx="42.3365" cy="380.53" r="6" transform="rotate(77 42.3365 380.53)" fill="#70E9F5"/>
<circle opacity="0.6" cx="139.773" cy="358.035" r="6" transform="rotate(77 139.773 358.035)" fill="#70E9F5"/>
<circle opacity="0.4" cx="216.749" cy="340.263" r="5" transform="rotate(77 216.749 340.263)" fill="#70E9F5"/>
<circle opacity="0.85" cx="69.3306" cy="497.454" r="6" transform="rotate(77 69.3306 497.454)" fill="#70E9F5"/>
<circle opacity="0.85" cx="100.825" cy="633.87" r="6" transform="rotate(77 100.825 633.87)" fill="#70E9F5"/>
<circle opacity="0.6" cx="166.768" cy="474.959" r="6" transform="rotate(77 166.768 474.959)" fill="#70E9F5"/>
<circle opacity="0.6" cx="198.262" cy="611.375" r="6" transform="rotate(77 198.262 611.375)" fill="#70E9F5"/>
<circle opacity="0.4" cx="243.743" cy="457.188" r="5" transform="rotate(77 243.743 457.188)" fill="#70E9F5"/>
<circle opacity="0.4" cx="275.237" cy="593.604" r="5" transform="rotate(77 275.237 593.604)" fill="#70E9F5"/>
<circle opacity="0.85" cx="55.8336" cy="438.992" r="6" transform="rotate(77 55.8336 438.992)" fill="#70E9F5"/>
<circle opacity="0.85" cx="87.3277" cy="575.408" r="6" transform="rotate(77 87.3277 575.408)" fill="#70E9F5"/>
<circle opacity="0.6" cx="153.271" cy="416.497" r="6" transform="rotate(77 153.271 416.497)" fill="#70E9F5"/>
<circle opacity="0.6" cx="184.765" cy="552.913" r="6" transform="rotate(77 184.765 552.913)" fill="#70E9F5"/>
<circle opacity="0.4" cx="230.246" cy="398.726" r="5" transform="rotate(77 230.246 398.726)" fill="#70E9F5"/>
<circle opacity="0.4" cx="261.74" cy="535.142" r="5" transform="rotate(77 261.74 535.142)" fill="#70E9F5"/>
<circle opacity="0.85" cx="82.8277" cy="555.916" r="6" transform="rotate(77 82.8277 555.916)" fill="#70E9F5"/>
<circle opacity="0.6" cx="180.265" cy="533.421" r="6" transform="rotate(77 180.265 533.421)" fill="#70E9F5"/>
<circle opacity="0.6" cx="211.759" cy="669.838" r="6" transform="rotate(77 211.759 669.838)" fill="#70E9F5"/>
<circle opacity="0.4" cx="257.24" cy="515.65" r="5" transform="rotate(77 257.24 515.65)" fill="#70E9F5"/>
<circle opacity="0.4" cx="288.734" cy="652.066" r="5" transform="rotate(77 288.734 652.066)" fill="#70E9F5"/>
<circle opacity="0.95" cx="3.36188" cy="389.528" r="6" transform="rotate(77 3.36188 389.528)" fill="#70E9F5"/>
<circle opacity="0.7" cx="100.799" cy="367.033" r="6" transform="rotate(77 100.799 367.033)" fill="#70E9F5"/>
<circle opacity="0.95" cx="30.356" cy="506.452" r="6" transform="rotate(77 30.356 506.452)" fill="#70E9F5"/>
<circle opacity="0.95" cx="61.8502" cy="642.869" r="6" transform="rotate(77 61.8502 642.869)" fill="#70E9F5"/>
<circle opacity="0.7" cx="127.793" cy="483.957" r="6" transform="rotate(77 127.793 483.957)" fill="#70E9F5"/>
<circle opacity="0.7" cx="159.287" cy="620.373" r="6" transform="rotate(77 159.287 620.373)" fill="#70E9F5"/>
<circle opacity="0.95" cx="16.859" cy="447.99" r="6" transform="rotate(77 16.859 447.99)" fill="#70E9F5"/>
<circle opacity="0.95" cx="48.3531" cy="584.406" r="6" transform="rotate(77 48.3531 584.406)" fill="#70E9F5"/>
<circle opacity="0.7" cx="114.296" cy="425.495" r="6" transform="rotate(77 114.296 425.495)" fill="#70E9F5"/>
<circle opacity="0.7" cx="145.79" cy="561.911" r="6" transform="rotate(77 145.79 561.911)" fill="#70E9F5"/>
<circle opacity="0.95" cx="43.8531" cy="564.914" r="6" transform="rotate(77 43.8531 564.914)" fill="#70E9F5"/>
<circle opacity="0.7" cx="141.29" cy="542.419" r="6" transform="rotate(77 141.29 542.419)" fill="#70E9F5"/>
<circle opacity="0.7" cx="172.784" cy="678.836" r="6" transform="rotate(77 172.784 678.836)" fill="#70E9F5"/>
<circle cx="22.8756" cy="651.867" r="6" transform="rotate(77 22.8756 651.867)" fill="#70E9F5"/>
<circle cx="9.37849" cy="593.404" r="6" transform="rotate(77 9.37849 593.404)" fill="#70E9F5"/>
<circle cx="4.878" cy="573.912" r="6" transform="rotate(77 4.878 573.912)" fill="#70E9F5"/>
<circle opacity="0.9" cx="18.3502" cy="365.541" r="6" transform="rotate(77 18.3502 365.541)" fill="#70E9F5"/>
<circle opacity="0.65" cx="115.787" cy="343.046" r="6" transform="rotate(77 115.787 343.046)" fill="#70E9F5"/>
<circle opacity="0.45" cx="193.737" cy="325.05" r="6" transform="rotate(77 193.737 325.05)" fill="#70E9F5"/>
<circle opacity="0.9" cx="45.3443" cy="482.466" r="6" transform="rotate(77 45.3443 482.466)" fill="#70E9F5"/>
<circle opacity="0.9" cx="76.8384" cy="618.882" r="6" transform="rotate(77 76.8384 618.882)" fill="#70E9F5"/>
<circle opacity="0.65" cx="142.781" cy="459.971" r="6" transform="rotate(77 142.781 459.971)" fill="#70E9F5"/>
<circle opacity="0.65" cx="174.275" cy="596.387" r="6" transform="rotate(77 174.275 596.387)" fill="#70E9F5"/>
<circle opacity="0.45" cx="220.731" cy="441.974" r="6" transform="rotate(77 220.731 441.974)" fill="#70E9F5"/>
<circle opacity="0.45" cx="252.225" cy="578.391" r="6" transform="rotate(77 252.225 578.391)" fill="#70E9F5"/>
<circle opacity="0.9" cx="31.8472" cy="424.003" r="6" transform="rotate(77 31.8472 424.003)" fill="#70E9F5"/>
<circle opacity="0.65" cx="129.284" cy="401.508" r="6" transform="rotate(77 129.284 401.508)" fill="#70E9F5"/>
<circle opacity="0.45" cx="207.234" cy="383.512" r="6" transform="rotate(77 207.234 383.512)" fill="#70E9F5"/>
<circle opacity="0.9" cx="58.8414" cy="540.928" r="6" transform="rotate(77 58.8414 540.928)" fill="#70E9F5"/>
<circle opacity="0.9" cx="90.3355" cy="677.344" r="6" transform="rotate(77 90.3355 677.344)" fill="#70E9F5"/>
<circle opacity="0.65" cx="156.278" cy="518.433" r="6" transform="rotate(77 156.278 518.433)" fill="#70E9F5"/>
<circle opacity="0.65" cx="187.773" cy="654.849" r="6" transform="rotate(77 187.773 654.849)" fill="#70E9F5"/>
<circle opacity="0.45" cx="234.228" cy="500.437" r="6" transform="rotate(77 234.228 500.437)" fill="#70E9F5"/>
<circle opacity="0.45" cx="265.722" cy="636.853" r="6" transform="rotate(77 265.722 636.853)" fill="#70E9F5"/>
<circle cx="6.3697" cy="491.464" r="6" transform="rotate(77 6.3697 491.464)" fill="#70E9F5"/>
<circle cx="37.8638" cy="627.88" r="6" transform="rotate(77 37.8638 627.88)" fill="#70E9F5"/>
<circle cx="-7.12737" cy="433.001" r="6" transform="rotate(77 -7.12737 433.001)" fill="#70E9F5"/>
<circle cx="19.8668" cy="549.926" r="6" transform="rotate(77 19.8668 549.926)" fill="#70E9F5"/>
<circle cx="-1.11126" cy="636.878" r="6" transform="rotate(77 -1.11126 636.878)" fill="#70E9F5"/>
<circle opacity="0.9" cx="22.8492" cy="385.029" r="6" transform="rotate(77 22.8492 385.029)" fill="#70E9F5"/>
<circle opacity="0.65" cx="120.286" cy="362.534" r="6" transform="rotate(77 120.286 362.534)" fill="#70E9F5"/>
<circle opacity="0.45" cx="198.236" cy="344.537" r="6" transform="rotate(77 198.236 344.537)" fill="#70E9F5"/>
<circle opacity="0.9" cx="49.8433" cy="501.953" r="6" transform="rotate(77 49.8433 501.953)" fill="#70E9F5"/>
<circle opacity="0.9" cx="81.3375" cy="638.37" r="6" transform="rotate(77 81.3375 638.37)" fill="#70E9F5"/>
<circle opacity="0.65" cx="147.28" cy="479.458" r="6" transform="rotate(77 147.28 479.458)" fill="#70E9F5"/>
<circle opacity="0.65" cx="178.774" cy="615.874" r="6" transform="rotate(77 178.774 615.874)" fill="#70E9F5"/>
<circle opacity="0.45" cx="225.23" cy="461.462" r="6" transform="rotate(77 225.23 461.462)" fill="#70E9F5"/>
<circle opacity="0.45" cx="256.724" cy="597.878" r="6" transform="rotate(77 256.724 597.878)" fill="#70E9F5"/>
<circle opacity="0.9" cx="36.3463" cy="443.491" r="6" transform="rotate(77 36.3463 443.491)" fill="#70E9F5"/>
<circle opacity="0.9" cx="67.8404" cy="579.907" r="6" transform="rotate(77 67.8404 579.907)" fill="#70E9F5"/>
<circle opacity="0.65" cx="133.783" cy="420.996" r="6" transform="rotate(77 133.783 420.996)" fill="#70E9F5"/>
<circle opacity="0.65" cx="165.277" cy="557.412" r="6" transform="rotate(77 165.277 557.412)" fill="#70E9F5"/>
<circle opacity="0.45" cx="211.733" cy="403" r="6" transform="rotate(77 211.733 403)" fill="#70E9F5"/>
<circle opacity="0.45" cx="243.227" cy="539.416" r="6" transform="rotate(77 243.227 539.416)" fill="#70E9F5"/>
<circle opacity="0.9" cx="63.3404" cy="560.415" r="6" transform="rotate(77 63.3404 560.415)" fill="#70E9F5"/>
<circle opacity="0.65" cx="160.777" cy="537.92" r="6" transform="rotate(77 160.777 537.92)" fill="#70E9F5"/>
<circle opacity="0.65" cx="192.272" cy="674.337" r="6" transform="rotate(77 192.272 674.337)" fill="#70E9F5"/>
<circle opacity="0.45" cx="238.727" cy="519.924" r="6" transform="rotate(77 238.727 519.924)" fill="#70E9F5"/>
<circle opacity="0.45" cx="270.221" cy="656.341" r="6" transform="rotate(77 270.221 656.341)" fill="#70E9F5"/>
<circle cx="10.8687" cy="510.951" r="6" transform="rotate(77 10.8687 510.951)" fill="#70E9F5"/>
<circle cx="42.3629" cy="647.368" r="6" transform="rotate(77 42.3629 647.368)" fill="#70E9F5"/>
<circle cx="-2.62835" cy="452.489" r="6" transform="rotate(77 -2.62835 452.489)" fill="#70E9F5"/>
<circle cx="28.8658" cy="588.905" r="6" transform="rotate(77 28.8658 588.905)" fill="#70E9F5"/>
<circle cx="24.3658" cy="569.413" r="6" transform="rotate(77 24.3658 569.413)" fill="#70E9F5"/>
<circle cx="3.38776" cy="656.366" r="6" transform="rotate(77 3.38776 656.366)" fill="#70E9F5"/>
<circle opacity="0.8" cx="52.8258" cy="337.056" r="6" transform="rotate(77 52.8258 337.056)" fill="#70E9F5"/>
<circle opacity="0.55" cx="150.263" cy="314.561" r="6" transform="rotate(77 150.263 314.561)" fill="#70E9F5"/>
<circle opacity="0.35" cx="223.341" cy="297.689" r="3" transform="rotate(77 223.341 297.689)" fill="#70E9F5"/>
<circle opacity="0.8" cx="79.8199" cy="453.98" r="6" transform="rotate(77 79.8199 453.98)" fill="#70E9F5"/>
<circle opacity="0.8" cx="111.315" cy="590.397" r="6" transform="rotate(77 111.315 590.397)" fill="#70E9F5"/>
<circle opacity="0.55" cx="177.257" cy="431.485" r="6" transform="rotate(77 177.257 431.485)" fill="#70E9F5"/>
<circle opacity="0.55" cx="208.752" cy="567.902" r="6" transform="rotate(77 208.752 567.902)" fill="#70E9F5"/>
<circle opacity="0.35" cx="250.335" cy="414.614" r="3" transform="rotate(77 250.335 414.614)" fill="#70E9F5"/>
<circle opacity="0.35" cx="281.829" cy="551.03" r="3" transform="rotate(77 281.829 551.03)" fill="#70E9F5"/>
<circle opacity="0.8" cx="66.3228" cy="395.518" r="6" transform="rotate(77 66.3228 395.518)" fill="#70E9F5"/>
<circle opacity="0.55" cx="163.76" cy="373.023" r="6" transform="rotate(77 163.76 373.023)" fill="#70E9F5"/>
<circle opacity="0.35" cx="236.838" cy="356.151" r="3" transform="rotate(77 236.838 356.151)" fill="#70E9F5"/>
<circle opacity="0.8" cx="93.317" cy="512.442" r="6" transform="rotate(77 93.317 512.442)" fill="#70E9F5"/>
<circle opacity="0.8" cx="124.812" cy="648.859" r="6" transform="rotate(77 124.812 648.859)" fill="#70E9F5"/>
<circle opacity="0.55" cx="190.754" cy="489.947" r="6" transform="rotate(77 190.754 489.947)" fill="#70E9F5"/>
<circle opacity="0.55" cx="222.249" cy="626.364" r="6" transform="rotate(77 222.249 626.364)" fill="#70E9F5"/>
<circle opacity="0.35" cx="263.832" cy="473.076" r="3" transform="rotate(77 263.832 473.076)" fill="#70E9F5"/>
<circle opacity="0.35" cx="295.326" cy="609.492" r="3" transform="rotate(77 295.326 609.492)" fill="#70E9F5"/>
<circle opacity="0.85" cx="33.3384" cy="341.555" r="6" transform="rotate(77 33.3384 341.555)" fill="#70E9F5"/>
<circle opacity="0.6" cx="130.775" cy="319.06" r="6" transform="rotate(77 130.775 319.06)" fill="#70E9F5"/>
<circle opacity="0.4" cx="207.751" cy="301.289" r="5" transform="rotate(77 207.751 301.289)" fill="#70E9F5"/>
<circle opacity="0.85" cx="60.3326" cy="458.479" r="6" transform="rotate(77 60.3326 458.479)" fill="#70E9F5"/>
<circle opacity="0.85" cx="91.8267" cy="594.896" r="6" transform="rotate(77 91.8267 594.896)" fill="#70E9F5"/>
<circle opacity="0.6" cx="157.77" cy="435.984" r="6" transform="rotate(77 157.77 435.984)" fill="#70E9F5"/>
<circle opacity="0.6" cx="189.264" cy="572.401" r="6" transform="rotate(77 189.264 572.401)" fill="#70E9F5"/>
<circle opacity="0.4" cx="234.745" cy="418.213" r="5" transform="rotate(77 234.745 418.213)" fill="#70E9F5"/>
<circle opacity="0.4" cx="266.239" cy="554.629" r="5" transform="rotate(77 266.239 554.629)" fill="#70E9F5"/>
<circle opacity="0.85" cx="46.8355" cy="400.017" r="6" transform="rotate(77 46.8355 400.017)" fill="#70E9F5"/>
<circle opacity="0.6" cx="144.273" cy="377.522" r="6" transform="rotate(77 144.273 377.522)" fill="#70E9F5"/>
<circle opacity="0.4" cx="221.248" cy="359.751" r="5" transform="rotate(77 221.248 359.751)" fill="#70E9F5"/>
<circle opacity="0.85" cx="73.8297" cy="516.941" r="6" transform="rotate(77 73.8297 516.941)" fill="#70E9F5"/>
<circle opacity="0.85" cx="105.324" cy="653.358" r="6" transform="rotate(77 105.324 653.358)" fill="#70E9F5"/>
<circle opacity="0.6" cx="171.267" cy="494.446" r="6" transform="rotate(77 171.267 494.446)" fill="#70E9F5"/>
<circle opacity="0.6" cx="202.761" cy="630.863" r="6" transform="rotate(77 202.761 630.863)" fill="#70E9F5"/>
<circle opacity="0.4" cx="248.242" cy="476.675" r="5" transform="rotate(77 248.242 476.675)" fill="#70E9F5"/>
<circle opacity="0.4" cx="279.736" cy="613.092" r="5" transform="rotate(77 279.736 613.092)" fill="#70E9F5"/>
<circle opacity="0.95" cx="-5.63616" cy="350.553" r="6" transform="rotate(77 -5.63616 350.553)" fill="#70E9F5"/>
<circle opacity="0.7" cx="91.8008" cy="328.058" r="6" transform="rotate(77 91.8008 328.058)" fill="#70E9F5"/>
<circle opacity="0.95" cx="21.358" cy="467.477" r="6" transform="rotate(77 21.358 467.477)" fill="#70E9F5"/>
<circle opacity="0.95" cx="52.8521" cy="603.894" r="6" transform="rotate(77 52.8521 603.894)" fill="#70E9F5"/>
<circle opacity="0.7" cx="118.795" cy="444.982" r="6" transform="rotate(77 118.795 444.982)" fill="#70E9F5"/>
<circle opacity="0.7" cx="150.289" cy="581.399" r="6" transform="rotate(77 150.289 581.399)" fill="#70E9F5"/>
<circle opacity="0.95" cx="7.86091" cy="409.015" r="6" transform="rotate(77 7.86091 409.015)" fill="#70E9F5"/>
<circle opacity="0.7" cx="105.298" cy="386.52" r="6" transform="rotate(77 105.298 386.52)" fill="#70E9F5"/>
<circle opacity="0.95" cx="34.855" cy="525.939" r="6" transform="rotate(77 34.855 525.939)" fill="#70E9F5"/>
<circle opacity="0.95" cx="66.3492" cy="662.356" r="6" transform="rotate(77 66.3492 662.356)" fill="#70E9F5"/>
<circle opacity="0.7" cx="132.292" cy="503.444" r="6" transform="rotate(77 132.292 503.444)" fill="#70E9F5"/>
<circle opacity="0.7" cx="163.786" cy="639.861" r="6" transform="rotate(77 163.786 639.861)" fill="#70E9F5"/>
<circle cx="13.8775" cy="612.892" r="6" transform="rotate(77 13.8775 612.892)" fill="#70E9F5"/>
<circle cx="-4.12005" cy="534.937" r="6" transform="rotate(77 -4.12005 534.937)" fill="#70E9F5"/>
<circle cx="27.3746" cy="671.354" r="6" transform="rotate(77 27.3746 671.354)" fill="#70E9F5"/>
<circle opacity="0.9" cx="13.8511" cy="346.054" r="6" transform="rotate(77 13.8511 346.054)" fill="#70E9F5"/>
<circle opacity="0.65" cx="111.288" cy="323.559" r="6" transform="rotate(77 111.288 323.559)" fill="#70E9F5"/>
<circle opacity="0.45" cx="189.238" cy="305.563" r="6" transform="rotate(77 189.238 305.563)" fill="#70E9F5"/>
<circle opacity="0.9" cx="40.8453" cy="462.978" r="6" transform="rotate(77 40.8453 462.978)" fill="#70E9F5"/>
<circle opacity="0.9" cx="72.3394" cy="599.395" r="6" transform="rotate(77 72.3394 599.395)" fill="#70E9F5"/>
<circle opacity="0.65" cx="138.282" cy="440.483" r="6" transform="rotate(77 138.282 440.483)" fill="#70E9F5"/>
<circle opacity="0.65" cx="169.776" cy="576.9" r="6" transform="rotate(77 169.776 576.9)" fill="#70E9F5"/>
<circle opacity="0.45" cx="216.232" cy="422.487" r="6" transform="rotate(77 216.232 422.487)" fill="#70E9F5"/>
<circle opacity="0.45" cx="247.726" cy="558.904" r="6" transform="rotate(77 247.726 558.904)" fill="#70E9F5"/>
<circle opacity="0.9" cx="27.3482" cy="404.516" r="6" transform="rotate(77 27.3482 404.516)" fill="#70E9F5"/>
<circle opacity="0.65" cx="124.785" cy="382.021" r="6" transform="rotate(77 124.785 382.021)" fill="#70E9F5"/>
<circle opacity="0.45" cx="202.735" cy="364.025" r="6" transform="rotate(77 202.735 364.025)" fill="#70E9F5"/>
<circle opacity="0.9" cx="54.3424" cy="521.44" r="6" transform="rotate(77 54.3424 521.44)" fill="#70E9F5"/>
<circle opacity="0.9" cx="85.8365" cy="657.857" r="6" transform="rotate(77 85.8365 657.857)" fill="#70E9F5"/>
<circle opacity="0.65" cx="151.779" cy="498.945" r="6" transform="rotate(77 151.779 498.945)" fill="#70E9F5"/>
<circle opacity="0.65" cx="183.273" cy="635.362" r="6" transform="rotate(77 183.273 635.362)" fill="#70E9F5"/>
<circle opacity="0.45" cx="229.729" cy="480.949" r="6" transform="rotate(77 229.729 480.949)" fill="#70E9F5"/>
<circle opacity="0.45" cx="261.223" cy="617.366" r="6" transform="rotate(77 261.223 617.366)" fill="#70E9F5"/>
<circle cx="1.87067" cy="471.976" r="6" transform="rotate(77 1.87067 471.976)" fill="#70E9F5"/>
<circle cx="33.3648" cy="608.393" r="6" transform="rotate(77 33.3648 608.393)" fill="#70E9F5"/>
<circle cx="15.3677" cy="530.438" r="6" transform="rotate(77 15.3677 530.438)" fill="#70E9F5"/>
<circle cx="46.8619" cy="666.855" r="6" transform="rotate(77 46.8619 666.855)" fill="#70E9F5"/>
<circle cx="-5.61028" cy="617.391" r="6" transform="rotate(77 -5.61028 617.391)" fill="#70E9F5"/>
<circle cx="7.88679" cy="675.853" r="6" transform="rotate(77 7.88679 675.853)" fill="#70E9F5"/>
</g>
</g>
</g>
<defs>
<linearGradient id="paint0_linear_228_476484" x1="312.5" y1="0" x2="312.5" y2="720" gradientUnits="userSpaceOnUse">
<stop stop-color="#FFB3ED"/>
<stop offset="1" stop-color="white"/>
</linearGradient>
<linearGradient id="paint1_linear_228_476484" x1="312.5" y1="0" x2="312.5" y2="720" gradientUnits="userSpaceOnUse">
<stop stop-color="#97F6FF"/>
<stop offset="1" stop-color="white"/>
</linearGradient>
<clipPath id="clip0_228_476484">
<rect width="1280" height="674" fill="white"/>
</clipPath>
<clipPath id="clip1_228_476484">
<rect width="625" height="720" fill="white" transform="translate(962.167 34.7236) rotate(28)"/>
</clipPath>
<clipPath id="clip2_228_476484">
<rect width="625" height="720" fill="white" transform="translate(-192.423 140.889) rotate(-13)"/>
</clipPath>
</defs>
</svg>
