<svg width="610" height="610" viewBox="0 0 610 610" fill="none" xmlns="http://www.w3.org/2000/svg">
<path d="M349.315 540.482C364.452 537.592 379.581 533.182 394.526 527.144L420.748 592.047C401.552 599.802 382.035 605.498 362.443 609.239L349.315 540.482ZM474.631 563.912C457.939 574.831 439.944 584.291 420.748 592.047L394.526 527.144C409.47 521.106 423.417 513.768 436.313 505.332L474.631 563.912ZM169.473 502.99C195.553 520.713 224.94 533.187 255.805 539.636L248.646 573.896L248.647 573.896L241.488 608.155C201.666 599.834 163.777 583.751 130.129 560.886L169.473 502.99ZM608.155 367.751C599.834 407.573 583.751 445.462 560.886 479.11L502.99 439.767C520.713 413.687 533.187 384.3 539.636 353.434L608.155 367.751ZM17.193 420.748C9.43733 401.552 3.74091 382.035 0 362.443L68.7578 349.315C71.6479 364.451 76.0579 379.581 82.0958 394.525C88.1337 409.469 95.4713 423.416 103.907 436.312L45.327 474.631C34.4081 457.939 24.9485 439.943 17.193 420.748ZM592.047 188.492C599.802 207.687 605.498 227.204 609.239 246.796L540.482 259.925C537.592 244.788 533.182 229.658 527.144 214.714C521.106 199.77 513.769 185.823 505.333 172.927L563.912 134.608C574.831 151.3 584.291 169.296 592.047 188.492ZM106.25 169.472C88.5266 195.553 76.0527 224.939 69.6035 255.805L1.08393 241.488C9.40449 201.666 25.4875 163.777 48.353 130.129L106.25 169.472ZM367.751 1.08393C407.573 9.40441 445.462 25.4875 479.11 48.353L459.44 77.3012L459.438 77.3006L439.767 106.249C413.687 88.5262 384.3 76.0523 353.435 69.6031L367.751 1.08393ZM188.492 17.1926C207.687 9.43708 227.204 3.74092 246.796 0L253.362 34.3788L253.36 34.3782L259.925 68.7574C244.788 71.6476 229.659 76.0576 214.714 82.0955C199.77 88.1333 185.823 95.4709 172.927 103.907L134.608 45.327C151.3 34.4079 169.296 24.9482 188.492 17.1926Z" fill="#70E9F5" fill-opacity="0.2"/>
</svg>
