<svg width="1028" height="1028" viewBox="0 0 1028 1028" fill="none" xmlns="http://www.w3.org/2000/svg">
<path d="M568.072 924.501L581.007 1023.66C559.032 1026.53 536.663 1028 514 1028C491.337 1028 468.968 1026.53 446.993 1023.66L459.928 924.501V924.498C477.625 926.807 495.673 928 514 928C532.326 928 550.374 926.806 568.071 924.498L568.072 924.501ZM185.533 766.035C207.573 794.715 233.284 820.426 261.964 842.466V842.468L201.03 921.76C165.459 894.424 133.576 862.541 106.24 826.97L185.532 766.037L185.533 766.035ZM842.468 766.037L921.76 826.97C894.424 862.541 862.541 894.424 826.97 921.76L766.037 842.468L766.035 842.466C794.715 820.426 820.426 794.715 842.466 766.035L842.468 766.037ZM100 514C100 532.326 101.193 550.374 103.501 568.071L103.499 568.072L4.33887 581.007C1.47244 559.032 0 536.663 0 514C0 491.337 1.47245 468.968 4.33887 446.993L103.499 459.928H103.501C101.193 477.625 100 495.673 100 514ZM928 514C928 495.673 926.807 477.625 924.498 459.928H924.501L1023.66 446.993C1026.53 468.968 1028 491.337 1028 514C1028 536.663 1026.53 559.032 1023.66 581.007L924.501 568.072L924.498 568.071C926.806 550.374 928 532.326 928 514ZM261.964 185.532C233.284 207.572 207.573 233.284 185.533 261.964L106.24 201.03C133.576 165.459 165.459 133.576 201.03 106.24L261.964 185.532ZM826.97 106.24C862.541 133.576 894.424 165.459 921.76 201.03L842.468 261.964H842.466C820.426 233.284 794.715 207.573 766.035 185.533L766.037 185.532L826.97 106.24ZM514 0C536.663 0 559.032 1.47245 581.007 4.33887L568.072 103.499L568.071 103.501C550.374 101.193 532.326 100 514 100C495.673 100 477.625 101.193 459.928 103.501V103.499L446.993 4.33887C468.968 1.47244 491.337 0 514 0Z" fill="#16EBFF" fill-opacity="0.2"/>
</svg>
