<svg width="400" height="361" viewBox="0 0 400 361" fill="none" xmlns="http://www.w3.org/2000/svg">
<g clip-path="url(#clip0_285_582931)">
<g clip-path="url(#clip1_285_582931)">
<rect width="625" height="720" transform="translate(383.02) rotate(28)" fill="url(#paint0_linear_285_582931)"/>
<g opacity="0.3">
<circle opacity="0.75" cx="354.54" cy="337.006" r="4.5" transform="rotate(-62 354.54 337.006)" fill="#FF9ADC"/>
<circle opacity="0.75" cx="382.708" cy="284.029" r="4.5" transform="rotate(-62 382.708 284.029)" fill="#FF9ADC"/>
<circle opacity="0.75" cx="368.624" cy="310.518" r="4.5" transform="rotate(-62 368.624 310.518)" fill="#FF9ADC"/>
<circle opacity="0.75" cx="340.456" cy="363.495" r="4.5" transform="rotate(-62 340.456 363.495)" fill="#FF9ADC"/>
<circle opacity="0.75" cx="396.792" cy="257.541" r="4.5" transform="rotate(-62 396.792 257.541)" fill="#FF9ADC"/>
<circle opacity="0.5" cx="288.319" cy="301.796" r="4.5" transform="rotate(-62 288.319 301.796)" fill="#FF9ADC"/>
<circle opacity="0.5" cx="260.151" cy="354.773" r="4.5" transform="rotate(-62 260.151 354.773)" fill="#FF9ADC"/>
<circle opacity="0.5" cx="316.487" cy="248.819" r="4.5" transform="rotate(-62 316.487 248.819)" fill="#FF9ADC"/>
<circle opacity="0.5" cx="351.698" cy="182.598" r="4.5" transform="rotate(-62 351.698 182.598)" fill="#FF9ADC"/>
<circle opacity="0.5" cx="302.403" cy="275.307" r="4.5" transform="rotate(-62 302.403 275.307)" fill="#FF9ADC"/>
<circle opacity="0.5" cx="274.235" cy="328.284" r="4.5" transform="rotate(-62 274.235 328.284)" fill="#FF9ADC"/>
<circle opacity="0.5" cx="330.572" cy="222.331" r="4.5" transform="rotate(-62 330.572 222.331)" fill="#FF9ADC"/>
<circle opacity="0.5" cx="386.908" cy="116.377" r="4.5" transform="rotate(-62 386.908 116.377)" fill="#FF9ADC"/>
<circle opacity="0.5" cx="365.782" cy="156.109" r="4.5" transform="rotate(-62 365.782 156.109)" fill="#FF9ADC"/>
<circle opacity="0.3" cx="243.289" cy="277.853" r="1.5" transform="rotate(-62 243.289 277.853)" fill="#FF9ADC"/>
<circle opacity="0.3" cx="215.12" cy="330.829" r="1.5" transform="rotate(-62 215.12 330.829)" fill="#FF9ADC"/>
<circle opacity="0.3" cx="271.457" cy="224.876" r="1.5" transform="rotate(-62 271.457 224.876)" fill="#FF9ADC"/>
<circle opacity="0.3" cx="306.667" cy="158.655" r="1.5" transform="rotate(-62 306.667 158.655)" fill="#FF9ADC"/>
<circle opacity="0.3" cx="363.004" cy="52.7011" r="1.5" transform="rotate(-62 363.004 52.7011)" fill="#FF9ADC"/>
<circle opacity="0.3" cx="201.036" cy="357.318" r="1.5" transform="rotate(-62 201.036 357.318)" fill="#FF9ADC"/>
<circle opacity="0.3" cx="257.373" cy="251.364" r="1.5" transform="rotate(-62 257.373 251.364)" fill="#FF9ADC"/>
<circle opacity="0.3" cx="229.204" cy="304.341" r="1.5" transform="rotate(-62 229.204 304.341)" fill="#FF9ADC"/>
<circle opacity="0.3" cx="285.541" cy="198.387" r="1.5" transform="rotate(-62 285.541 198.387)" fill="#FF9ADC"/>
<circle opacity="0.3" cx="341.878" cy="92.4337" r="1.5" transform="rotate(-62 341.878 92.4337)" fill="#FF9ADC"/>
<circle opacity="0.3" cx="320.752" cy="132.166" r="1.5" transform="rotate(-62 320.752 132.166)" fill="#FF9ADC"/>
<circle opacity="0.3" cx="377.088" cy="26.2125" r="1.5" transform="rotate(-62 377.088 26.2125)" fill="#FF9ADC"/>
<circle opacity="0.75" cx="361.582" cy="323.762" r="4.5" transform="rotate(-62 361.582 323.762)" fill="#FF9ADC"/>
<circle opacity="0.75" cx="389.75" cy="270.785" r="4.5" transform="rotate(-62 389.75 270.785)" fill="#FF9ADC"/>
<circle opacity="0.75" cx="375.666" cy="297.273" r="4.5" transform="rotate(-62 375.666 297.273)" fill="#FF9ADC"/>
<circle opacity="0.75" cx="347.498" cy="350.25" r="4.5" transform="rotate(-62 347.498 350.25)" fill="#FF9ADC"/>
<circle opacity="0.75" cx="403.835" cy="244.297" r="4.5" transform="rotate(-62 403.835 244.297)" fill="#FF9ADC"/>
<circle opacity="0.5" cx="295.361" cy="288.551" r="4.5" transform="rotate(-62 295.361 288.551)" fill="#FF9ADC"/>
<circle opacity="0.5" cx="267.193" cy="341.528" r="4.5" transform="rotate(-62 267.193 341.528)" fill="#FF9ADC"/>
<circle opacity="0.5" cx="323.529" cy="235.575" r="4.5" transform="rotate(-62 323.529 235.575)" fill="#FF9ADC"/>
<circle opacity="0.5" cx="379.866" cy="129.621" r="4.5" transform="rotate(-62 379.866 129.621)" fill="#FF9ADC"/>
<circle opacity="0.5" cx="358.74" cy="169.353" r="4.5" transform="rotate(-62 358.74 169.353)" fill="#FF9ADC"/>
<circle opacity="0.5" cx="309.445" cy="262.063" r="4.5" transform="rotate(-62 309.445 262.063)" fill="#FF9ADC"/>
<circle opacity="0.5" cx="344.656" cy="195.842" r="4.5" transform="rotate(-62 344.656 195.842)" fill="#FF9ADC"/>
<circle opacity="0.5" cx="400.992" cy="89.8884" r="4.5" transform="rotate(-62 400.992 89.8884)" fill="#FF9ADC"/>
<circle opacity="0.5" cx="281.277" cy="315.04" r="4.5" transform="rotate(-62 281.277 315.04)" fill="#FF9ADC"/>
<circle opacity="0.5" cx="337.614" cy="209.086" r="4.5" transform="rotate(-62 337.614 209.086)" fill="#FF9ADC"/>
<circle opacity="0.5" cx="393.95" cy="103.133" r="4.5" transform="rotate(-62 393.95 103.133)" fill="#FF9ADC"/>
<circle opacity="0.5" cx="372.824" cy="142.865" r="4.5" transform="rotate(-62 372.824 142.865)" fill="#FF9ADC"/>
<circle opacity="0.3" cx="250.331" cy="264.609" r="1.5" transform="rotate(-62 250.331 264.609)" fill="#FF9ADC"/>
<circle opacity="0.3" cx="222.162" cy="317.585" r="1.5" transform="rotate(-62 222.162 317.585)" fill="#FF9ADC"/>
<circle opacity="0.3" cx="278.499" cy="211.632" r="1.5" transform="rotate(-62 278.499 211.632)" fill="#FF9ADC"/>
<circle opacity="0.3" cx="334.836" cy="105.678" r="1.5" transform="rotate(-62 334.836 105.678)" fill="#FF9ADC"/>
<circle opacity="0.3" cx="313.709" cy="145.411" r="1.5" transform="rotate(-62 313.709 145.411)" fill="#FF9ADC"/>
<circle opacity="0.3" cx="370.046" cy="39.4569" r="1.5" transform="rotate(-62 370.046 39.4569)" fill="#FF9ADC"/>
<circle opacity="0.3" cx="208.078" cy="344.074" r="1.5" transform="rotate(-62 208.078 344.074)" fill="#FF9ADC"/>
<circle opacity="0.3" cx="264.415" cy="238.12" r="1.5" transform="rotate(-62 264.415 238.12)" fill="#FF9ADC"/>
<circle opacity="0.3" cx="299.625" cy="171.899" r="1.5" transform="rotate(-62 299.625 171.899)" fill="#FF9ADC"/>
<circle opacity="0.3" cx="355.962" cy="65.9452" r="1.5" transform="rotate(-62 355.962 65.9452)" fill="#FF9ADC"/>
<circle opacity="0.3" cx="236.247" cy="291.097" r="1.5" transform="rotate(-62 236.247 291.097)" fill="#FF9ADC"/>
<circle opacity="0.3" cx="292.583" cy="185.143" r="1.5" transform="rotate(-62 292.583 185.143)" fill="#FF9ADC"/>
<circle opacity="0.3" cx="348.92" cy="79.1894" r="1.5" transform="rotate(-62 348.92 79.1894)" fill="#FF9ADC"/>
<circle opacity="0.3" cx="327.794" cy="118.922" r="1.5" transform="rotate(-62 327.794 118.922)" fill="#FF9ADC"/>
<circle opacity="0.3" cx="384.13" cy="12.9684" r="1.5" transform="rotate(-62 384.13 12.9684)" fill="#FF9ADC"/>
<circle opacity="0.8" cx="374.827" cy="330.804" r="4.5" transform="rotate(-62 374.827 330.804)" fill="#FF9ADC"/>
<circle opacity="0.8" cx="402.995" cy="277.827" r="4.5" transform="rotate(-62 402.995 277.827)" fill="#FF9ADC"/>
<circle opacity="0.8" cx="388.911" cy="304.316" r="4.5" transform="rotate(-62 388.911 304.316)" fill="#FF9ADC"/>
<circle opacity="0.8" cx="360.742" cy="357.292" r="4.5" transform="rotate(-62 360.742 357.292)" fill="#FF9ADC"/>
<circle opacity="0.55" cx="308.605" cy="295.594" r="4.5" transform="rotate(-62 308.605 295.594)" fill="#FF9ADC"/>
<circle opacity="0.55" cx="280.437" cy="348.57" r="4.5" transform="rotate(-62 280.437 348.57)" fill="#FF9ADC"/>
<circle opacity="0.55" cx="336.774" cy="242.617" r="4.5" transform="rotate(-62 336.774 242.617)" fill="#FF9ADC"/>
<circle opacity="0.55" cx="393.11" cy="136.663" r="4.5" transform="rotate(-62 393.11 136.663)" fill="#FF9ADC"/>
<circle opacity="0.55" cx="371.984" cy="176.396" r="4.5" transform="rotate(-62 371.984 176.396)" fill="#FF9ADC"/>
<circle opacity="0.55" cx="322.689" cy="269.105" r="4.5" transform="rotate(-62 322.689 269.105)" fill="#FF9ADC"/>
<circle opacity="0.55" cx="357.9" cy="202.884" r="4.5" transform="rotate(-62 357.9 202.884)" fill="#FF9ADC"/>
<circle opacity="0.55" cx="294.521" cy="322.082" r="4.5" transform="rotate(-62 294.521 322.082)" fill="#FF9ADC"/>
<circle opacity="0.55" cx="350.858" cy="216.128" r="4.5" transform="rotate(-62 350.858 216.128)" fill="#FF9ADC"/>
<circle opacity="0.55" cx="386.068" cy="149.907" r="4.5" transform="rotate(-62 386.068 149.907)" fill="#FF9ADC"/>
<circle opacity="0.85" cx="388.071" cy="337.846" r="4.5" transform="rotate(-62 388.071 337.846)" fill="#FF9ADC"/>
<circle opacity="0.85" cx="402.155" cy="311.358" r="4.5" transform="rotate(-62 402.155 311.358)" fill="#FF9ADC"/>
<circle opacity="0.85" cx="373.986" cy="364.334" r="4.5" transform="rotate(-62 373.986 364.334)" fill="#FF9ADC"/>
<circle opacity="0.6" cx="321.85" cy="302.636" r="4.5" transform="rotate(-62 321.85 302.636)" fill="#FF9ADC"/>
<circle opacity="0.6" cx="293.681" cy="355.612" r="4.5" transform="rotate(-62 293.681 355.612)" fill="#FF9ADC"/>
<circle opacity="0.6" cx="350.018" cy="249.659" r="4.5" transform="rotate(-62 350.018 249.659)" fill="#FF9ADC"/>
<circle opacity="0.6" cx="385.228" cy="183.438" r="4.5" transform="rotate(-62 385.228 183.438)" fill="#FF9ADC"/>
<circle opacity="0.6" cx="335.934" cy="276.147" r="4.5" transform="rotate(-62 335.934 276.147)" fill="#FF9ADC"/>
<circle opacity="0.6" cx="371.144" cy="209.926" r="4.5" transform="rotate(-62 371.144 209.926)" fill="#FF9ADC"/>
<circle opacity="0.6" cx="307.766" cy="329.124" r="4.5" transform="rotate(-62 307.766 329.124)" fill="#FF9ADC"/>
<circle opacity="0.6" cx="364.102" cy="223.17" r="4.5" transform="rotate(-62 364.102 223.17)" fill="#FF9ADC"/>
<circle opacity="0.6" cx="399.312" cy="156.949" r="4.5" transform="rotate(-62 399.312 156.949)" fill="#FF9ADC"/>
<circle opacity="0.7" cx="348.338" cy="316.72" r="4.5" transform="rotate(-62 348.338 316.72)" fill="#FF9ADC"/>
<circle opacity="0.7" cx="376.506" cy="263.743" r="4.5" transform="rotate(-62 376.506 263.743)" fill="#FF9ADC"/>
<circle opacity="0.7" cx="362.422" cy="290.231" r="4.5" transform="rotate(-62 362.422 290.231)" fill="#FF9ADC"/>
<circle opacity="0.7" cx="397.633" cy="224.01" r="4.5" transform="rotate(-62 397.633 224.01)" fill="#FF9ADC"/>
<circle opacity="0.7" cx="334.254" cy="343.208" r="4.5" transform="rotate(-62 334.254 343.208)" fill="#FF9ADC"/>
<circle opacity="0.7" cx="390.59" cy="237.255" r="4.5" transform="rotate(-62 390.59 237.255)" fill="#FF9ADC"/>
<circle opacity="0.9" cx="401.315" cy="344.888" r="4.5" transform="rotate(-62 401.315 344.888)" fill="#FF9ADC"/>
<circle opacity="0.65" cx="335.094" cy="309.678" r="4.5" transform="rotate(-62 335.094 309.678)" fill="#FF9ADC"/>
<circle opacity="0.65" cx="306.926" cy="362.654" r="4.5" transform="rotate(-62 306.926 362.654)" fill="#FF9ADC"/>
<circle opacity="0.65" cx="363.262" cy="256.701" r="4.5" transform="rotate(-62 363.262 256.701)" fill="#FF9ADC"/>
<circle opacity="0.65" cx="398.473" cy="190.48" r="4.5" transform="rotate(-62 398.473 190.48)" fill="#FF9ADC"/>
<circle opacity="0.65" cx="349.178" cy="283.189" r="4.5" transform="rotate(-62 349.178 283.189)" fill="#FF9ADC"/>
<circle opacity="0.65" cx="384.388" cy="216.968" r="4.5" transform="rotate(-62 384.388 216.968)" fill="#FF9ADC"/>
<circle opacity="0.65" cx="321.01" cy="336.166" r="4.5" transform="rotate(-62 321.01 336.166)" fill="#FF9ADC"/>
<circle opacity="0.65" cx="377.346" cy="230.212" r="4.5" transform="rotate(-62 377.346 230.212)" fill="#FF9ADC"/>
<circle opacity="0.8" cx="367.784" cy="344.048" r="4.5" transform="rotate(-62 367.784 344.048)" fill="#FF9ADC"/>
<circle opacity="0.8" cx="395.953" cy="291.071" r="4.5" transform="rotate(-62 395.953 291.071)" fill="#FF9ADC"/>
<circle opacity="0.8" cx="381.869" cy="317.56" r="4.5" transform="rotate(-62 381.869 317.56)" fill="#FF9ADC"/>
<circle opacity="0.55" cx="301.563" cy="308.838" r="4.5" transform="rotate(-62 301.563 308.838)" fill="#FF9ADC"/>
<circle opacity="0.55" cx="273.395" cy="361.815" r="4.5" transform="rotate(-62 273.395 361.815)" fill="#FF9ADC"/>
<circle opacity="0.55" cx="329.731" cy="255.861" r="4.5" transform="rotate(-62 329.731 255.861)" fill="#FF9ADC"/>
<circle opacity="0.55" cx="364.942" cy="189.64" r="4.5" transform="rotate(-62 364.942 189.64)" fill="#FF9ADC"/>
<circle opacity="0.55" cx="315.647" cy="282.349" r="4.5" transform="rotate(-62 315.647 282.349)" fill="#FF9ADC"/>
<circle opacity="0.55" cx="287.479" cy="335.326" r="4.5" transform="rotate(-62 287.479 335.326)" fill="#FF9ADC"/>
<circle opacity="0.55" cx="343.816" cy="229.373" r="4.5" transform="rotate(-62 343.816 229.373)" fill="#FF9ADC"/>
<circle opacity="0.55" cx="400.152" cy="123.419" r="4.5" transform="rotate(-62 400.152 123.419)" fill="#FF9ADC"/>
<circle opacity="0.55" cx="379.026" cy="163.152" r="4.5" transform="rotate(-62 379.026 163.152)" fill="#FF9ADC"/>
<circle opacity="0.35" cx="252.118" cy="282.547" r="2.5" transform="rotate(-62 252.118 282.547)" fill="#FF9ADC"/>
<circle opacity="0.35" cx="223.95" cy="335.524" r="2.5" transform="rotate(-62 223.95 335.524)" fill="#FF9ADC"/>
<circle opacity="0.35" cx="280.286" cy="229.571" r="2.5" transform="rotate(-62 280.286 229.571)" fill="#FF9ADC"/>
<circle opacity="0.35" cx="315.497" cy="163.349" r="2.5" transform="rotate(-62 315.497 163.349)" fill="#FF9ADC"/>
<circle opacity="0.35" cx="371.834" cy="57.3958" r="2.5" transform="rotate(-62 371.834 57.3958)" fill="#FF9ADC"/>
<circle opacity="0.35" cx="209.866" cy="362.013" r="2.5" transform="rotate(-62 209.866 362.013)" fill="#FF9ADC"/>
<circle opacity="0.35" cx="266.202" cy="256.059" r="2.5" transform="rotate(-62 266.202 256.059)" fill="#FF9ADC"/>
<circle opacity="0.35" cx="238.034" cy="309.036" r="2.5" transform="rotate(-62 238.034 309.036)" fill="#FF9ADC"/>
<circle opacity="0.35" cx="294.371" cy="203.082" r="2.5" transform="rotate(-62 294.371 203.082)" fill="#FF9ADC"/>
<circle opacity="0.35" cx="350.707" cy="97.1284" r="2.5" transform="rotate(-62 350.707 97.1284)" fill="#FF9ADC"/>
<circle opacity="0.35" cx="329.581" cy="136.861" r="2.5" transform="rotate(-62 329.581 136.861)" fill="#FF9ADC"/>
<circle opacity="0.35" cx="385.918" cy="30.9072" r="2.5" transform="rotate(-62 385.918 30.9072)" fill="#FF9ADC"/>
<circle opacity="0.35" cx="259.16" cy="269.303" r="2.5" transform="rotate(-62 259.16 269.303)" fill="#FF9ADC"/>
<circle opacity="0.35" cx="230.992" cy="322.28" r="2.5" transform="rotate(-62 230.992 322.28)" fill="#FF9ADC"/>
<circle opacity="0.35" cx="287.329" cy="216.326" r="2.5" transform="rotate(-62 287.329 216.326)" fill="#FF9ADC"/>
<circle opacity="0.35" cx="343.665" cy="110.373" r="2.5" transform="rotate(-62 343.665 110.373)" fill="#FF9ADC"/>
<circle opacity="0.35" cx="322.539" cy="150.105" r="2.5" transform="rotate(-62 322.539 150.105)" fill="#FF9ADC"/>
<circle opacity="0.35" cx="378.876" cy="44.1516" r="2.5" transform="rotate(-62 378.876 44.1516)" fill="#FF9ADC"/>
<circle opacity="0.35" cx="216.908" cy="348.769" r="2.5" transform="rotate(-62 216.908 348.769)" fill="#FF9ADC"/>
<circle opacity="0.35" cx="273.244" cy="242.815" r="2.5" transform="rotate(-62 273.244 242.815)" fill="#FF9ADC"/>
<circle opacity="0.35" cx="308.455" cy="176.594" r="2.5" transform="rotate(-62 308.455 176.594)" fill="#FF9ADC"/>
<circle opacity="0.35" cx="364.791" cy="70.6399" r="2.5" transform="rotate(-62 364.791 70.6399)" fill="#FF9ADC"/>
<circle opacity="0.35" cx="245.076" cy="295.792" r="2.5" transform="rotate(-62 245.076 295.792)" fill="#FF9ADC"/>
<circle opacity="0.35" cx="301.413" cy="189.838" r="2.5" transform="rotate(-62 301.413 189.838)" fill="#FF9ADC"/>
<circle opacity="0.35" cx="357.749" cy="83.8843" r="2.5" transform="rotate(-62 357.749 83.8843)" fill="#FF9ADC"/>
<circle opacity="0.35" cx="336.623" cy="123.617" r="2.5" transform="rotate(-62 336.623 123.617)" fill="#FF9ADC"/>
<circle opacity="0.35" cx="392.96" cy="17.6631" r="2.5" transform="rotate(-62 392.96 17.6631)" fill="#FF9ADC"/>
<circle opacity="0.85" cx="381.029" cy="351.09" r="4.5" transform="rotate(-62 381.029 351.09)" fill="#FF9ADC"/>
<circle opacity="0.85" cx="395.113" cy="324.602" r="4.5" transform="rotate(-62 395.113 324.602)" fill="#FF9ADC"/>
<circle opacity="0.6" cx="314.808" cy="315.88" r="4.5" transform="rotate(-62 314.808 315.88)" fill="#FF9ADC"/>
<circle opacity="0.6" cx="342.976" cy="262.903" r="4.5" transform="rotate(-62 342.976 262.903)" fill="#FF9ADC"/>
<circle opacity="0.6" cx="378.186" cy="196.682" r="4.5" transform="rotate(-62 378.186 196.682)" fill="#FF9ADC"/>
<circle opacity="0.6" cx="328.892" cy="289.392" r="4.5" transform="rotate(-62 328.892 289.392)" fill="#FF9ADC"/>
<circle opacity="0.6" cx="300.724" cy="342.368" r="4.5" transform="rotate(-62 300.724 342.368)" fill="#FF9ADC"/>
<circle opacity="0.6" cx="357.06" cy="236.415" r="4.5" transform="rotate(-62 357.06 236.415)" fill="#FF9ADC"/>
<circle opacity="0.6" cx="392.27" cy="170.194" r="4.5" transform="rotate(-62 392.27 170.194)" fill="#FF9ADC"/>
<circle opacity="0.4" cx="262.713" cy="288.181" r="3.5" transform="rotate(-62 262.713 288.181)" fill="#FF9ADC"/>
<circle opacity="0.4" cx="234.545" cy="341.158" r="3.5" transform="rotate(-62 234.545 341.158)" fill="#FF9ADC"/>
<circle opacity="0.4" cx="290.882" cy="235.204" r="3.5" transform="rotate(-62 290.882 235.204)" fill="#FF9ADC"/>
<circle opacity="0.4" cx="326.092" cy="168.983" r="3.5" transform="rotate(-62 326.092 168.983)" fill="#FF9ADC"/>
<circle opacity="0.4" cx="382.429" cy="63.0294" r="3.5" transform="rotate(-62 382.429 63.0294)" fill="#FF9ADC"/>
<circle opacity="0.4" cx="276.798" cy="261.693" r="3.5" transform="rotate(-62 276.798 261.693)" fill="#FF9ADC"/>
<circle opacity="0.4" cx="248.629" cy="314.67" r="3.5" transform="rotate(-62 248.629 314.67)" fill="#FF9ADC"/>
<circle opacity="0.4" cx="304.966" cy="208.716" r="3.5" transform="rotate(-62 304.966 208.716)" fill="#FF9ADC"/>
<circle opacity="0.4" cx="361.303" cy="102.762" r="3.5" transform="rotate(-62 361.303 102.762)" fill="#FF9ADC"/>
<circle opacity="0.4" cx="340.176" cy="142.495" r="3.5" transform="rotate(-62 340.176 142.495)" fill="#FF9ADC"/>
<circle opacity="0.4" cx="396.513" cy="36.5411" r="3.5" transform="rotate(-62 396.513 36.5411)" fill="#FF9ADC"/>
<circle opacity="0.4" cx="269.756" cy="274.937" r="3.5" transform="rotate(-62 269.756 274.937)" fill="#FF9ADC"/>
<circle opacity="0.4" cx="241.587" cy="327.914" r="3.5" transform="rotate(-62 241.587 327.914)" fill="#FF9ADC"/>
<circle opacity="0.4" cx="297.924" cy="221.96" r="3.5" transform="rotate(-62 297.924 221.96)" fill="#FF9ADC"/>
<circle opacity="0.4" cx="354.26" cy="116.006" r="3.5" transform="rotate(-62 354.26 116.006)" fill="#FF9ADC"/>
<circle opacity="0.4" cx="333.134" cy="155.739" r="3.5" transform="rotate(-62 333.134 155.739)" fill="#FF9ADC"/>
<circle opacity="0.4" cx="389.471" cy="49.7853" r="3.5" transform="rotate(-62 389.471 49.7853)" fill="#FF9ADC"/>
<circle opacity="0.4" cx="227.503" cy="354.402" r="3.5" transform="rotate(-62 227.503 354.402)" fill="#FF9ADC"/>
<circle opacity="0.4" cx="283.84" cy="248.448" r="3.5" transform="rotate(-62 283.84 248.448)" fill="#FF9ADC"/>
<circle opacity="0.4" cx="319.05" cy="182.227" r="3.5" transform="rotate(-62 319.05 182.227)" fill="#FF9ADC"/>
<circle opacity="0.4" cx="375.387" cy="76.2735" r="3.5" transform="rotate(-62 375.387 76.2735)" fill="#FF9ADC"/>
<circle opacity="0.4" cx="255.671" cy="301.425" r="3.5" transform="rotate(-62 255.671 301.425)" fill="#FF9ADC"/>
<circle opacity="0.4" cx="312.008" cy="195.472" r="3.5" transform="rotate(-62 312.008 195.472)" fill="#FF9ADC"/>
<circle opacity="0.4" cx="368.345" cy="89.5179" r="3.5" transform="rotate(-62 368.345 89.5179)" fill="#FF9ADC"/>
<circle opacity="0.4" cx="347.218" cy="129.251" r="3.5" transform="rotate(-62 347.218 129.251)" fill="#FF9ADC"/>
<circle opacity="0.4" cx="403.555" cy="23.2967" r="3.5" transform="rotate(-62 403.555 23.2967)" fill="#FF9ADC"/>
<circle opacity="0.7" cx="341.296" cy="329.964" r="4.5" transform="rotate(-62 341.296 329.964)" fill="#FF9ADC"/>
<circle opacity="0.7" cx="369.464" cy="276.987" r="4.5" transform="rotate(-62 369.464 276.987)" fill="#FF9ADC"/>
<circle opacity="0.7" cx="404.675" cy="210.766" r="4.5" transform="rotate(-62 404.675 210.766)" fill="#FF9ADC"/>
<circle opacity="0.7" cx="355.38" cy="303.476" r="4.5" transform="rotate(-62 355.38 303.476)" fill="#FF9ADC"/>
<circle opacity="0.7" cx="327.212" cy="356.452" r="4.5" transform="rotate(-62 327.212 356.452)" fill="#FF9ADC"/>
<circle opacity="0.7" cx="383.548" cy="250.499" r="4.5" transform="rotate(-62 383.548 250.499)" fill="#FF9ADC"/>
<circle opacity="0.9" cx="394.273" cy="358.132" r="4.5" transform="rotate(-62 394.273 358.132)" fill="#FF9ADC"/>
<circle opacity="0.65" cx="328.052" cy="322.922" r="4.5" transform="rotate(-62 328.052 322.922)" fill="#FF9ADC"/>
<circle opacity="0.65" cx="356.22" cy="269.945" r="4.5" transform="rotate(-62 356.22 269.945)" fill="#FF9ADC"/>
<circle opacity="0.65" cx="391.431" cy="203.724" r="4.5" transform="rotate(-62 391.431 203.724)" fill="#FF9ADC"/>
<circle opacity="0.65" cx="342.136" cy="296.434" r="4.5" transform="rotate(-62 342.136 296.434)" fill="#FF9ADC"/>
<circle opacity="0.65" cx="313.968" cy="349.41" r="4.5" transform="rotate(-62 313.968 349.41)" fill="#FF9ADC"/>
<circle opacity="0.65" cx="370.304" cy="243.457" r="4.5" transform="rotate(-62 370.304 243.457)" fill="#FF9ADC"/>
<circle opacity="0.65" cx="405.515" cy="177.236" r="4.5" transform="rotate(-62 405.515 177.236)" fill="#FF9ADC"/>
<circle opacity="0.45" cx="275.075" cy="294.754" r="4.5" transform="rotate(-62 275.075 294.754)" fill="#FF9ADC"/>
<circle opacity="0.45" cx="246.907" cy="347.73" r="4.5" transform="rotate(-62 246.907 347.73)" fill="#FF9ADC"/>
<circle opacity="0.45" cx="303.243" cy="241.777" r="4.5" transform="rotate(-62 303.243 241.777)" fill="#FF9ADC"/>
<circle opacity="0.45" cx="338.454" cy="175.556" r="4.5" transform="rotate(-62 338.454 175.556)" fill="#FF9ADC"/>
<circle opacity="0.45" cx="394.79" cy="69.602" r="4.5" transform="rotate(-62 394.79 69.602)" fill="#FF9ADC"/>
<circle opacity="0.45" cx="289.159" cy="268.265" r="4.5" transform="rotate(-62 289.159 268.265)" fill="#FF9ADC"/>
<circle opacity="0.45" cx="260.991" cy="321.242" r="4.5" transform="rotate(-62 260.991 321.242)" fill="#FF9ADC"/>
<circle opacity="0.45" cx="317.327" cy="215.288" r="4.5" transform="rotate(-62 317.327 215.288)" fill="#FF9ADC"/>
<circle opacity="0.45" cx="373.664" cy="109.335" r="4.5" transform="rotate(-62 373.664 109.335)" fill="#FF9ADC"/>
<circle opacity="0.45" cx="352.538" cy="149.067" r="4.5" transform="rotate(-62 352.538 149.067)" fill="#FF9ADC"/>
<circle opacity="0.45" cx="282.117" cy="281.509" r="4.5" transform="rotate(-62 282.117 281.509)" fill="#FF9ADC"/>
<circle opacity="0.45" cx="253.949" cy="334.486" r="4.5" transform="rotate(-62 253.949 334.486)" fill="#FF9ADC"/>
<circle opacity="0.45" cx="310.285" cy="228.533" r="4.5" transform="rotate(-62 310.285 228.533)" fill="#FF9ADC"/>
<circle opacity="0.45" cx="366.622" cy="122.579" r="4.5" transform="rotate(-62 366.622 122.579)" fill="#FF9ADC"/>
<circle opacity="0.45" cx="345.496" cy="162.311" r="4.5" transform="rotate(-62 345.496 162.311)" fill="#FF9ADC"/>
<circle opacity="0.45" cx="401.832" cy="56.3579" r="4.5" transform="rotate(-62 401.832 56.3579)" fill="#FF9ADC"/>
<circle opacity="0.45" cx="239.865" cy="360.975" r="4.5" transform="rotate(-62 239.865 360.975)" fill="#FF9ADC"/>
<circle opacity="0.45" cx="296.201" cy="255.021" r="4.5" transform="rotate(-62 296.201 255.021)" fill="#FF9ADC"/>
<circle opacity="0.45" cx="331.412" cy="188.8" r="4.5" transform="rotate(-62 331.412 188.8)" fill="#FF9ADC"/>
<circle opacity="0.45" cx="387.748" cy="82.8461" r="4.5" transform="rotate(-62 387.748 82.8461)" fill="#FF9ADC"/>
<circle opacity="0.45" cx="268.033" cy="307.998" r="4.5" transform="rotate(-62 268.033 307.998)" fill="#FF9ADC"/>
<circle opacity="0.45" cx="324.37" cy="202.044" r="4.5" transform="rotate(-62 324.37 202.044)" fill="#FF9ADC"/>
<circle opacity="0.45" cx="380.706" cy="96.0905" r="4.5" transform="rotate(-62 380.706 96.0905)" fill="#FF9ADC"/>
<circle opacity="0.45" cx="359.58" cy="135.823" r="4.5" transform="rotate(-62 359.58 135.823)" fill="#FF9ADC"/>
</g>
</g>
<g clip-path="url(#clip2_285_582931)">
<rect width="625" height="720" transform="translate(-555 174.594) rotate(-13)" fill="url(#paint1_linear_285_582931)"/>
<g opacity="0.3">
<circle opacity="0.5" cx="-0.647288" cy="57.3159" r="4.5" transform="rotate(77 -0.647288 57.3159)" fill="#70E9F5"/>
<circle opacity="0.5" cx="26.3469" cy="174.24" r="4.5" transform="rotate(77 26.3469 174.24)" fill="#70E9F5"/>
<circle opacity="0.5" cx="12.8498" cy="115.778" r="4.5" transform="rotate(77 12.8498 115.778)" fill="#70E9F5"/>
<circle opacity="0.5" cx="39.8439" cy="232.702" r="4.5" transform="rotate(77 39.8439 232.702)" fill="#70E9F5"/>
<circle opacity="0.5" cx="56.715" cy="305.78" r="4.5" transform="rotate(77 56.715 305.78)" fill="#70E9F5"/>
<circle opacity="0.5" cx="6.10125" cy="86.5468" r="4.5" transform="rotate(77 6.10125 86.5468)" fill="#70E9F5"/>
<circle opacity="0.5" cx="33.0954" cy="203.471" r="4.5" transform="rotate(77 33.0954 203.471)" fill="#70E9F5"/>
<circle opacity="0.5" cx="19.5983" cy="145.009" r="4.5" transform="rotate(77 19.5983 145.009)" fill="#70E9F5"/>
<circle opacity="0.5" cx="46.5925" cy="261.934" r="4.5" transform="rotate(77 46.5925 261.934)" fill="#70E9F5"/>
<circle opacity="0.5" cx="63.4636" cy="335.011" r="4.5" transform="rotate(77 63.4636 335.011)" fill="#70E9F5"/>
<circle opacity="0.3" cx="49.0458" cy="45.8434" r="1.5" transform="rotate(77 49.0458 45.8434)" fill="#70E9F5"/>
<circle opacity="0.3" cx="76.0399" cy="162.768" r="1.5" transform="rotate(77 76.0399 162.768)" fill="#70E9F5"/>
<circle opacity="0.3" cx="62.5429" cy="104.306" r="1.5" transform="rotate(77 62.5429 104.306)" fill="#70E9F5"/>
<circle opacity="0.3" cx="89.537" cy="221.23" r="1.5" transform="rotate(77 89.537 221.23)" fill="#70E9F5"/>
<circle opacity="0.3" cx="106.408" cy="294.308" r="1.5" transform="rotate(77 106.408 294.308)" fill="#70E9F5"/>
<circle opacity="0.3" cx="55.7943" cy="75.0744" r="1.5" transform="rotate(77 55.7943 75.0744)" fill="#70E9F5"/>
<circle opacity="0.3" cx="82.7885" cy="191.999" r="1.5" transform="rotate(77 82.7885 191.999)" fill="#70E9F5"/>
<circle opacity="0.3" cx="69.2914" cy="133.537" r="1.5" transform="rotate(77 69.2914 133.537)" fill="#70E9F5"/>
<circle opacity="0.3" cx="96.2855" cy="250.461" r="1.5" transform="rotate(77 96.2855 250.461)" fill="#70E9F5"/>
<circle opacity="0.3" cx="113.157" cy="323.539" r="1.5" transform="rotate(77 113.157 323.539)" fill="#70E9F5"/>
<circle opacity="0.5" cx="2.72722" cy="71.9314" r="4.5" transform="rotate(77 2.72722 71.9314)" fill="#70E9F5"/>
<circle opacity="0.5" cx="29.7214" cy="188.856" r="4.5" transform="rotate(77 29.7214 188.856)" fill="#70E9F5"/>
<circle opacity="0.5" cx="16.2243" cy="130.394" r="4.5" transform="rotate(77 16.2243 130.394)" fill="#70E9F5"/>
<circle opacity="0.5" cx="43.2184" cy="247.318" r="4.5" transform="rotate(77 43.2184 247.318)" fill="#70E9F5"/>
<circle opacity="0.5" cx="70.2121" cy="364.242" r="4.5" transform="rotate(77 70.2121 364.242)" fill="#70E9F5"/>
<circle opacity="0.5" cx="60.0895" cy="320.396" r="4.5" transform="rotate(77 60.0895 320.396)" fill="#70E9F5"/>
<circle opacity="0.5" cx="9.47576" cy="101.163" r="4.5" transform="rotate(77 9.47576 101.163)" fill="#70E9F5"/>
<circle opacity="0.5" cx="36.4699" cy="218.087" r="4.5" transform="rotate(77 36.4699 218.087)" fill="#70E9F5"/>
<circle opacity="0.5" cx="53.341" cy="291.165" r="4.5" transform="rotate(77 53.341 291.165)" fill="#70E9F5"/>
<circle opacity="0.5" cx="22.9728" cy="159.625" r="4.5" transform="rotate(77 22.9728 159.625)" fill="#70E9F5"/>
<circle opacity="0.5" cx="49.9665" cy="276.549" r="4.5" transform="rotate(77 49.9665 276.549)" fill="#70E9F5"/>
<circle opacity="0.5" cx="66.8381" cy="349.627" r="4.5" transform="rotate(77 66.8381 349.627)" fill="#70E9F5"/>
<circle opacity="0.3" cx="52.4198" cy="60.4589" r="1.5" transform="rotate(77 52.4198 60.4589)" fill="#70E9F5"/>
<circle opacity="0.3" cx="79.414" cy="177.383" r="1.5" transform="rotate(77 79.414 177.383)" fill="#70E9F5"/>
<circle opacity="0.3" cx="65.9169" cy="118.921" r="1.5" transform="rotate(77 65.9169 118.921)" fill="#70E9F5"/>
<circle opacity="0.3" cx="92.911" cy="235.845" r="1.5" transform="rotate(77 92.911 235.845)" fill="#70E9F5"/>
<circle opacity="0.3" cx="119.905" cy="352.77" r="1.5" transform="rotate(77 119.905 352.77)" fill="#70E9F5"/>
<circle opacity="0.3" cx="109.783" cy="308.923" r="1.5" transform="rotate(77 109.783 308.923)" fill="#70E9F5"/>
<circle opacity="0.3" cx="59.1684" cy="89.6898" r="1.5" transform="rotate(77 59.1684 89.6898)" fill="#70E9F5"/>
<circle opacity="0.3" cx="86.1625" cy="206.614" r="1.5" transform="rotate(77 86.1625 206.614)" fill="#70E9F5"/>
<circle opacity="0.3" cx="103.034" cy="279.692" r="1.5" transform="rotate(77 103.034 279.692)" fill="#70E9F5"/>
<circle opacity="0.3" cx="72.6654" cy="148.152" r="1.5" transform="rotate(77 72.6654 148.152)" fill="#70E9F5"/>
<circle opacity="0.3" cx="99.6596" cy="265.077" r="1.5" transform="rotate(77 99.6596 265.077)" fill="#70E9F5"/>
<circle opacity="0.3" cx="116.531" cy="338.154" r="1.5" transform="rotate(77 116.531 338.154)" fill="#70E9F5"/>
<circle opacity="0.55" cx="15.1056" cy="192.23" r="4.5" transform="rotate(77 15.1056 192.23)" fill="#70E9F5"/>
<circle opacity="0.55" cx="1.60857" cy="133.768" r="4.5" transform="rotate(77 1.60857 133.768)" fill="#70E9F5"/>
<circle opacity="0.55" cx="28.6027" cy="250.692" r="4.5" transform="rotate(77 28.6027 250.692)" fill="#70E9F5"/>
<circle opacity="0.55" cx="45.4738" cy="323.77" r="4.5" transform="rotate(77 45.4738 323.77)" fill="#70E9F5"/>
<circle opacity="0.55" cx="-5.13996" cy="104.537" r="4.5" transform="rotate(77 -5.13996 104.537)" fill="#70E9F5"/>
<circle opacity="0.55" cx="21.8542" cy="221.461" r="4.5" transform="rotate(77 21.8542 221.461)" fill="#70E9F5"/>
<circle opacity="0.55" cx="38.7253" cy="294.539" r="4.5" transform="rotate(77 38.7253 294.539)" fill="#70E9F5"/>
<circle opacity="0.55" cx="8.35711" cy="162.999" r="4.5" transform="rotate(77 8.35711 162.999)" fill="#70E9F5"/>
<circle opacity="0.55" cx="35.3512" cy="279.923" r="4.5" transform="rotate(77 35.3512 279.923)" fill="#70E9F5"/>
<circle opacity="0.55" cx="52.2223" cy="353.001" r="4.5" transform="rotate(77 52.2223 353.001)" fill="#70E9F5"/>
<circle opacity="0.6" cx="0.489919" cy="195.604" r="4.5" transform="rotate(77 0.489919 195.604)" fill="#70E9F5"/>
<circle opacity="0.6" cx="13.987" cy="254.066" r="4.5" transform="rotate(77 13.987 254.066)" fill="#70E9F5"/>
<circle opacity="0.6" cx="30.8586" cy="327.144" r="4.5" transform="rotate(77 30.8586 327.144)" fill="#70E9F5"/>
<circle opacity="0.6" cx="7.23845" cy="224.835" r="4.5" transform="rotate(77 7.23845 224.835)" fill="#70E9F5"/>
<circle opacity="0.6" cx="24.11" cy="297.913" r="4.5" transform="rotate(77 24.11 297.913)" fill="#70E9F5"/>
<circle opacity="0.6" cx="20.7355" cy="283.298" r="4.5" transform="rotate(77 20.7355 283.298)" fill="#70E9F5"/>
<circle opacity="0.6" cx="37.6071" cy="356.375" r="4.5" transform="rotate(77 37.6071 356.375)" fill="#70E9F5"/>
<circle opacity="0.7" cx="1.62713" cy="333.893" r="4.5" transform="rotate(77 1.62713 333.893)" fill="#70E9F5"/>
<circle opacity="0.7" cx="-5.12141" cy="304.662" r="4.5" transform="rotate(77 -5.12141 304.662)" fill="#70E9F5"/>
<circle opacity="0.7" cx="8.37566" cy="363.124" r="4.5" transform="rotate(77 8.37566 363.124)" fill="#70E9F5"/>
<circle opacity="0.65" cx="-0.628245" cy="257.441" r="4.5" transform="rotate(77 -0.628245 257.441)" fill="#70E9F5"/>
<circle opacity="0.65" cx="16.2428" cy="330.519" r="4.5" transform="rotate(77 16.2428 330.519)" fill="#70E9F5"/>
<circle opacity="0.65" cx="9.49431" cy="301.287" r="4.5" transform="rotate(77 9.49431 301.287)" fill="#70E9F5"/>
<circle opacity="0.65" cx="6.12029" cy="286.672" r="4.5" transform="rotate(77 6.12029 286.672)" fill="#70E9F5"/>
<circle opacity="0.65" cx="22.9914" cy="359.75" r="4.5" transform="rotate(77 22.9914 359.75)" fill="#70E9F5"/>
<circle opacity="0.55" cx="11.7311" cy="177.614" r="4.5" transform="rotate(77 11.7311 177.614)" fill="#70E9F5"/>
<circle opacity="0.55" cx="-1.76594" cy="119.152" r="4.5" transform="rotate(77 -1.76594 119.152)" fill="#70E9F5"/>
<circle opacity="0.55" cx="25.2282" cy="236.077" r="4.5" transform="rotate(77 25.2282 236.077)" fill="#70E9F5"/>
<circle opacity="0.55" cx="42.0998" cy="309.155" r="4.5" transform="rotate(77 42.0998 309.155)" fill="#70E9F5"/>
<circle opacity="0.55" cx="18.4797" cy="206.846" r="4.5" transform="rotate(77 18.4797 206.846)" fill="#70E9F5"/>
<circle opacity="0.55" cx="4.98259" cy="148.383" r="4.5" transform="rotate(77 4.98259 148.383)" fill="#70E9F5"/>
<circle opacity="0.55" cx="31.9767" cy="265.308" r="4.5" transform="rotate(77 31.9767 265.308)" fill="#70E9F5"/>
<circle opacity="0.55" cx="48.8483" cy="338.385" r="4.5" transform="rotate(77 48.8483 338.385)" fill="#70E9F5"/>
<circle opacity="0.35" cx="39.3017" cy="48.0928" r="2.5" transform="rotate(77 39.3017 48.0928)" fill="#70E9F5"/>
<circle opacity="0.35" cx="66.2959" cy="165.017" r="2.5" transform="rotate(77 66.2959 165.017)" fill="#70E9F5"/>
<circle opacity="0.35" cx="52.7988" cy="106.555" r="2.5" transform="rotate(77 52.7988 106.555)" fill="#70E9F5"/>
<circle opacity="0.35" cx="79.793" cy="223.48" r="2.5" transform="rotate(77 79.793 223.48)" fill="#70E9F5"/>
<circle opacity="0.35" cx="96.6645" cy="296.557" r="2.5" transform="rotate(77 96.6645 296.557)" fill="#70E9F5"/>
<circle opacity="0.35" cx="46.0503" cy="77.324" r="2.5" transform="rotate(77 46.0503 77.324)" fill="#70E9F5"/>
<circle opacity="0.35" cx="73.0444" cy="194.248" r="2.5" transform="rotate(77 73.0444 194.248)" fill="#70E9F5"/>
<circle opacity="0.35" cx="59.5474" cy="135.786" r="2.5" transform="rotate(77 59.5474 135.786)" fill="#70E9F5"/>
<circle opacity="0.35" cx="86.5415" cy="252.71" r="2.5" transform="rotate(77 86.5415 252.71)" fill="#70E9F5"/>
<circle opacity="0.35" cx="103.413" cy="325.788" r="2.5" transform="rotate(77 103.413 325.788)" fill="#70E9F5"/>
<circle opacity="0.35" cx="42.6763" cy="62.7083" r="2.5" transform="rotate(77 42.6763 62.7083)" fill="#70E9F5"/>
<circle opacity="0.35" cx="69.6704" cy="179.633" r="2.5" transform="rotate(77 69.6704 179.633)" fill="#70E9F5"/>
<circle opacity="0.35" cx="56.1733" cy="121.171" r="2.5" transform="rotate(77 56.1733 121.171)" fill="#70E9F5"/>
<circle opacity="0.35" cx="83.1675" cy="238.095" r="2.5" transform="rotate(77 83.1675 238.095)" fill="#70E9F5"/>
<circle opacity="0.35" cx="110.162" cy="355.019" r="2.5" transform="rotate(77 110.162 355.019)" fill="#70E9F5"/>
<circle opacity="0.35" cx="100.039" cy="311.173" r="2.5" transform="rotate(77 100.039 311.173)" fill="#70E9F5"/>
<circle opacity="0.35" cx="49.4248" cy="91.9395" r="2.5" transform="rotate(77 49.4248 91.9395)" fill="#70E9F5"/>
<circle opacity="0.35" cx="76.4189" cy="208.864" r="2.5" transform="rotate(77 76.4189 208.864)" fill="#70E9F5"/>
<circle opacity="0.35" cx="93.29" cy="281.942" r="2.5" transform="rotate(77 93.29 281.942)" fill="#70E9F5"/>
<circle opacity="0.35" cx="62.9219" cy="150.402" r="2.5" transform="rotate(77 62.9219 150.402)" fill="#70E9F5"/>
<circle opacity="0.35" cx="89.916" cy="267.326" r="2.5" transform="rotate(77 89.916 267.326)" fill="#70E9F5"/>
<circle opacity="0.35" cx="106.787" cy="340.404" r="2.5" transform="rotate(77 106.787 340.404)" fill="#70E9F5"/>
<circle opacity="0.6" cx="-2.8841" cy="180.989" r="4.5" transform="rotate(77 -2.8841 180.989)" fill="#70E9F5"/>
<circle opacity="0.6" cx="10.613" cy="239.451" r="4.5" transform="rotate(77 10.613 239.451)" fill="#70E9F5"/>
<circle opacity="0.6" cx="27.4841" cy="312.529" r="4.5" transform="rotate(77 27.4841 312.529)" fill="#70E9F5"/>
<circle opacity="0.6" cx="3.86443" cy="210.22" r="4.5" transform="rotate(77 3.86443 210.22)" fill="#70E9F5"/>
<circle opacity="0.6" cx="17.3615" cy="268.682" r="4.5" transform="rotate(77 17.3615 268.682)" fill="#70E9F5"/>
<circle opacity="0.6" cx="34.2326" cy="341.76" r="4.5" transform="rotate(77 34.2326 341.76)" fill="#70E9F5"/>
<circle opacity="0.4" cx="27.6095" cy="50.7921" r="3.5" transform="rotate(77 27.6095 50.7921)" fill="#70E9F5"/>
<circle opacity="0.4" cx="54.6036" cy="167.717" r="3.5" transform="rotate(77 54.6036 167.717)" fill="#70E9F5"/>
<circle opacity="0.4" cx="41.1065" cy="109.255" r="3.5" transform="rotate(77 41.1065 109.255)" fill="#70E9F5"/>
<circle opacity="0.4" cx="68.1007" cy="226.179" r="3.5" transform="rotate(77 68.1007 226.179)" fill="#70E9F5"/>
<circle opacity="0.4" cx="84.9718" cy="299.257" r="3.5" transform="rotate(77 84.9718 299.257)" fill="#70E9F5"/>
<circle opacity="0.4" cx="34.358" cy="80.0233" r="3.5" transform="rotate(77 34.358 80.0233)" fill="#70E9F5"/>
<circle opacity="0.4" cx="61.3521" cy="196.948" r="3.5" transform="rotate(77 61.3521 196.948)" fill="#70E9F5"/>
<circle opacity="0.4" cx="47.8551" cy="138.485" r="3.5" transform="rotate(77 47.8551 138.485)" fill="#70E9F5"/>
<circle opacity="0.4" cx="74.8492" cy="255.41" r="3.5" transform="rotate(77 74.8492 255.41)" fill="#70E9F5"/>
<circle opacity="0.4" cx="91.7203" cy="328.488" r="3.5" transform="rotate(77 91.7203 328.488)" fill="#70E9F5"/>
<circle opacity="0.4" cx="30.984" cy="65.4078" r="3.5" transform="rotate(77 30.984 65.4078)" fill="#70E9F5"/>
<circle opacity="0.4" cx="57.9776" cy="182.332" r="3.5" transform="rotate(77 57.9776 182.332)" fill="#70E9F5"/>
<circle opacity="0.4" cx="44.481" cy="123.87" r="3.5" transform="rotate(77 44.481 123.87)" fill="#70E9F5"/>
<circle opacity="0.4" cx="71.4747" cy="240.794" r="3.5" transform="rotate(77 71.4747 240.794)" fill="#70E9F5"/>
<circle opacity="0.4" cx="98.4688" cy="357.719" r="3.5" transform="rotate(77 98.4688 357.719)" fill="#70E9F5"/>
<circle opacity="0.4" cx="88.3463" cy="313.872" r="3.5" transform="rotate(77 88.3463 313.872)" fill="#70E9F5"/>
<circle opacity="0.4" cx="37.7325" cy="94.6388" r="3.5" transform="rotate(77 37.7325 94.6388)" fill="#70E9F5"/>
<circle opacity="0.4" cx="64.7262" cy="211.563" r="3.5" transform="rotate(77 64.7262 211.563)" fill="#70E9F5"/>
<circle opacity="0.4" cx="81.5977" cy="284.641" r="3.5" transform="rotate(77 81.5977 284.641)" fill="#70E9F5"/>
<circle opacity="0.4" cx="51.2296" cy="153.101" r="3.5" transform="rotate(77 51.2296 153.101)" fill="#70E9F5"/>
<circle opacity="0.4" cx="78.2232" cy="270.026" r="3.5" transform="rotate(77 78.2232 270.026)" fill="#70E9F5"/>
<circle opacity="0.4" cx="95.0948" cy="343.103" r="3.5" transform="rotate(77 95.0948 343.103)" fill="#70E9F5"/>
<circle opacity="0.7" cx="-1.7469" cy="319.277" r="4.5" transform="rotate(77 -1.7469 319.277)" fill="#70E9F5"/>
<circle opacity="0.7" cx="5.00164" cy="348.508" r="4.5" transform="rotate(77 5.00164 348.508)" fill="#70E9F5"/>
<circle opacity="0.65" cx="-4.00276" cy="242.825" r="4.5" transform="rotate(77 -4.00276 242.825)" fill="#70E9F5"/>
<circle opacity="0.65" cx="12.8688" cy="315.903" r="4.5" transform="rotate(77 12.8688 315.903)" fill="#70E9F5"/>
<circle opacity="0.65" cx="2.74578" cy="272.056" r="4.5" transform="rotate(77 2.74578 272.056)" fill="#70E9F5"/>
<circle opacity="0.65" cx="19.6174" cy="345.134" r="4.5" transform="rotate(77 19.6174 345.134)" fill="#70E9F5"/>
<circle opacity="0.45" cx="13.9684" cy="53.9416" r="4.5" transform="rotate(77 13.9684 53.9416)" fill="#70E9F5"/>
<circle opacity="0.45" cx="40.9626" cy="170.866" r="4.5" transform="rotate(77 40.9626 170.866)" fill="#70E9F5"/>
<circle opacity="0.45" cx="27.4655" cy="112.404" r="4.5" transform="rotate(77 27.4655 112.404)" fill="#70E9F5"/>
<circle opacity="0.45" cx="54.4596" cy="229.328" r="4.5" transform="rotate(77 54.4596 229.328)" fill="#70E9F5"/>
<circle opacity="0.45" cx="71.3307" cy="302.406" r="4.5" transform="rotate(77 71.3307 302.406)" fill="#70E9F5"/>
<circle opacity="0.45" cx="20.717" cy="83.1726" r="4.5" transform="rotate(77 20.717 83.1726)" fill="#70E9F5"/>
<circle opacity="0.45" cx="47.7111" cy="200.097" r="4.5" transform="rotate(77 47.7111 200.097)" fill="#70E9F5"/>
<circle opacity="0.45" cx="34.214" cy="141.635" r="4.5" transform="rotate(77 34.214 141.635)" fill="#70E9F5"/>
<circle opacity="0.45" cx="61.2082" cy="258.559" r="4.5" transform="rotate(77 61.2082 258.559)" fill="#70E9F5"/>
<circle opacity="0.45" cx="78.0793" cy="331.637" r="4.5" transform="rotate(77 78.0793 331.637)" fill="#70E9F5"/>
<circle opacity="0.45" cx="17.3425" cy="68.5571" r="4.5" transform="rotate(77 17.3425 68.5571)" fill="#70E9F5"/>
<circle opacity="0.45" cx="44.3366" cy="185.481" r="4.5" transform="rotate(77 44.3366 185.481)" fill="#70E9F5"/>
<circle opacity="0.45" cx="30.8395" cy="127.019" r="4.5" transform="rotate(77 30.8395 127.019)" fill="#70E9F5"/>
<circle opacity="0.45" cx="57.8337" cy="243.944" r="4.5" transform="rotate(77 57.8337 243.944)" fill="#70E9F5"/>
<circle opacity="0.45" cx="84.8278" cy="360.868" r="4.5" transform="rotate(77 84.8278 360.868)" fill="#70E9F5"/>
<circle opacity="0.45" cx="74.7053" cy="317.021" r="4.5" transform="rotate(77 74.7053 317.021)" fill="#70E9F5"/>
<circle opacity="0.45" cx="24.091" cy="97.7883" r="4.5" transform="rotate(77 24.091 97.7883)" fill="#70E9F5"/>
<circle opacity="0.45" cx="51.0851" cy="214.713" r="4.5" transform="rotate(77 51.0851 214.713)" fill="#70E9F5"/>
<circle opacity="0.45" cx="67.9567" cy="287.79" r="4.5" transform="rotate(77 67.9567 287.79)" fill="#70E9F5"/>
<circle opacity="0.45" cx="37.5881" cy="156.25" r="4.5" transform="rotate(77 37.5881 156.25)" fill="#70E9F5"/>
<circle opacity="0.45" cx="64.5822" cy="273.175" r="4.5" transform="rotate(77 64.5822 273.175)" fill="#70E9F5"/>
<circle opacity="0.45" cx="81.4538" cy="346.253" r="4.5" transform="rotate(77 81.4538 346.253)" fill="#70E9F5"/>
</g>
</g>
</g>
<defs>
<linearGradient id="paint0_linear_285_582931" x1="312.5" y1="0" x2="312.5" y2="720" gradientUnits="userSpaceOnUse">
<stop stop-color="#FFB3ED"/>
<stop offset="1" stop-color="white"/>
</linearGradient>
<linearGradient id="paint1_linear_285_582931" x1="312.5" y1="0" x2="312.5" y2="720" gradientUnits="userSpaceOnUse">
<stop stop-color="#97F6FF"/>
<stop offset="1" stop-color="white"/>
</linearGradient>
<clipPath id="clip0_285_582931">
<rect width="400" height="361" fill="white"/>
</clipPath>
<clipPath id="clip1_285_582931">
<rect width="625" height="720" fill="white" transform="translate(383.02) rotate(28)"/>
</clipPath>
<clipPath id="clip2_285_582931">
<rect width="625" height="720" fill="white" transform="translate(-555 174.594) rotate(-13)"/>
</clipPath>
</defs>
</svg>
