<svg width="717" height="717" viewBox="0 0 717 717" fill="none" xmlns="http://www.w3.org/2000/svg">
<path d="M179.951 673.347C193.542 681.015 207.787 687.895 222.652 693.9L219.655 701.318C204.469 695.182 189.913 688.151 176.021 680.313L179.951 673.347ZM265.633 716.518C250.196 712.507 234.841 707.453 219.655 701.318L222.652 693.9C237.516 699.906 252.542 704.853 267.646 708.778L265.633 716.518ZM9.40426 454.996C17.8789 485.471 30.3045 514.742 46.3388 542.007L39.4431 546.061C23.0563 518.196 10.3588 488.283 1.69787 457.139L9.40426 454.996ZM546.061 677.075C518.196 693.462 488.283 706.16 457.139 714.821L454.996 707.115C485.47 698.641 514.741 686.216 542.006 670.182L546.061 677.075ZM15.2015 219.655C21.3371 204.469 28.3677 189.913 36.2055 176.021L43.1722 179.951C35.504 193.543 28.6246 207.788 22.619 222.652C16.6133 237.517 11.6664 252.543 7.74113 267.646L0 265.633C4.01198 250.196 9.06601 234.841 15.2015 219.655ZM701.318 496.864C695.182 512.05 688.151 526.606 680.313 540.497L673.347 536.568C681.015 522.977 687.894 508.732 693.9 493.867C699.906 479.003 704.853 463.977 708.778 448.874L716.518 450.886C712.506 466.323 707.453 481.678 701.318 496.864ZM261.523 9.40463C231.049 17.8793 201.778 30.3048 174.512 46.3392L170.458 39.4431C198.322 23.0563 228.236 10.3588 259.38 1.69787L261.523 9.40463ZM677.075 170.458C693.462 198.322 706.16 228.236 714.821 259.38L707.115 261.523C698.64 231.049 686.215 201.779 670.181 174.513L677.075 170.458ZM496.864 15.2019C512.05 21.3374 526.606 28.3679 540.497 36.2055L536.568 43.1726C522.977 35.5044 508.732 28.625 493.867 22.6193C479.003 16.6137 463.977 11.6667 448.873 7.7415L450.886 0C466.323 4.01202 481.678 9.06625 496.864 15.2019Z" fill="#70E9F5" fill-opacity="0.2"/>
</svg>
