<svg width="920" height="920" viewBox="0 0 920 920" fill="none" xmlns="http://www.w3.org/2000/svg">
<path d="M662.005 769.89L716.515 853.727C698.18 865.648 678.831 876.407 658.536 885.87C638.242 895.334 617.563 903.24 596.645 909.623L567.461 813.977L567.46 813.975C583.92 808.953 600.229 802.722 616.275 795.239C632.32 787.757 647.576 779.27 662.004 769.889L662.005 769.89ZM285.617 786.307C316.433 802.732 349.448 814.748 383.611 821.974L383.611 821.977L362.918 919.811C319.567 910.642 277.684 895.398 238.581 874.557L285.617 786.309L285.617 786.307ZM821.977 536.2L919.811 556.894C910.642 600.244 895.398 642.128 874.557 681.23L786.309 634.195L786.307 634.194C802.731 603.378 814.748 570.363 821.974 536.199L821.977 536.2ZM124.572 616.274C132.054 632.32 140.541 647.576 149.922 662.004L149.921 662.005L108.003 689.26L108.003 689.259L66.0844 716.515C54.1632 698.18 43.4047 678.831 33.9411 658.536C24.4776 638.242 16.571 617.563 10.1882 596.645L105.834 567.461L105.835 567.46C110.858 583.921 117.09 600.229 124.572 616.274ZM795.24 303.537C787.757 287.491 779.27 272.235 769.889 257.807L769.89 257.806L853.727 203.296C865.648 221.632 876.407 240.98 885.87 261.275C895.334 281.57 903.24 302.248 909.623 323.166L813.977 352.351L813.975 352.351C808.952 335.89 802.722 319.582 795.24 303.537ZM133.503 285.617L133.503 285.618C117.079 316.433 105.062 349.448 97.8361 383.612L97.8348 383.611L0.000103908 362.917C9.16944 319.567 24.4137 277.684 45.2548 238.581L133.503 285.617ZM556.894 -5.54751e-05C600.244 9.16929 642.128 24.4136 681.23 45.2547L634.196 133.502L634.194 133.504C603.378 117.079 570.363 105.062 536.199 97.8364L536.2 97.8347L556.894 -5.54751e-05ZM261.275 33.941C281.57 24.4774 302.249 16.5709 323.166 10.1881L352.351 105.834L352.35 105.835C335.89 110.858 319.582 117.09 303.537 124.572C287.491 132.054 272.235 140.541 257.807 149.922L257.806 149.921L203.297 66.0843C221.632 54.1631 240.981 43.4045 261.275 33.941Z" fill="#70E9F5" fill-opacity="0.2"/>
</svg>
