<svg width="1080" height="1080" viewBox="0 0 1080 1080" fill="none" xmlns="http://www.w3.org/2000/svg">
<path d="M586.229 1068.01L587.09 1077.97C571.569 1079.32 555.863 1080 540 1080C524.137 1080 508.431 1079.32 492.91 1077.97L493.771 1068.01V1068.01C509.006 1069.33 524.424 1070 540 1070C555.576 1070 570.994 1069.33 586.229 1068.01L586.229 1068.01ZM235.982 974.189C261.126 991.827 287.871 1007.34 315.957 1020.46V1020.46L311.726 1029.52C283.107 1016.15 255.857 1000.35 230.24 982.377L235.982 974.19V974.189ZM844.018 974.19L849.76 982.377C824.143 1000.35 796.894 1016.15 768.275 1029.52L764.043 1020.46L764.042 1020.46C792.128 1007.34 818.873 991.827 844.017 974.189L844.018 974.19ZM59.543 764.042C72.6621 792.128 88.1717 818.873 105.81 844.017V844.018L97.623 849.76C79.6535 824.143 63.8503 796.894 50.4824 768.275L59.543 764.043V764.042ZM1020.46 764.043L1029.52 768.274C1016.15 796.893 1000.35 824.143 982.377 849.76L974.19 844.018L974.189 844.017C991.827 818.873 1007.34 792.128 1020.46 764.042L1020.46 764.043ZM10 540C10 555.576 10.6739 570.994 11.9902 586.229L11.9883 586.229L2.02539 587.09C0.684312 571.569 0 555.863 0 540C0 524.137 0.684313 508.431 2.02539 492.91L11.9883 493.771H11.9902C10.6739 509.006 10 524.424 10 540ZM1070 540C1070 524.424 1069.33 509.005 1068.01 493.771H1068.01L1077.97 492.91C1079.32 508.431 1080 524.137 1080 540C1080 555.863 1079.32 571.569 1077.97 587.09L1068.01 586.229L1068.01 586.229C1069.33 570.994 1070 555.576 1070 540ZM105.81 235.982C88.1717 261.126 72.6622 287.871 59.543 315.957L50.4824 311.726C63.8503 283.107 79.6534 255.857 97.623 230.24L105.81 235.982ZM982.377 230.24C1000.35 255.857 1016.15 283.107 1029.52 311.726L1020.46 315.957H1020.46C1007.34 287.871 991.827 261.126 974.189 235.982H974.19L982.377 230.24ZM315.957 59.543C287.871 72.6622 261.126 88.1717 235.982 105.81L230.24 97.623C255.857 79.6534 283.107 63.8503 311.726 50.4824L315.957 59.543ZM768.274 50.4824C796.893 63.8503 824.143 79.6534 849.76 97.623L844.018 105.81H844.017C818.873 88.1717 792.128 72.6621 764.042 59.543H764.043L768.274 50.4824ZM540 0C555.863 0 571.569 0.684311 587.09 2.02539L586.229 11.9883L586.229 11.9902C570.994 10.6739 555.576 10 540 10C524.424 10 509.005 10.6738 493.771 11.9902V11.9883L492.91 2.02539C508.431 0.684312 524.137 0 540 0Z" fill="#70E9F5" fill-opacity="0.2"/>
</svg>
