<svg width="1085" height="1085" viewBox="0 0 1085 1085" fill="none" xmlns="http://www.w3.org/2000/svg">
<path d="M532.125 963.989C550.309 964.387 568.777 963.615 587.457 961.593L600.371 1080.9C576.517 1083.48 552.858 1084.47 529.498 1083.96L532.125 963.989ZM670.255 1068.72C647.547 1074.22 624.224 1078.31 600.371 1080.9L587.457 961.593C606.137 959.571 624.342 956.373 642.02 952.093L670.255 1068.72ZM322.731 902.611C354.043 921.696 387.878 936.752 423.449 947.185L389.679 1062.33C343.905 1048.91 300.439 1029.56 260.275 1005.08L322.731 902.611ZM916.364 934.06C882.369 966.568 844.051 994.772 802.21 1017.68L744.583 912.424C777.098 894.622 806.928 872.675 833.431 847.332L916.364 934.06ZM171.664 744.583C189.466 777.098 211.413 806.928 236.756 833.431L150.027 916.364C117.519 882.369 89.3151 844.051 66.4072 802.21L171.664 744.583ZM1062.33 694.408C1048.91 740.182 1029.56 783.648 1005.08 823.812L902.611 761.357C921.696 730.046 936.752 696.21 947.185 660.639L1062.33 694.408ZM3.19145 600.371C0.609493 576.517 -0.381485 552.858 0.129856 529.499L120.099 532.125C119.701 550.309 120.473 568.777 122.495 587.457C124.517 606.137 127.715 624.343 131.995 642.02L15.3657 670.256C9.86793 647.547 5.77337 624.224 3.19145 600.371ZM1080.9 483.717C1083.48 507.571 1084.47 531.229 1083.96 554.589L963.988 551.963C964.387 533.779 963.615 515.311 961.593 496.631C959.571 477.951 956.373 459.746 952.093 442.068L1068.72 413.832C1074.22 436.541 1078.31 459.864 1080.9 483.717ZM181.477 322.731C162.392 354.043 147.336 387.878 136.903 423.449L21.7538 389.679C35.1782 343.905 54.5299 300.439 79.0103 260.276L181.477 322.731ZM934.06 167.723C966.568 201.718 994.772 240.036 1017.68 281.878L965.053 310.692L965.052 310.691L912.424 339.505C894.622 306.99 872.675 277.16 847.332 250.657L934.06 167.723ZM339.505 171.664C306.99 189.466 277.16 211.413 250.657 236.756L167.723 150.027C201.718 117.52 240.036 89.3154 281.877 66.4074L339.505 171.664ZM694.408 21.7541C740.182 35.1784 783.648 54.5302 823.811 79.0106L761.357 181.477C730.045 162.392 696.21 147.336 660.639 136.904L694.408 21.7541ZM483.717 3.19161C507.57 0.609683 531.229 -0.381177 554.588 0.130116L551.963 120.1C533.779 119.702 515.311 120.473 496.631 122.495C477.951 124.517 459.746 127.715 442.068 131.995L413.831 15.366C436.541 9.86808 459.864 5.77356 483.717 3.19161Z" fill="#FFB3ED" fill-opacity="0.2"/>
</svg>
