<svg width="400" height="321" viewBox="0 0 400 321" fill="none" xmlns="http://www.w3.org/2000/svg">
<g clip-path="url(#clip0_285_582930)">
<circle opacity="0.5" cx="144.48" cy="-0.342305" r="4.5" transform="rotate(150 144.48 -0.342305)" fill="#97F6FF"/>
<circle opacity="0.5" cx="79.5287" cy="37.1576" r="4.5" transform="rotate(150 79.5287 37.1576)" fill="#97F6FF"/>
<circle opacity="0.5" cx="118.5" cy="14.6576" r="4.5" transform="rotate(150 118.5 14.6576)" fill="#97F6FF"/>
<circle opacity="0.5" cx="14.5765" cy="74.6576" r="4.5" transform="rotate(150 14.5765 74.6576)" fill="#97F6FF"/>
<circle opacity="0.5" cx="53.5477" cy="52.1576" r="4.5" transform="rotate(150 53.5477 52.1576)" fill="#97F6FF"/>
<circle opacity="0.3" cx="221.942" cy="13.825" r="1.5" transform="rotate(150 221.942 13.825)" fill="#97F6FF"/>
<circle opacity="0.3" cx="169.981" cy="43.825" r="1.5" transform="rotate(150 169.981 43.825)" fill="#97F6FF"/>
<circle opacity="0.3" cx="105.029" cy="81.325" r="1.5" transform="rotate(150 105.029 81.325)" fill="#97F6FF"/>
<circle opacity="0.3" cx="1.10575" cy="141.325" r="1.5" transform="rotate(150 1.10575 141.325)" fill="#97F6FF"/>
<circle opacity="0.3" cx="195.961" cy="28.825" r="1.5" transform="rotate(150 195.961 28.825)" fill="#97F6FF"/>
<circle opacity="0.3" cx="247.923" cy="-1.17501" r="1.5" transform="rotate(150 247.923 -1.17501)" fill="#97F6FF"/>
<circle opacity="0.3" cx="144" cy="58.825" r="1.5" transform="rotate(150 144 58.825)" fill="#97F6FF"/>
<circle opacity="0.3" cx="40.0769" cy="118.825" r="1.5" transform="rotate(150 40.0769 118.825)" fill="#97F6FF"/>
<circle opacity="0.3" cx="79.0476" cy="96.325" r="1.5" transform="rotate(150 79.0476 96.325)" fill="#97F6FF"/>
<circle opacity="0.75" cx="3.05748" cy="-5.29421" r="4.5" transform="rotate(150 3.05748 -5.29421)" fill="#97F6FF"/>
<circle opacity="0.5" cx="131.49" cy="7.15757" r="4.5" transform="rotate(150 131.49 7.15757)" fill="#97F6FF"/>
<circle opacity="0.5" cx="27.5672" cy="67.1576" r="4.5" transform="rotate(150 27.5672 67.1576)" fill="#97F6FF"/>
<circle opacity="0.5" cx="66.5384" cy="44.6576" r="4.5" transform="rotate(150 66.5384 44.6576)" fill="#97F6FF"/>
<circle opacity="0.5" cx="92.5189" cy="29.6576" r="4.5" transform="rotate(150 92.5189 29.6576)" fill="#97F6FF"/>
<circle opacity="0.5" cx="105.51" cy="22.1576" r="4.5" transform="rotate(150 105.51 22.1576)" fill="#97F6FF"/>
<circle opacity="0.5" cx="1.58628" cy="82.1576" r="4.5" transform="rotate(150 1.58628 82.1576)" fill="#97F6FF"/>
<circle opacity="0.5" cx="40.5575" cy="59.6576" r="4.5" transform="rotate(150 40.5575 59.6576)" fill="#97F6FF"/>
<circle opacity="0.3" cx="208.951" cy="21.325" r="1.5" transform="rotate(150 208.951 21.325)" fill="#97F6FF"/>
<circle opacity="0.3" cx="156.99" cy="51.325" r="1.5" transform="rotate(150 156.99 51.325)" fill="#97F6FF"/>
<circle opacity="0.3" cx="53.0672" cy="111.325" r="1.5" transform="rotate(150 53.0672 111.325)" fill="#97F6FF"/>
<circle opacity="0.3" cx="92.0384" cy="88.825" r="1.5" transform="rotate(150 92.0384 88.825)" fill="#97F6FF"/>
<circle opacity="0.3" cx="182.971" cy="36.325" r="1.5" transform="rotate(150 182.971 36.325)" fill="#97F6FF"/>
<circle opacity="0.3" cx="118.019" cy="73.825" r="1.5" transform="rotate(150 118.019 73.825)" fill="#97F6FF"/>
<circle opacity="0.3" cx="14.096" cy="133.825" r="1.5" transform="rotate(150 14.096 133.825)" fill="#97F6FF"/>
<circle opacity="0.3" cx="234.932" cy="6.32499" r="1.5" transform="rotate(150 234.932 6.32499)" fill="#97F6FF"/>
<circle opacity="0.3" cx="131.01" cy="66.325" r="1.5" transform="rotate(150 131.01 66.325)" fill="#97F6FF"/>
<circle opacity="0.3" cx="27.0862" cy="126.325" r="1.5" transform="rotate(150 27.0862 126.325)" fill="#97F6FF"/>
<circle opacity="0.3" cx="66.0574" cy="103.825" r="1.5" transform="rotate(150 66.0574 103.825)" fill="#97F6FF"/>
<circle opacity="0.55" cx="123.99" cy="-5.83266" r="4.5" transform="rotate(150 123.99 -5.83266)" fill="#97F6FF"/>
<circle opacity="0.55" cx="20.0672" cy="54.1673" r="4.5" transform="rotate(150 20.0672 54.1673)" fill="#97F6FF"/>
<circle opacity="0.55" cx="59.0384" cy="31.6673" r="4.5" transform="rotate(150 59.0384 31.6673)" fill="#97F6FF"/>
<circle opacity="0.55" cx="85.0189" cy="16.6673" r="4.5" transform="rotate(150 85.0189 16.6673)" fill="#97F6FF"/>
<circle opacity="0.55" cx="98.0096" cy="9.16734" r="4.5" transform="rotate(150 98.0096 9.16734)" fill="#97F6FF"/>
<circle opacity="0.55" cx="-5.91372" cy="69.1673" r="4.5" transform="rotate(150 -5.91372 69.1673)" fill="#97F6FF"/>
<circle opacity="0.55" cx="33.0575" cy="46.6673" r="4.5" transform="rotate(150 33.0575 46.6673)" fill="#97F6FF"/>
<circle opacity="0.6" cx="12.5672" cy="41.1769" r="4.5" transform="rotate(150 12.5672 41.1769)" fill="#97F6FF"/>
<circle opacity="0.6" cx="51.5384" cy="18.6769" r="4.5" transform="rotate(150 51.5384 18.6769)" fill="#97F6FF"/>
<circle opacity="0.6" cx="77.5189" cy="3.67686" r="4.5" transform="rotate(150 77.5189 3.67686)" fill="#97F6FF"/>
<circle opacity="0.6" cx="90.5096" cy="-3.82302" r="4.5" transform="rotate(150 90.5096 -3.82302)" fill="#97F6FF"/>
<circle opacity="0.6" cx="25.5575" cy="33.6769" r="4.5" transform="rotate(150 25.5575 33.6769)" fill="#97F6FF"/>
<circle opacity="0.7" cx="-2.43276" cy="15.1961" r="4.5" transform="rotate(150 -2.43276 15.1961)" fill="#97F6FF"/>
<circle opacity="0.7" cx="10.5575" cy="7.69615" r="4.5" transform="rotate(150 10.5575 7.69615)" fill="#97F6FF"/>
<circle opacity="0.65" cx="5.06724" cy="28.1866" r="4.5" transform="rotate(150 5.06724 28.1866)" fill="#97F6FF"/>
<circle opacity="0.65" cx="44.0384" cy="5.68663" r="4.5" transform="rotate(150 44.0384 5.68663)" fill="#97F6FF"/>
<circle opacity="0.65" cx="18.0575" cy="20.6866" r="4.5" transform="rotate(150 18.0575 20.6866)" fill="#97F6FF"/>
<circle opacity="0.55" cx="72.0287" cy="24.1673" r="4.5" transform="rotate(150 72.0287 24.1673)" fill="#97F6FF"/>
<circle opacity="0.55" cx="111" cy="1.66734" r="4.5" transform="rotate(150 111 1.66734)" fill="#97F6FF"/>
<circle opacity="0.55" cx="7.07652" cy="61.6673" r="4.5" transform="rotate(150 7.07652 61.6673)" fill="#97F6FF"/>
<circle opacity="0.55" cx="46.0477" cy="39.1673" r="4.5" transform="rotate(150 46.0477 39.1673)" fill="#97F6FF"/>
<circle opacity="0.35" cx="216.942" cy="5.16477" r="2.5" transform="rotate(150 216.942 5.16477)" fill="#97F6FF"/>
<circle opacity="0.35" cx="164.98" cy="35.1648" r="2.5" transform="rotate(150 164.98 35.1648)" fill="#97F6FF"/>
<circle opacity="0.35" cx="100.029" cy="72.6648" r="2.5" transform="rotate(150 100.029 72.6648)" fill="#97F6FF"/>
<circle opacity="0.35" cx="190.961" cy="20.1648" r="2.5" transform="rotate(150 190.961 20.1648)" fill="#97F6FF"/>
<circle opacity="0.35" cx="139" cy="50.1648" r="2.5" transform="rotate(150 139 50.1648)" fill="#97F6FF"/>
<circle opacity="0.35" cx="35.0766" cy="110.165" r="2.5" transform="rotate(150 35.0766 110.165)" fill="#97F6FF"/>
<circle opacity="0.35" cx="74.0478" cy="87.6648" r="2.5" transform="rotate(150 74.0478 87.6648)" fill="#97F6FF"/>
<circle opacity="0.35" cx="203.952" cy="12.6648" r="2.5" transform="rotate(150 203.952 12.6648)" fill="#97F6FF"/>
<circle opacity="0.35" cx="151.99" cy="42.6648" r="2.5" transform="rotate(150 151.99 42.6648)" fill="#97F6FF"/>
<circle opacity="0.35" cx="48.0669" cy="102.665" r="2.5" transform="rotate(150 48.0669 102.665)" fill="#97F6FF"/>
<circle opacity="0.35" cx="87.0381" cy="80.1648" r="2.5" transform="rotate(150 87.0381 80.1648)" fill="#97F6FF"/>
<circle opacity="0.35" cx="177.971" cy="27.6648" r="2.5" transform="rotate(150 177.971 27.6648)" fill="#97F6FF"/>
<circle opacity="0.35" cx="113.019" cy="65.1648" r="2.5" transform="rotate(150 113.019 65.1648)" fill="#97F6FF"/>
<circle opacity="0.35" cx="9.09617" cy="125.165" r="2.5" transform="rotate(150 9.09617 125.165)" fill="#97F6FF"/>
<circle opacity="0.35" cx="229.933" cy="-2.33523" r="2.5" transform="rotate(150 229.933 -2.33523)" fill="#97F6FF"/>
<circle opacity="0.35" cx="126.009" cy="57.6648" r="2.5" transform="rotate(150 126.009 57.6648)" fill="#97F6FF"/>
<circle opacity="0.35" cx="22.0864" cy="117.665" r="2.5" transform="rotate(150 22.0864 117.665)" fill="#97F6FF"/>
<circle opacity="0.35" cx="61.0576" cy="95.1648" r="2.5" transform="rotate(150 61.0576 95.1648)" fill="#97F6FF"/>
<circle opacity="0.6" cx="64.5287" cy="11.1769" r="4.5" transform="rotate(150 64.5287 11.1769)" fill="#97F6FF"/>
<circle opacity="0.6" cx="-0.423481" cy="48.6769" r="4.5" transform="rotate(150 -0.423481 48.6769)" fill="#97F6FF"/>
<circle opacity="0.6" cx="38.5477" cy="26.1769" r="4.5" transform="rotate(150 38.5477 26.1769)" fill="#97F6FF"/>
<circle opacity="0.4" cx="158.981" cy="24.7724" r="3.5" transform="rotate(150 158.981 24.7724)" fill="#97F6FF"/>
<circle opacity="0.4" cx="94.0285" cy="62.2724" r="3.5" transform="rotate(150 94.0285 62.2724)" fill="#97F6FF"/>
<circle opacity="0.4" cx="184.961" cy="9.77238" r="3.5" transform="rotate(150 184.961 9.77238)" fill="#97F6FF"/>
<circle opacity="0.4" cx="133" cy="39.7724" r="3.5" transform="rotate(150 133 39.7724)" fill="#97F6FF"/>
<circle opacity="0.4" cx="29.0768" cy="99.7724" r="3.5" transform="rotate(150 29.0768 99.7724)" fill="#97F6FF"/>
<circle opacity="0.4" cx="68.048" cy="77.2724" r="3.5" transform="rotate(150 68.048 77.2724)" fill="#97F6FF"/>
<circle opacity="0.4" cx="197.952" cy="2.27238" r="3.5" transform="rotate(150 197.952 2.27238)" fill="#97F6FF"/>
<circle opacity="0.4" cx="145.99" cy="32.2724" r="3.5" transform="rotate(150 145.99 32.2724)" fill="#97F6FF"/>
<circle opacity="0.4" cx="42.0671" cy="92.2724" r="3.5" transform="rotate(150 42.0671 92.2724)" fill="#97F6FF"/>
<circle opacity="0.4" cx="81.0382" cy="69.7724" r="3.5" transform="rotate(150 81.0382 69.7724)" fill="#97F6FF"/>
<circle opacity="0.4" cx="171.971" cy="17.2724" r="3.5" transform="rotate(150 171.971 17.2724)" fill="#97F6FF"/>
<circle opacity="0.4" cx="107.019" cy="54.7724" r="3.5" transform="rotate(150 107.019 54.7724)" fill="#97F6FF"/>
<circle opacity="0.4" cx="3.09586" cy="114.772" r="3.5" transform="rotate(150 3.09586 114.772)" fill="#97F6FF"/>
<circle opacity="0.4" cx="120.009" cy="47.2724" r="3.5" transform="rotate(150 120.009 47.2724)" fill="#97F6FF"/>
<circle opacity="0.4" cx="16.0861" cy="107.272" r="3.5" transform="rotate(150 16.0861 107.272)" fill="#97F6FF"/>
<circle opacity="0.4" cx="55.0573" cy="84.7724" r="3.5" transform="rotate(150 55.0573 84.7724)" fill="#97F6FF"/>
<circle opacity="0.7" cx="23.5477" cy="0.196147" r="4.5" transform="rotate(150 23.5477 0.196147)" fill="#97F6FF"/>
<circle opacity="0.65" cx="57.0287" cy="-1.8135" r="4.5" transform="rotate(150 57.0287 -1.8135)" fill="#97F6FF"/>
<circle opacity="0.65" cx="31.0477" cy="13.1866" r="4.5" transform="rotate(150 31.0477 13.1866)" fill="#97F6FF"/>
<circle opacity="0.45" cx="151.98" cy="12.6481" r="4.5" transform="rotate(150 151.98 12.6481)" fill="#97F6FF"/>
<circle opacity="0.45" cx="87.0287" cy="50.1481" r="4.5" transform="rotate(150 87.0287 50.1481)" fill="#97F6FF"/>
<circle opacity="0.45" cx="177.961" cy="-2.35195" r="4.5" transform="rotate(150 177.961 -2.35195)" fill="#97F6FF"/>
<circle opacity="0.45" cx="126" cy="27.6481" r="4.5" transform="rotate(150 126 27.6481)" fill="#97F6FF"/>
<circle opacity="0.45" cx="22.0765" cy="87.648" r="4.5" transform="rotate(150 22.0765 87.648)" fill="#97F6FF"/>
<circle opacity="0.45" cx="61.0477" cy="65.148" r="4.5" transform="rotate(150 61.0477 65.148)" fill="#97F6FF"/>
<circle opacity="0.45" cx="138.99" cy="20.1481" r="4.5" transform="rotate(150 138.99 20.1481)" fill="#97F6FF"/>
<circle opacity="0.45" cx="35.0672" cy="80.148" r="4.5" transform="rotate(150 35.0672 80.148)" fill="#97F6FF"/>
<circle opacity="0.45" cx="74.0384" cy="57.6481" r="4.5" transform="rotate(150 74.0384 57.6481)" fill="#97F6FF"/>
<circle opacity="0.45" cx="164.971" cy="5.14805" r="4.5" transform="rotate(150 164.971 5.14805)" fill="#97F6FF"/>
<circle opacity="0.45" cx="100.019" cy="42.6481" r="4.5" transform="rotate(150 100.019 42.6481)" fill="#97F6FF"/>
<circle opacity="0.45" cx="-3.90395" cy="102.648" r="4.5" transform="rotate(150 -3.90395 102.648)" fill="#97F6FF"/>
<circle opacity="0.45" cx="113.01" cy="35.1481" r="4.5" transform="rotate(150 113.01 35.1481)" fill="#97F6FF"/>
<circle opacity="0.45" cx="9.08628" cy="95.148" r="4.5" transform="rotate(150 9.08628 95.148)" fill="#97F6FF"/>
<circle opacity="0.45" cx="48.0575" cy="72.648" r="4.5" transform="rotate(150 48.0575 72.648)" fill="#97F6FF"/>
<circle opacity="0.75" cx="387.942" cy="7.93975" r="4.5" transform="rotate(-115 387.942 7.93975)" fill="#FFB3ED"/>
<circle opacity="0.5" cx="383.362" cy="175.582" r="4.5" transform="rotate(-115 383.362 175.582)" fill="#FFB3ED"/>
<circle opacity="0.5" cx="351.666" cy="107.609" r="4.5" transform="rotate(-115 351.666 107.609)" fill="#FFB3ED"/>
<circle opacity="0.5" cx="300.952" cy="-1.14765" r="4.5" transform="rotate(-115 300.952 -1.14765)" fill="#FFB3ED"/>
<circle opacity="0.5" cx="396.04" cy="202.772" r="4.5" transform="rotate(-115 396.04 202.772)" fill="#FFB3ED"/>
<circle opacity="0.5" cx="370.683" cy="148.393" r="4.5" transform="rotate(-115 370.683 148.393)" fill="#FFB3ED"/>
<circle opacity="0.5" cx="319.969" cy="39.6363" r="4.5" transform="rotate(-115 319.969 39.6363)" fill="#FFB3ED"/>
<circle opacity="0.5" cx="338.987" cy="80.42" r="4.5" transform="rotate(-115 338.987 80.42)" fill="#FFB3ED"/>
<circle opacity="0.3" cx="362.497" cy="251.514" r="1.5" transform="rotate(-115 362.497 251.514)" fill="#FFB3ED"/>
<circle opacity="0.3" cx="387.854" cy="305.893" r="1.5" transform="rotate(-115 387.854 305.893)" fill="#FFB3ED"/>
<circle opacity="0.3" cx="337.14" cy="197.136" r="1.5" transform="rotate(-115 337.14 197.136)" fill="#FFB3ED"/>
<circle opacity="0.3" cx="305.444" cy="129.163" r="1.5" transform="rotate(-115 305.444 129.163)" fill="#FFB3ED"/>
<circle opacity="0.3" cx="254.73" cy="20.4058" r="1.5" transform="rotate(-115 254.73 20.4058)" fill="#FFB3ED"/>
<circle opacity="0.3" cx="349.819" cy="224.325" r="1.5" transform="rotate(-115 349.819 224.325)" fill="#FFB3ED"/>
<circle opacity="0.3" cx="375.176" cy="278.704" r="1.5" transform="rotate(-115 375.176 278.704)" fill="#FFB3ED"/>
<circle opacity="0.3" cx="324.462" cy="169.947" r="1.5" transform="rotate(-115 324.462 169.947)" fill="#FFB3ED"/>
<circle opacity="0.3" cx="273.747" cy="61.1897" r="1.5" transform="rotate(-115 273.747 61.1897)" fill="#FFB3ED"/>
<circle opacity="0.3" cx="292.766" cy="101.974" r="1.5" transform="rotate(-115 292.766 101.974)" fill="#FFB3ED"/>
<circle opacity="0.75" cx="394.282" cy="21.5345" r="4.5" transform="rotate(-115 394.282 21.5345)" fill="#FFB3ED"/>
<circle opacity="0.75" cx="381.603" cy="-5.65473" r="4.5" transform="rotate(-115 381.603 -5.65473)" fill="#FFB3ED"/>
<circle opacity="0.75" cx="400.621" cy="35.129" r="4.5" transform="rotate(-115 400.621 35.129)" fill="#FFB3ED"/>
<circle opacity="0.5" cx="402.38" cy="216.366" r="4.5" transform="rotate(-115 402.38 216.366)" fill="#FFB3ED"/>
<circle opacity="0.5" cx="377.023" cy="161.988" r="4.5" transform="rotate(-115 377.023 161.988)" fill="#FFB3ED"/>
<circle opacity="0.5" cx="326.308" cy="53.2308" r="4.5" transform="rotate(-115 326.308 53.2308)" fill="#FFB3ED"/>
<circle opacity="0.5" cx="345.327" cy="94.0147" r="4.5" transform="rotate(-115 345.327 94.0147)" fill="#FFB3ED"/>
<circle opacity="0.5" cx="389.702" cy="189.177" r="4.5" transform="rotate(-115 389.702 189.177)" fill="#FFB3ED"/>
<circle opacity="0.5" cx="358.005" cy="121.204" r="4.5" transform="rotate(-115 358.005 121.204)" fill="#FFB3ED"/>
<circle opacity="0.5" cx="307.291" cy="12.4471" r="4.5" transform="rotate(-115 307.291 12.4471)" fill="#FFB3ED"/>
<circle opacity="0.5" cx="364.344" cy="134.799" r="4.5" transform="rotate(-115 364.344 134.799)" fill="#FFB3ED"/>
<circle opacity="0.5" cx="313.63" cy="26.0416" r="4.5" transform="rotate(-115 313.63 26.0416)" fill="#FFB3ED"/>
<circle opacity="0.5" cx="332.648" cy="66.8255" r="4.5" transform="rotate(-115 332.648 66.8255)" fill="#FFB3ED"/>
<circle opacity="0.3" cx="356.158" cy="237.92" r="1.5" transform="rotate(-115 356.158 237.92)" fill="#FFB3ED"/>
<circle opacity="0.3" cx="381.515" cy="292.298" r="1.5" transform="rotate(-115 381.515 292.298)" fill="#FFB3ED"/>
<circle opacity="0.3" cx="330.801" cy="183.541" r="1.5" transform="rotate(-115 330.801 183.541)" fill="#FFB3ED"/>
<circle opacity="0.3" cx="280.087" cy="74.7844" r="1.5" transform="rotate(-115 280.087 74.7844)" fill="#FFB3ED"/>
<circle opacity="0.3" cx="299.104" cy="115.568" r="1.5" transform="rotate(-115 299.104 115.568)" fill="#FFB3ED"/>
<circle opacity="0.3" cx="248.391" cy="6.8113" r="1.5" transform="rotate(-115 248.391 6.8113)" fill="#FFB3ED"/>
<circle opacity="0.3" cx="394.194" cy="319.488" r="1.5" transform="rotate(-115 394.194 319.488)" fill="#FFB3ED"/>
<circle opacity="0.3" cx="343.479" cy="210.73" r="1.5" transform="rotate(-115 343.479 210.73)" fill="#FFB3ED"/>
<circle opacity="0.3" cx="311.783" cy="142.757" r="1.5" transform="rotate(-115 311.783 142.757)" fill="#FFB3ED"/>
<circle opacity="0.3" cx="261.069" cy="34.0005" r="1.5" transform="rotate(-115 261.069 34.0005)" fill="#FFB3ED"/>
<circle opacity="0.3" cx="368.837" cy="265.109" r="1.5" transform="rotate(-115 368.837 265.109)" fill="#FFB3ED"/>
<circle opacity="0.3" cx="318.122" cy="156.352" r="1.5" transform="rotate(-115 318.122 156.352)" fill="#FFB3ED"/>
<circle opacity="0.3" cx="267.408" cy="47.5952" r="1.5" transform="rotate(-115 267.408 47.5952)" fill="#FFB3ED"/>
<circle opacity="0.3" cx="286.426" cy="88.3789" r="1.5" transform="rotate(-115 286.426 88.3789)" fill="#FFB3ED"/>
<circle opacity="0.55" cx="390.618" cy="155.648" r="4.5" transform="rotate(-115 390.618 155.648)" fill="#FFB3ED"/>
<circle opacity="0.55" cx="339.903" cy="46.8917" r="4.5" transform="rotate(-115 339.903 46.8917)" fill="#FFB3ED"/>
<circle opacity="0.55" cx="358.921" cy="87.6753" r="4.5" transform="rotate(-115 358.921 87.6753)" fill="#FFB3ED"/>
<circle opacity="0.55" cx="403.296" cy="182.838" r="4.5" transform="rotate(-115 403.296 182.838)" fill="#FFB3ED"/>
<circle opacity="0.55" cx="371.599" cy="114.865" r="4.5" transform="rotate(-115 371.599 114.865)" fill="#FFB3ED"/>
<circle opacity="0.55" cx="320.885" cy="6.10772" r="4.5" transform="rotate(-115 320.885 6.10772)" fill="#FFB3ED"/>
<circle opacity="0.55" cx="377.939" cy="128.459" r="4.5" transform="rotate(-115 377.939 128.459)" fill="#FFB3ED"/>
<circle opacity="0.55" cx="327.224" cy="19.7022" r="4.5" transform="rotate(-115 327.224 19.7022)" fill="#FFB3ED"/>
<circle opacity="0.55" cx="346.243" cy="60.4861" r="4.5" transform="rotate(-115 346.243 60.4861)" fill="#FFB3ED"/>
<circle opacity="0.6" cx="404.212" cy="149.309" r="4.5" transform="rotate(-115 404.212 149.309)" fill="#FFB3ED"/>
<circle opacity="0.6" cx="353.498" cy="40.5523" r="4.5" transform="rotate(-115 353.498 40.5523)" fill="#FFB3ED"/>
<circle opacity="0.6" cx="372.515" cy="81.3362" r="4.5" transform="rotate(-115 372.515 81.3362)" fill="#FFB3ED"/>
<circle opacity="0.6" cx="385.194" cy="108.525" r="4.5" transform="rotate(-115 385.194 108.525)" fill="#FFB3ED"/>
<circle opacity="0.6" cx="334.48" cy="-0.231632" r="4.5" transform="rotate(-115 334.48 -0.231632)" fill="#FFB3ED"/>
<circle opacity="0.6" cx="391.534" cy="122.12" r="4.5" transform="rotate(-115 391.534 122.12)" fill="#FFB3ED"/>
<circle opacity="0.6" cx="340.819" cy="13.3631" r="4.5" transform="rotate(-115 340.819 13.3631)" fill="#FFB3ED"/>
<circle opacity="0.6" cx="359.837" cy="54.1468" r="4.5" transform="rotate(-115 359.837 54.1468)" fill="#FFB3ED"/>
<circle opacity="0.7" cx="380.687" cy="27.8738" r="4.5" transform="rotate(-115 380.687 27.8738)" fill="#FFB3ED"/>
<circle opacity="0.7" cx="399.705" cy="68.6575" r="4.5" transform="rotate(-115 399.705 68.6575)" fill="#FFB3ED"/>
<circle opacity="0.7" cx="368.009" cy="0.684383" r="4.5" transform="rotate(-115 368.009 0.684383)" fill="#FFB3ED"/>
<circle opacity="0.7" cx="387.026" cy="41.4683" r="4.5" transform="rotate(-115 387.026 41.4683)" fill="#FFB3ED"/>
<circle opacity="0.65" cx="367.092" cy="34.2129" r="4.5" transform="rotate(-115 367.092 34.2129)" fill="#FFB3ED"/>
<circle opacity="0.65" cx="386.11" cy="74.9969" r="4.5" transform="rotate(-115 386.11 74.9969)" fill="#FFB3ED"/>
<circle opacity="0.65" cx="398.789" cy="102.186" r="4.5" transform="rotate(-115 398.789 102.186)" fill="#FFB3ED"/>
<circle opacity="0.65" cx="405.128" cy="115.781" r="4.5" transform="rotate(-115 405.128 115.781)" fill="#FFB3ED"/>
<circle opacity="0.65" cx="354.414" cy="7.02374" r="4.5" transform="rotate(-115 354.414 7.02374)" fill="#FFB3ED"/>
<circle opacity="0.65" cx="373.431" cy="47.8077" r="4.5" transform="rotate(-115 373.431 47.8077)" fill="#FFB3ED"/>
<circle opacity="0.8" cx="401.537" cy="1.60064" r="4.5" transform="rotate(-115 401.537 1.60064)" fill="#FFB3ED"/>
<circle opacity="0.55" cx="396.956" cy="169.243" r="4.5" transform="rotate(-115 396.956 169.243)" fill="#FFB3ED"/>
<circle opacity="0.55" cx="365.26" cy="101.27" r="4.5" transform="rotate(-115 365.26 101.27)" fill="#FFB3ED"/>
<circle opacity="0.55" cx="384.278" cy="142.054" r="4.5" transform="rotate(-115 384.278 142.054)" fill="#FFB3ED"/>
<circle opacity="0.55" cx="333.564" cy="33.2969" r="4.5" transform="rotate(-115 333.564 33.2969)" fill="#FFB3ED"/>
<circle opacity="0.55" cx="352.582" cy="74.0809" r="4.5" transform="rotate(-115 352.582 74.0809)" fill="#FFB3ED"/>
<circle opacity="0.35" cx="371.56" cy="247.288" r="2.5" transform="rotate(-115 371.56 247.288)" fill="#FFB3ED"/>
<circle opacity="0.35" cx="396.918" cy="301.667" r="2.5" transform="rotate(-115 396.918 301.667)" fill="#FFB3ED"/>
<circle opacity="0.35" cx="346.203" cy="192.91" r="2.5" transform="rotate(-115 346.203 192.91)" fill="#FFB3ED"/>
<circle opacity="0.35" cx="314.507" cy="124.937" r="2.5" transform="rotate(-115 314.507 124.937)" fill="#FFB3ED"/>
<circle opacity="0.35" cx="263.793" cy="16.1796" r="2.5" transform="rotate(-115 263.793 16.1796)" fill="#FFB3ED"/>
<circle opacity="0.35" cx="358.882" cy="220.099" r="2.5" transform="rotate(-115 358.882 220.099)" fill="#FFB3ED"/>
<circle opacity="0.35" cx="384.239" cy="274.477" r="2.5" transform="rotate(-115 384.239 274.477)" fill="#FFB3ED"/>
<circle opacity="0.35" cx="333.525" cy="165.72" r="2.5" transform="rotate(-115 333.525 165.72)" fill="#FFB3ED"/>
<circle opacity="0.35" cx="282.811" cy="56.9636" r="2.5" transform="rotate(-115 282.811 56.9636)" fill="#FFB3ED"/>
<circle opacity="0.35" cx="301.828" cy="97.7475" r="2.5" transform="rotate(-115 301.828 97.7475)" fill="#FFB3ED"/>
<circle opacity="0.35" cx="365.221" cy="233.694" r="2.5" transform="rotate(-115 365.221 233.694)" fill="#FFB3ED"/>
<circle opacity="0.35" cx="390.578" cy="288.072" r="2.5" transform="rotate(-115 390.578 288.072)" fill="#FFB3ED"/>
<circle opacity="0.35" cx="339.864" cy="179.315" r="2.5" transform="rotate(-115 339.864 179.315)" fill="#FFB3ED"/>
<circle opacity="0.35" cx="289.15" cy="70.5583" r="2.5" transform="rotate(-115 289.15 70.5583)" fill="#FFB3ED"/>
<circle opacity="0.35" cx="308.168" cy="111.342" r="2.5" transform="rotate(-115 308.168 111.342)" fill="#FFB3ED"/>
<circle opacity="0.35" cx="257.453" cy="2.58516" r="2.5" transform="rotate(-115 257.453 2.58516)" fill="#FFB3ED"/>
<circle opacity="0.35" cx="403.257" cy="315.261" r="2.5" transform="rotate(-115 403.257 315.261)" fill="#FFB3ED"/>
<circle opacity="0.35" cx="352.543" cy="206.504" r="2.5" transform="rotate(-115 352.543 206.504)" fill="#FFB3ED"/>
<circle opacity="0.35" cx="320.846" cy="138.531" r="2.5" transform="rotate(-115 320.846 138.531)" fill="#FFB3ED"/>
<circle opacity="0.35" cx="270.132" cy="29.7744" r="2.5" transform="rotate(-115 270.132 29.7744)" fill="#FFB3ED"/>
<circle opacity="0.35" cx="377.9" cy="260.883" r="2.5" transform="rotate(-115 377.9 260.883)" fill="#FFB3ED"/>
<circle opacity="0.35" cx="327.186" cy="152.126" r="2.5" transform="rotate(-115 327.186 152.126)" fill="#FFB3ED"/>
<circle opacity="0.35" cx="276.471" cy="43.3688" r="2.5" transform="rotate(-115 276.471 43.3688)" fill="#FFB3ED"/>
<circle opacity="0.35" cx="295.489" cy="84.1528" r="2.5" transform="rotate(-115 295.489 84.1528)" fill="#FFB3ED"/>
<circle opacity="0.6" cx="378.855" cy="94.9307" r="4.5" transform="rotate(-115 378.855 94.9307)" fill="#FFB3ED"/>
<circle opacity="0.6" cx="397.873" cy="135.715" r="4.5" transform="rotate(-115 397.873 135.715)" fill="#FFB3ED"/>
<circle opacity="0.6" cx="347.159" cy="26.9576" r="4.5" transform="rotate(-115 347.159 26.9576)" fill="#FFB3ED"/>
<circle opacity="0.6" cx="366.176" cy="67.7415" r="4.5" transform="rotate(-115 366.176 67.7415)" fill="#FFB3ED"/>
<circle opacity="0.4" cx="382.436" cy="242.217" r="3.5" transform="rotate(-115 382.436 242.217)" fill="#FFB3ED"/>
<circle opacity="0.4" cx="357.079" cy="187.838" r="3.5" transform="rotate(-115 357.079 187.838)" fill="#FFB3ED"/>
<circle opacity="0.4" cx="325.383" cy="119.865" r="3.5" transform="rotate(-115 325.383 119.865)" fill="#FFB3ED"/>
<circle opacity="0.4" cx="274.668" cy="11.1083" r="3.5" transform="rotate(-115 274.668 11.1083)" fill="#FFB3ED"/>
<circle opacity="0.4" cx="369.758" cy="215.027" r="3.5" transform="rotate(-115 369.758 215.027)" fill="#FFB3ED"/>
<circle opacity="0.4" cx="395.115" cy="269.406" r="3.5" transform="rotate(-115 395.115 269.406)" fill="#FFB3ED"/>
<circle opacity="0.4" cx="344.4" cy="160.649" r="3.5" transform="rotate(-115 344.4 160.649)" fill="#FFB3ED"/>
<circle opacity="0.4" cx="293.686" cy="51.8922" r="3.5" transform="rotate(-115 293.686 51.8922)" fill="#FFB3ED"/>
<circle opacity="0.4" cx="312.704" cy="92.6759" r="3.5" transform="rotate(-115 312.704 92.6759)" fill="#FFB3ED"/>
<circle opacity="0.4" cx="376.097" cy="228.622" r="3.5" transform="rotate(-115 376.097 228.622)" fill="#FFB3ED"/>
<circle opacity="0.4" cx="401.454" cy="283.001" r="3.5" transform="rotate(-115 401.454 283.001)" fill="#FFB3ED"/>
<circle opacity="0.4" cx="350.74" cy="174.244" r="3.5" transform="rotate(-115 350.74 174.244)" fill="#FFB3ED"/>
<circle opacity="0.4" cx="300.025" cy="65.4867" r="3.5" transform="rotate(-115 300.025 65.4867)" fill="#FFB3ED"/>
<circle opacity="0.4" cx="319.043" cy="106.271" r="3.5" transform="rotate(-115 319.043 106.271)" fill="#FFB3ED"/>
<circle opacity="0.4" cx="268.329" cy="-2.4862" r="3.5" transform="rotate(-115 268.329 -2.4862)" fill="#FFB3ED"/>
<circle opacity="0.4" cx="363.418" cy="201.433" r="3.5" transform="rotate(-115 363.418 201.433)" fill="#FFB3ED"/>
<circle opacity="0.4" cx="331.722" cy="133.46" r="3.5" transform="rotate(-115 331.722 133.46)" fill="#FFB3ED"/>
<circle opacity="0.4" cx="281.008" cy="24.703" r="3.5" transform="rotate(-115 281.008 24.703)" fill="#FFB3ED"/>
<circle opacity="0.4" cx="388.775" cy="255.811" r="3.5" transform="rotate(-115 388.775 255.811)" fill="#FFB3ED"/>
<circle opacity="0.4" cx="338.061" cy="147.055" r="3.5" transform="rotate(-115 338.061 147.055)" fill="#FFB3ED"/>
<circle opacity="0.4" cx="287.347" cy="38.2975" r="3.5" transform="rotate(-115 287.347 38.2975)" fill="#FFB3ED"/>
<circle opacity="0.4" cx="306.365" cy="79.0814" r="3.5" transform="rotate(-115 306.365 79.0814)" fill="#FFB3ED"/>
<circle opacity="0.7" cx="374.348" cy="14.2791" r="4.5" transform="rotate(-115 374.348 14.2791)" fill="#FFB3ED"/>
<circle opacity="0.7" cx="393.366" cy="55.063" r="4.5" transform="rotate(-115 393.366 55.063)" fill="#FFB3ED"/>
<circle opacity="0.65" cx="392.45" cy="88.5914" r="4.5" transform="rotate(-115 392.45 88.5914)" fill="#FFB3ED"/>
<circle opacity="0.65" cx="360.753" cy="20.6185" r="4.5" transform="rotate(-115 360.753 20.6185)" fill="#FFB3ED"/>
<circle opacity="0.65" cx="379.771" cy="61.4022" r="4.5" transform="rotate(-115 379.771 61.4022)" fill="#FFB3ED"/>
<circle opacity="0.45" cx="395.124" cy="236.3" r="4.5" transform="rotate(-115 395.124 236.3)" fill="#FFB3ED"/>
<circle opacity="0.45" cx="369.767" cy="181.922" r="4.5" transform="rotate(-115 369.767 181.922)" fill="#FFB3ED"/>
<circle opacity="0.45" cx="338.071" cy="113.949" r="4.5" transform="rotate(-115 338.071 113.949)" fill="#FFB3ED"/>
<circle opacity="0.45" cx="287.357" cy="5.19171" r="4.5" transform="rotate(-115 287.357 5.19171)" fill="#FFB3ED"/>
<circle opacity="0.45" cx="382.446" cy="209.111" r="4.5" transform="rotate(-115 382.446 209.111)" fill="#FFB3ED"/>
<circle opacity="0.45" cx="357.089" cy="154.732" r="4.5" transform="rotate(-115 357.089 154.732)" fill="#FFB3ED"/>
<circle opacity="0.45" cx="306.375" cy="45.9754" r="4.5" transform="rotate(-115 306.375 45.9754)" fill="#FFB3ED"/>
<circle opacity="0.45" cx="325.392" cy="86.7593" r="4.5" transform="rotate(-115 325.392 86.7593)" fill="#FFB3ED"/>
<circle opacity="0.45" cx="388.785" cy="222.706" r="4.5" transform="rotate(-115 388.785 222.706)" fill="#FFB3ED"/>
<circle opacity="0.45" cx="363.428" cy="168.327" r="4.5" transform="rotate(-115 363.428 168.327)" fill="#FFB3ED"/>
<circle opacity="0.45" cx="312.714" cy="59.5701" r="4.5" transform="rotate(-115 312.714 59.5701)" fill="#FFB3ED"/>
<circle opacity="0.45" cx="331.732" cy="100.354" r="4.5" transform="rotate(-115 331.732 100.354)" fill="#FFB3ED"/>
<circle opacity="0.45" cx="376.107" cy="195.516" r="4.5" transform="rotate(-115 376.107 195.516)" fill="#FFB3ED"/>
<circle opacity="0.45" cx="344.41" cy="127.543" r="4.5" transform="rotate(-115 344.41 127.543)" fill="#FFB3ED"/>
<circle opacity="0.45" cx="293.696" cy="18.7862" r="4.5" transform="rotate(-115 293.696 18.7862)" fill="#FFB3ED"/>
<circle opacity="0.45" cx="401.464" cy="249.895" r="4.5" transform="rotate(-115 401.464 249.895)" fill="#FFB3ED"/>
<circle opacity="0.45" cx="350.749" cy="141.138" r="4.5" transform="rotate(-115 350.749 141.138)" fill="#FFB3ED"/>
<circle opacity="0.45" cx="300.035" cy="32.3809" r="4.5" transform="rotate(-115 300.035 32.3809)" fill="#FFB3ED"/>
<circle opacity="0.45" cx="319.053" cy="73.1646" r="4.5" transform="rotate(-115 319.053 73.1646)" fill="#FFB3ED"/>
</g>
<defs>
<clipPath id="clip0_285_582930">
<rect width="400" height="321" fill="white"/>
</clipPath>
</defs>
</svg>
