<svg width="500" height="500" viewBox="0 0 500 500" fill="none" xmlns="http://www.w3.org/2000/svg">
<path d="M219.417 482.021C229.419 483.326 239.627 484 250 484V500C238.933 500 228.034 499.279 217.348 497.885L217.389 497.574L219.417 482.021ZM282.611 497.574L282.651 497.885C271.965 499.279 261.067 500 250 500V484C260.373 484 270.581 483.326 280.583 482.021L282.611 497.574ZM64.3369 392.447C76.7983 408.663 91.3368 423.202 107.553 435.663L97.8037 448.349C80.4851 435.04 64.9591 419.514 51.6504 402.195L64.3369 392.447ZM448.349 402.195C435.04 419.514 419.514 435.04 402.195 448.349L392.447 435.663C408.663 423.202 423.202 408.663 435.663 392.447L448.349 402.195ZM0 250C0 238.933 0.720253 228.034 2.11426 217.348L17.9785 219.417C16.6738 229.419 16 239.627 16 250C16 260.373 16.6738 270.581 17.9785 280.583L2.11426 282.651C0.720335 271.965 0 261.067 0 250ZM500 250C500 261.067 499.279 271.965 497.885 282.651L482.021 280.583C483.326 270.581 484 260.373 484 250C484 239.627 483.326 229.419 482.021 219.417L497.885 217.348C499.279 228.034 500 238.933 500 250ZM97.8037 51.6504L107.553 64.3369C91.3368 76.7983 76.7983 91.3368 64.3369 107.553L51.6504 97.8037C64.7109 80.808 79.907 65.539 96.8369 52.3975L97.8037 51.6504ZM402.195 51.6504C419.514 64.9591 435.04 80.4851 448.349 97.8037L442.007 102.679L442.006 102.678L435.663 107.553C423.202 91.3368 408.663 76.7983 392.447 64.3369L402.195 51.6504ZM250 0C261.067 0 271.965 0.720335 282.651 2.11426L280.583 17.9785C270.581 16.6738 260.373 16 250 16C239.627 16 229.419 16.6738 219.417 17.9785L217.348 2.11426C228.034 0.720253 238.933 0 250 0Z" fill="#FFB3ED" fill-opacity="0.2"/>
</svg>
