<svg width="1280" height="397" viewBox="0 0 1280 397" fill="none" xmlns="http://www.w3.org/2000/svg">
<g clip-path="url(#clip0_228_487369)">
<g opacity="0.8">
<circle opacity="0.3" cx="1252.6" cy="359.755" r="2" transform="rotate(-120 1252.6 359.755)" fill="#FFB3ED"/>
<circle opacity="0.5" cx="1281.49" cy="273.793" r="6" transform="rotate(-120 1281.49 273.793)" fill="#FFB3ED"/>
<circle opacity="0.3" cx="1222.6" cy="307.793" r="2" transform="rotate(-120 1222.6 307.793)" fill="#FFB3ED"/>
<circle opacity="0.3" cx="1242.6" cy="342.434" r="2" transform="rotate(-120 1242.6 342.434)" fill="#FFB3ED"/>
<circle opacity="0.3" cx="1272.6" cy="394.396" r="2" transform="rotate(-120 1272.6 394.396)" fill="#FFB3ED"/>
<circle opacity="0.5" cx="1271.49" cy="256.473" r="6" transform="rotate(-120 1271.49 256.473)" fill="#FFB3ED"/>
<circle opacity="0.3" cx="1212.6" cy="290.473" r="2" transform="rotate(-120 1212.6 290.473)" fill="#FFB3ED"/>
<circle opacity="0.3" cx="1232.6" cy="325.114" r="2" transform="rotate(-120 1232.6 325.114)" fill="#FFB3ED"/>
<circle opacity="0.3" cx="1262.6" cy="377.075" r="2" transform="rotate(-120 1262.6 377.075)" fill="#FFB3ED"/>
<circle opacity="0.5" cx="1261.49" cy="239.152" r="6" transform="rotate(-120 1261.49 239.152)" fill="#FFB3ED"/>
<circle opacity="0.3" cx="1202.6" cy="273.152" r="2" transform="rotate(-120 1202.6 273.152)" fill="#FFB3ED"/>
<circle opacity="0.35" cx="1253.86" cy="335.934" r="3" transform="rotate(-120 1253.86 335.934)" fill="#FFB3ED"/>
<circle opacity="0.35" cx="1283.86" cy="387.896" r="3" transform="rotate(-120 1283.86 387.896)" fill="#FFB3ED"/>
<circle opacity="0.35" cx="1223.86" cy="283.972" r="3" transform="rotate(-120 1223.86 283.972)" fill="#FFB3ED"/>
<circle opacity="0.35" cx="1243.86" cy="318.614" r="3" transform="rotate(-120 1243.86 318.614)" fill="#FFB3ED"/>
<circle opacity="0.35" cx="1273.86" cy="370.575" r="3" transform="rotate(-120 1273.86 370.575)" fill="#FFB3ED"/>
<circle opacity="0.55" cx="1278.81" cy="229.152" r="6" transform="rotate(-120 1278.81 229.152)" fill="#FFB3ED"/>
<circle opacity="0.35" cx="1213.86" cy="266.652" r="3" transform="rotate(-120 1213.86 266.652)" fill="#FFB3ED"/>
<circle opacity="0.4" cx="1267.71" cy="327.934" r="5" transform="rotate(-120 1267.71 327.934)" fill="#FFB3ED"/>
<circle opacity="0.4" cx="1237.71" cy="275.973" r="5" transform="rotate(-120 1237.71 275.973)" fill="#FFB3ED"/>
<circle opacity="0.4" cx="1257.71" cy="310.613" r="5" transform="rotate(-120 1257.71 310.613)" fill="#FFB3ED"/>
<circle opacity="0.4" cx="1227.71" cy="258.652" r="5" transform="rotate(-120 1227.71 258.652)" fill="#FFB3ED"/>
<circle opacity="0.45" cx="1284.17" cy="318.434" r="6" transform="rotate(-120 1284.17 318.434)" fill="#FFB3ED"/>
<circle opacity="0.45" cx="1254.17" cy="266.473" r="6" transform="rotate(-120 1254.17 266.473)" fill="#FFB3ED"/>
<circle opacity="0.45" cx="1274.17" cy="301.114" r="6" transform="rotate(-120 1274.17 301.114)" fill="#FFB3ED"/>
<circle opacity="0.45" cx="1244.17" cy="249.152" r="6" transform="rotate(-120 1244.17 249.152)" fill="#FFB3ED"/>
<circle opacity="0.35" cx="1263.86" cy="353.254" r="3" transform="rotate(-120 1263.86 353.254)" fill="#FFB3ED"/>
<circle opacity="0.35" cx="1233.86" cy="301.293" r="3" transform="rotate(-120 1233.86 301.293)" fill="#FFB3ED"/>
<circle opacity="0.4" cx="1277.71" cy="345.255" r="5" transform="rotate(-120 1277.71 345.255)" fill="#FFB3ED"/>
<circle opacity="0.4" cx="1247.71" cy="293.293" r="5" transform="rotate(-120 1247.71 293.293)" fill="#FFB3ED"/>
<circle opacity="0.45" cx="1264.17" cy="283.793" r="6" transform="rotate(-120 1264.17 283.793)" fill="#FFB3ED"/>
<circle opacity="0.5" cx="1251.67" cy="221.73" r="6" transform="rotate(-120 1251.67 221.73)" fill="#FFB3ED"/>
<circle opacity="0.3" cx="1192.78" cy="255.73" r="2" transform="rotate(-120 1192.78 255.73)" fill="#FFB3ED"/>
<circle opacity="0.75" cx="1278.28" cy="67.8074" r="6" transform="rotate(-120 1278.28 67.8074)" fill="#FFB3ED"/>
<circle opacity="0.5" cx="1191.67" cy="117.807" r="6" transform="rotate(-120 1191.67 117.807)" fill="#FFB3ED"/>
<circle opacity="0.5" cx="1121.67" cy="-3.44041" r="6" transform="rotate(-120 1121.67 -3.44041)" fill="#FFB3ED"/>
<circle opacity="0.3" cx="1132.78" cy="151.807" r="2" transform="rotate(-120 1132.78 151.807)" fill="#FFB3ED"/>
<circle opacity="0.3" cx="1062.78" cy="30.5596" r="2" transform="rotate(-120 1062.78 30.5596)" fill="#FFB3ED"/>
<circle opacity="0.5" cx="1221.67" cy="169.769" r="6" transform="rotate(-120 1221.67 169.769)" fill="#FFB3ED"/>
<circle opacity="0.3" cx="1162.78" cy="203.769" r="2" transform="rotate(-120 1162.78 203.769)" fill="#FFB3ED"/>
<circle opacity="0.75" cx="1248.28" cy="15.8458" r="6" transform="rotate(-120 1248.28 15.8458)" fill="#FFB3ED"/>
<circle opacity="0.5" cx="1161.67" cy="65.8458" r="6" transform="rotate(-120 1161.67 65.8458)" fill="#FFB3ED"/>
<circle opacity="0.3" cx="1102.78" cy="99.8458" r="2" transform="rotate(-120 1102.78 99.8458)" fill="#FFB3ED"/>
<circle opacity="0.5" cx="1241.67" cy="204.41" r="6" transform="rotate(-120 1241.67 204.41)" fill="#FFB3ED"/>
<circle opacity="0.3" cx="1182.78" cy="238.41" r="2" transform="rotate(-120 1182.78 238.41)" fill="#FFB3ED"/>
<circle opacity="0.75" cx="1268.28" cy="50.4868" r="6" transform="rotate(-120 1268.28 50.4868)" fill="#FFB3ED"/>
<circle opacity="0.5" cx="1181.67" cy="100.487" r="6" transform="rotate(-120 1181.67 100.487)" fill="#FFB3ED"/>
<circle opacity="0.3" cx="1122.78" cy="134.487" r="2" transform="rotate(-120 1122.78 134.487)" fill="#FFB3ED"/>
<circle opacity="0.3" cx="1052.78" cy="13.239" r="2" transform="rotate(-120 1052.78 13.239)" fill="#FFB3ED"/>
<circle opacity="0.5" cx="1211.67" cy="152.448" r="6" transform="rotate(-120 1211.67 152.448)" fill="#FFB3ED"/>
<circle opacity="0.3" cx="1152.78" cy="186.448" r="2" transform="rotate(-120 1152.78 186.448)" fill="#FFB3ED"/>
<circle opacity="0.75" cx="1238.28" cy="-1.47472" r="6" transform="rotate(-120 1238.28 -1.47472)" fill="#FFB3ED"/>
<circle opacity="0.5" cx="1151.67" cy="48.5253" r="6" transform="rotate(-120 1151.67 48.5253)" fill="#FFB3ED"/>
<circle opacity="0.3" cx="1092.78" cy="82.5254" r="2" transform="rotate(-120 1092.78 82.5254)" fill="#FFB3ED"/>
<circle opacity="0.5" cx="1231.67" cy="187.089" r="6" transform="rotate(-120 1231.67 187.089)" fill="#FFB3ED"/>
<circle opacity="0.3" cx="1172.78" cy="221.089" r="2" transform="rotate(-120 1172.78 221.089)" fill="#FFB3ED"/>
<circle opacity="0.75" cx="1258.28" cy="33.1664" r="6" transform="rotate(-120 1258.28 33.1664)" fill="#FFB3ED"/>
<circle opacity="0.5" cx="1171.67" cy="83.1664" r="6" transform="rotate(-120 1171.67 83.1664)" fill="#FFB3ED"/>
<circle opacity="0.3" cx="1112.78" cy="117.166" r="2" transform="rotate(-120 1112.78 117.166)" fill="#FFB3ED"/>
<circle opacity="0.5" cx="1201.67" cy="135.128" r="6" transform="rotate(-120 1201.67 135.128)" fill="#FFB3ED"/>
<circle opacity="0.5" cx="1131.67" cy="13.8801" r="6" transform="rotate(-120 1131.67 13.8801)" fill="#FFB3ED"/>
<circle opacity="0.3" cx="1142.78" cy="169.128" r="2" transform="rotate(-120 1142.78 169.128)" fill="#FFB3ED"/>
<circle opacity="0.3" cx="1072.78" cy="47.8801" r="2" transform="rotate(-120 1072.78 47.8801)" fill="#FFB3ED"/>
<circle opacity="0.5" cx="1141.67" cy="31.2048" r="6" transform="rotate(-120 1141.67 31.2048)" fill="#FFB3ED"/>
<circle opacity="0.3" cx="1082.78" cy="65.2048" r="2" transform="rotate(-120 1082.78 65.2048)" fill="#FFB3ED"/>
<circle opacity="0.55" cx="1258.99" cy="194.41" r="6" transform="rotate(-120 1258.99 194.41)" fill="#FFB3ED"/>
<circle opacity="0.35" cx="1194.04" cy="231.91" r="3" transform="rotate(-120 1194.04 231.91)" fill="#FFB3ED"/>
<circle opacity="0.8" cx="1285.6" cy="40.4868" r="6" transform="rotate(-120 1285.6 40.4868)" fill="#FFB3ED"/>
<circle opacity="0.55" cx="1198.99" cy="90.4868" r="6" transform="rotate(-120 1198.99 90.4868)" fill="#FFB3ED"/>
<circle opacity="0.35" cx="1134.04" cy="127.987" r="3" transform="rotate(-120 1134.04 127.987)" fill="#FFB3ED"/>
<circle opacity="0.35" cx="1064.04" cy="6.73908" r="3" transform="rotate(-120 1064.04 6.73908)" fill="#FFB3ED"/>
<circle opacity="0.55" cx="1228.99" cy="142.448" r="6" transform="rotate(-120 1228.99 142.448)" fill="#FFB3ED"/>
<circle opacity="0.35" cx="1164.04" cy="179.948" r="3" transform="rotate(-120 1164.04 179.948)" fill="#FFB3ED"/>
<circle opacity="0.55" cx="1168.99" cy="38.5253" r="6" transform="rotate(-120 1168.99 38.5253)" fill="#FFB3ED"/>
<circle opacity="0.35" cx="1104.04" cy="76.0253" r="3" transform="rotate(-120 1104.04 76.0253)" fill="#FFB3ED"/>
<circle opacity="0.55" cx="1248.99" cy="177.089" r="6" transform="rotate(-120 1248.99 177.089)" fill="#FFB3ED"/>
<circle opacity="0.35" cx="1184.04" cy="214.589" r="3" transform="rotate(-120 1184.04 214.589)" fill="#FFB3ED"/>
<circle opacity="0.8" cx="1275.6" cy="23.1664" r="6" transform="rotate(-120 1275.6 23.1664)" fill="#FFB3ED"/>
<circle opacity="0.55" cx="1188.99" cy="73.1664" r="6" transform="rotate(-120 1188.99 73.1664)" fill="#FFB3ED"/>
<circle opacity="0.35" cx="1124.04" cy="110.666" r="3" transform="rotate(-120 1124.04 110.666)" fill="#FFB3ED"/>
<circle opacity="0.55" cx="1218.99" cy="125.128" r="6" transform="rotate(-120 1218.99 125.128)" fill="#FFB3ED"/>
<circle opacity="0.55" cx="1148.99" cy="3.88014" r="6" transform="rotate(-120 1148.99 3.88014)" fill="#FFB3ED"/>
<circle opacity="0.35" cx="1154.04" cy="162.628" r="3" transform="rotate(-120 1154.04 162.628)" fill="#FFB3ED"/>
<circle opacity="0.35" cx="1084.04" cy="41.3801" r="3" transform="rotate(-120 1084.04 41.3801)" fill="#FFB3ED"/>
<circle opacity="0.55" cx="1158.99" cy="21.2048" r="6" transform="rotate(-120 1158.99 21.2048)" fill="#FFB3ED"/>
<circle opacity="0.35" cx="1094.04" cy="58.7048" r="3" transform="rotate(-120 1094.04 58.7048)" fill="#FFB3ED"/>
<circle opacity="0.6" cx="1276.32" cy="184.41" r="6" transform="rotate(-120 1276.32 184.41)" fill="#FFB3ED"/>
<circle opacity="0.4" cx="1207.9" cy="223.91" r="5" transform="rotate(-120 1207.9 223.91)" fill="#FFB3ED"/>
<circle opacity="0.6" cx="1216.32" cy="80.4868" r="6" transform="rotate(-120 1216.32 80.4868)" fill="#FFB3ED"/>
<circle opacity="0.4" cx="1147.9" cy="119.987" r="5" transform="rotate(-120 1147.9 119.987)" fill="#FFB3ED"/>
<circle opacity="0.4" cx="1077.9" cy="-1.26091" r="5" transform="rotate(-120 1077.9 -1.26091)" fill="#FFB3ED"/>
<circle opacity="0.6" cx="1246.32" cy="132.448" r="6" transform="rotate(-120 1246.32 132.448)" fill="#FFB3ED"/>
<circle opacity="0.4" cx="1177.9" cy="171.948" r="5" transform="rotate(-120 1177.9 171.948)" fill="#FFB3ED"/>
<circle opacity="0.6" cx="1186.32" cy="28.5253" r="6" transform="rotate(-120 1186.32 28.5253)" fill="#FFB3ED"/>
<circle opacity="0.4" cx="1117.9" cy="68.0253" r="5" transform="rotate(-120 1117.9 68.0253)" fill="#FFB3ED"/>
<circle opacity="0.7" cx="1250.96" cy="60.4868" r="6" transform="rotate(-120 1250.96 60.4868)" fill="#FFB3ED"/>
<circle opacity="0.7" cx="1280.96" cy="112.448" r="6" transform="rotate(-120 1280.96 112.448)" fill="#FFB3ED"/>
<circle opacity="0.7" cx="1220.96" cy="8.52528" r="6" transform="rotate(-120 1220.96 8.52528)" fill="#FFB3ED"/>
<circle opacity="0.6" cx="1266.32" cy="167.089" r="6" transform="rotate(-120 1266.32 167.089)" fill="#FFB3ED"/>
<circle opacity="0.4" cx="1197.9" cy="206.589" r="5" transform="rotate(-120 1197.9 206.589)" fill="#FFB3ED"/>
<circle opacity="0.6" cx="1206.32" cy="63.1664" r="6" transform="rotate(-120 1206.32 63.1664)" fill="#FFB3ED"/>
<circle opacity="0.4" cx="1137.9" cy="102.666" r="5" transform="rotate(-120 1137.9 102.666)" fill="#FFB3ED"/>
<circle opacity="0.6" cx="1236.32" cy="115.128" r="6" transform="rotate(-120 1236.32 115.128)" fill="#FFB3ED"/>
<circle opacity="0.6" cx="1166.31" cy="-6.11986" r="6" transform="rotate(-120 1166.31 -6.11986)" fill="#FFB3ED"/>
<circle opacity="0.4" cx="1167.9" cy="154.628" r="5" transform="rotate(-120 1167.9 154.628)" fill="#FFB3ED"/>
<circle opacity="0.4" cx="1097.9" cy="33.3801" r="5" transform="rotate(-120 1097.9 33.3801)" fill="#FFB3ED"/>
<circle opacity="0.6" cx="1176.32" cy="11.2048" r="6" transform="rotate(-120 1176.32 11.2048)" fill="#FFB3ED"/>
<circle opacity="0.4" cx="1107.9" cy="50.7048" r="5" transform="rotate(-120 1107.9 50.7048)" fill="#FFB3ED"/>
<circle opacity="0.7" cx="1240.96" cy="43.1664" r="6" transform="rotate(-120 1240.96 43.1664)" fill="#FFB3ED"/>
<circle opacity="0.7" cx="1270.96" cy="95.1278" r="6" transform="rotate(-120 1270.96 95.1278)" fill="#FFB3ED"/>
<circle opacity="0.45" cx="1224.35" cy="214.41" r="6" transform="rotate(-120 1224.35 214.41)" fill="#FFB3ED"/>
<circle opacity="0.65" cx="1233.64" cy="70.4868" r="6" transform="rotate(-120 1233.64 70.4868)" fill="#FFB3ED"/>
<circle opacity="0.45" cx="1164.35" cy="110.487" r="6" transform="rotate(-120 1164.35 110.487)" fill="#FFB3ED"/>
<circle opacity="0.65" cx="1263.64" cy="122.448" r="6" transform="rotate(-120 1263.64 122.448)" fill="#FFB3ED"/>
<circle opacity="0.45" cx="1194.35" cy="162.448" r="6" transform="rotate(-120 1194.35 162.448)" fill="#FFB3ED"/>
<circle opacity="0.65" cx="1203.64" cy="18.5253" r="6" transform="rotate(-120 1203.64 18.5253)" fill="#FFB3ED"/>
<circle opacity="0.45" cx="1134.35" cy="58.5253" r="6" transform="rotate(-120 1134.35 58.5253)" fill="#FFB3ED"/>
<circle opacity="0.65" cx="1283.64" cy="157.089" r="6" transform="rotate(-120 1283.64 157.089)" fill="#FFB3ED"/>
<circle opacity="0.45" cx="1214.35" cy="197.089" r="6" transform="rotate(-120 1214.35 197.089)" fill="#FFB3ED"/>
<circle opacity="0.65" cx="1223.64" cy="53.1664" r="6" transform="rotate(-120 1223.64 53.1664)" fill="#FFB3ED"/>
<circle opacity="0.45" cx="1154.35" cy="93.1664" r="6" transform="rotate(-120 1154.35 93.1664)" fill="#FFB3ED"/>
<circle opacity="0.65" cx="1253.64" cy="105.128" r="6" transform="rotate(-120 1253.64 105.128)" fill="#FFB3ED"/>
<circle opacity="0.45" cx="1184.35" cy="145.128" r="6" transform="rotate(-120 1184.35 145.128)" fill="#FFB3ED"/>
<circle opacity="0.45" cx="1114.35" cy="23.8801" r="6" transform="rotate(-120 1114.35 23.8801)" fill="#FFB3ED"/>
<circle opacity="0.65" cx="1193.64" cy="1.20485" r="6" transform="rotate(-120 1193.64 1.20485)" fill="#FFB3ED"/>
<circle opacity="0.45" cx="1124.35" cy="41.2048" r="6" transform="rotate(-120 1124.35 41.2048)" fill="#FFB3ED"/>
<circle opacity="0.55" cx="1268.99" cy="211.73" r="6" transform="rotate(-120 1268.99 211.73)" fill="#FFB3ED"/>
<circle opacity="0.35" cx="1204.04" cy="249.23" r="3" transform="rotate(-120 1204.04 249.23)" fill="#FFB3ED"/>
<circle opacity="0.55" cx="1208.99" cy="107.807" r="6" transform="rotate(-120 1208.99 107.807)" fill="#FFB3ED"/>
<circle opacity="0.35" cx="1144.04" cy="145.307" r="3" transform="rotate(-120 1144.04 145.307)" fill="#FFB3ED"/>
<circle opacity="0.35" cx="1074.04" cy="24.0596" r="3" transform="rotate(-120 1074.04 24.0596)" fill="#FFB3ED"/>
<circle opacity="0.55" cx="1238.99" cy="159.769" r="6" transform="rotate(-120 1238.99 159.769)" fill="#FFB3ED"/>
<circle opacity="0.35" cx="1174.04" cy="197.269" r="3" transform="rotate(-120 1174.04 197.269)" fill="#FFB3ED"/>
<circle opacity="0.8" cx="1265.6" cy="5.84584" r="6" transform="rotate(-120 1265.6 5.84584)" fill="#FFB3ED"/>
<circle opacity="0.55" cx="1178.99" cy="55.8458" r="6" transform="rotate(-120 1178.99 55.8458)" fill="#FFB3ED"/>
<circle opacity="0.35" cx="1114.04" cy="93.3459" r="3" transform="rotate(-120 1114.04 93.3459)" fill="#FFB3ED"/>
<circle opacity="0.6" cx="1286.32" cy="201.73" r="6" transform="rotate(-120 1286.32 201.73)" fill="#FFB3ED"/>
<circle opacity="0.4" cx="1217.9" cy="241.23" r="5" transform="rotate(-120 1217.9 241.23)" fill="#FFB3ED"/>
<circle opacity="0.6" cx="1226.32" cy="97.8074" r="6" transform="rotate(-120 1226.32 97.8074)" fill="#FFB3ED"/>
<circle opacity="0.4" cx="1157.9" cy="137.307" r="5" transform="rotate(-120 1157.9 137.307)" fill="#FFB3ED"/>
<circle opacity="0.4" cx="1087.9" cy="16.0596" r="5" transform="rotate(-120 1087.9 16.0596)" fill="#FFB3ED"/>
<circle opacity="0.6" cx="1256.32" cy="149.769" r="6" transform="rotate(-120 1256.32 149.769)" fill="#FFB3ED"/>
<circle opacity="0.4" cx="1187.9" cy="189.269" r="5" transform="rotate(-120 1187.9 189.269)" fill="#FFB3ED"/>
<circle opacity="0.85" cx="1282.92" cy="-4.15416" r="6" transform="rotate(-120 1282.92 -4.15416)" fill="#FFB3ED"/>
<circle opacity="0.6" cx="1196.32" cy="45.8458" r="6" transform="rotate(-120 1196.32 45.8458)" fill="#FFB3ED"/>
<circle opacity="0.4" cx="1127.9" cy="85.3459" r="5" transform="rotate(-120 1127.9 85.3459)" fill="#FFB3ED"/>
<circle opacity="0.7" cx="1260.96" cy="77.8074" r="6" transform="rotate(-120 1260.96 77.8074)" fill="#FFB3ED"/>
<circle opacity="0.7" cx="1230.96" cy="25.8458" r="6" transform="rotate(-120 1230.96 25.8458)" fill="#FFB3ED"/>
<circle opacity="0.45" cx="1234.35" cy="231.73" r="6" transform="rotate(-120 1234.35 231.73)" fill="#FFB3ED"/>
<circle opacity="0.65" cx="1243.64" cy="87.8074" r="6" transform="rotate(-120 1243.64 87.8074)" fill="#FFB3ED"/>
<circle opacity="0.45" cx="1174.35" cy="127.807" r="6" transform="rotate(-120 1174.35 127.807)" fill="#FFB3ED"/>
<circle opacity="0.45" cx="1104.35" cy="6.55959" r="6" transform="rotate(-120 1104.35 6.55959)" fill="#FFB3ED"/>
<circle opacity="0.65" cx="1273.64" cy="139.769" r="6" transform="rotate(-120 1273.64 139.769)" fill="#FFB3ED"/>
<circle opacity="0.45" cx="1204.35" cy="179.769" r="6" transform="rotate(-120 1204.35 179.769)" fill="#FFB3ED"/>
<circle opacity="0.65" cx="1213.64" cy="35.8458" r="6" transform="rotate(-120 1213.64 35.8458)" fill="#FFB3ED"/>
<circle opacity="0.45" cx="1144.35" cy="75.8458" r="6" transform="rotate(-120 1144.35 75.8458)" fill="#FFB3ED"/>
</g>
<g opacity="0.8">
<circle opacity="0.3" cx="228.243" cy="45.6299" r="2" transform="rotate(146 228.243 45.6299)" fill="#97F6FF"/>
<circle opacity="0.3" cx="277.985" cy="12.0782" r="2" transform="rotate(146 277.985 12.0782)" fill="#97F6FF"/>
<circle opacity="0.5" cx="140.476" cy="22.8068" r="6" transform="rotate(146 140.476 22.8068)" fill="#97F6FF"/>
<circle opacity="0.3" cx="178.501" cy="79.1814" r="2" transform="rotate(146 178.501 79.1814)" fill="#97F6FF"/>
<circle opacity="0.5" cx="173.637" cy="0.43916" r="6" transform="rotate(146 173.637 0.43916)" fill="#97F6FF"/>
<circle opacity="0.3" cx="211.663" cy="56.8137" r="2" transform="rotate(146 211.663 56.8137)" fill="#97F6FF"/>
<circle opacity="0.3" cx="261.405" cy="23.2621" r="2" transform="rotate(146 261.405 23.2621)" fill="#97F6FF"/>
<circle opacity="0.5" cx="123.895" cy="33.9907" r="6" transform="rotate(146 123.895 33.9907)" fill="#97F6FF"/>
<circle opacity="0.3" cx="161.92" cy="90.3652" r="2" transform="rotate(146 161.92 90.3652)" fill="#97F6FF"/>
<circle opacity="0.3" cx="294.566" cy="0.894393" r="2" transform="rotate(146 294.566 0.894393)" fill="#97F6FF"/>
<circle opacity="0.5" cx="157.056" cy="11.623" r="6" transform="rotate(146 157.056 11.623)" fill="#97F6FF"/>
<circle opacity="0.3" cx="195.082" cy="67.9975" r="2" transform="rotate(146 195.082 67.9975)" fill="#97F6FF"/>
<circle opacity="0.3" cx="244.824" cy="34.4459" r="2" transform="rotate(146 244.824 34.4459)" fill="#97F6FF"/>
<circle opacity="0.5" cx="107.314" cy="45.1745" r="6" transform="rotate(146 107.314 45.1745)" fill="#97F6FF"/>
<circle opacity="0.3" cx="145.339" cy="101.549" r="2" transform="rotate(146 145.339 101.549)" fill="#97F6FF"/>
<circle opacity="0.35" cx="204.393" cy="46.0362" r="3" transform="rotate(146 204.393 46.0362)" fill="#97F6FF"/>
<circle opacity="0.35" cx="254.135" cy="12.4847" r="3" transform="rotate(146 254.135 12.4847)" fill="#97F6FF"/>
<circle opacity="0.55" cx="112.711" cy="17.41" r="6" transform="rotate(146 112.711 17.41)" fill="#97F6FF"/>
<circle opacity="0.35" cx="154.651" cy="79.5878" r="3" transform="rotate(146 154.651 79.5878)" fill="#97F6FF"/>
<circle opacity="0.55" cx="145.873" cy="-4.95781" r="6" transform="rotate(146 145.873 -4.95781)" fill="#97F6FF"/>
<circle opacity="0.35" cx="187.812" cy="57.22" r="3" transform="rotate(146 187.812 57.22)" fill="#97F6FF"/>
<circle opacity="0.35" cx="237.555" cy="23.6685" r="3" transform="rotate(146 237.555 23.6685)" fill="#97F6FF"/>
<circle opacity="0.55" cx="96.1306" cy="28.5938" r="6" transform="rotate(146 96.1306 28.5938)" fill="#97F6FF"/>
<circle opacity="0.35" cx="138.07" cy="90.7716" r="3" transform="rotate(146 138.07 90.7716)" fill="#97F6FF"/>
<circle opacity="0.4" cx="195.446" cy="32.7716" r="5" transform="rotate(146 195.446 32.7716)" fill="#97F6FF"/>
<circle opacity="0.4" cx="245.188" cy="-0.780009" r="5" transform="rotate(146 245.188 -0.780009)" fill="#97F6FF"/>
<circle opacity="0.6" cx="101.528" cy="0.829174" r="6" transform="rotate(146 101.528 0.829174)" fill="#97F6FF"/>
<circle opacity="0.4" cx="145.703" cy="66.3231" r="5" transform="rotate(146 145.703 66.3231)" fill="#97F6FF"/>
<circle opacity="0.4" cx="178.865" cy="43.9555" r="5" transform="rotate(146 178.865 43.9555)" fill="#97F6FF"/>
<circle opacity="0.4" cx="228.607" cy="10.4038" r="5" transform="rotate(146 228.607 10.4038)" fill="#97F6FF"/>
<circle opacity="0.6" cx="84.9465" cy="12.013" r="6" transform="rotate(146 84.9465 12.013)" fill="#97F6FF"/>
<circle opacity="0.4" cx="129.123" cy="77.507" r="5" transform="rotate(146 129.123 77.507)" fill="#97F6FF"/>
<circle opacity="0.45" cx="184.821" cy="17.0198" r="6" transform="rotate(146 184.821 17.0198)" fill="#97F6FF"/>
<circle opacity="0.45" cx="135.079" cy="50.5715" r="6" transform="rotate(146 135.079 50.5715)" fill="#97F6FF"/>
<circle opacity="0.45" cx="168.24" cy="28.2037" r="6" transform="rotate(146 168.24 28.2037)" fill="#97F6FF"/>
<circle opacity="0.45" cx="217.983" cy="-5.34783" r="6" transform="rotate(146 217.983 -5.34783)" fill="#97F6FF"/>
<circle opacity="0.65" cx="73.7629" cy="-4.56768" r="6" transform="rotate(146 73.7629 -4.56768)" fill="#97F6FF"/>
<circle opacity="0.45" cx="118.498" cy="61.7553" r="6" transform="rotate(146 118.498 61.7553)" fill="#97F6FF"/>
<circle opacity="0.35" cx="220.973" cy="34.8523" r="3" transform="rotate(146 220.973 34.8523)" fill="#97F6FF"/>
<circle opacity="0.35" cx="270.716" cy="1.30082" r="3" transform="rotate(146 270.716 1.30082)" fill="#97F6FF"/>
<circle opacity="0.55" cx="129.292" cy="6.22615" r="6" transform="rotate(146 129.292 6.22615)" fill="#97F6FF"/>
<circle opacity="0.35" cx="171.231" cy="68.4038" r="3" transform="rotate(146 171.231 68.4038)" fill="#97F6FF"/>
<circle opacity="0.4" cx="212.027" cy="21.5878" r="5" transform="rotate(146 212.027 21.5878)" fill="#97F6FF"/>
<circle opacity="0.4" cx="162.284" cy="55.1393" r="5" transform="rotate(146 162.284 55.1393)" fill="#97F6FF"/>
<circle opacity="0.45" cx="201.402" cy="5.83601" r="6" transform="rotate(146 201.402 5.83601)" fill="#97F6FF"/>
<circle opacity="0.45" cx="151.66" cy="39.3876" r="6" transform="rotate(146 151.66 39.3876)" fill="#97F6FF"/>
<circle opacity="0.5" cx="90.6198" cy="56.181" r="6" transform="rotate(146 90.6198 56.181)" fill="#97F6FF"/>
<circle opacity="0.3" cx="128.645" cy="112.556" r="2" transform="rotate(146 128.645 112.556)" fill="#97F6FF"/>
<circle opacity="0.3" cx="29.1606" cy="179.659" r="2" transform="rotate(146 29.1606 179.659)" fill="#97F6FF"/>
<circle opacity="0.5" cx="40.8776" cy="89.7326" r="6" transform="rotate(146 40.8776 89.7326)" fill="#97F6FF"/>
<circle opacity="0.3" cx="78.9027" cy="146.107" r="2" transform="rotate(146 78.9027 146.107)" fill="#97F6FF"/>
<circle opacity="0.5" cx="74.0393" cy="67.3648" r="6" transform="rotate(146 74.0393 67.3648)" fill="#97F6FF"/>
<circle opacity="0.3" cx="112.064" cy="123.739" r="2" transform="rotate(146 112.064 123.739)" fill="#97F6FF"/>
<circle opacity="0.3" cx="12.5795" cy="190.843" r="2" transform="rotate(146 12.5795 190.843)" fill="#97F6FF"/>
<circle opacity="0.5" cx="24.2966" cy="100.916" r="6" transform="rotate(146 24.2966 100.916)" fill="#97F6FF"/>
<circle opacity="0.3" cx="62.3217" cy="157.291" r="2" transform="rotate(146 62.3217 157.291)" fill="#97F6FF"/>
<circle opacity="0.75" cx="1.53878" cy="-4.35503" r="6" transform="rotate(146 1.53878 -4.35503)" fill="#97F6FF"/>
<circle opacity="0.5" cx="57.4582" cy="78.5488" r="6" transform="rotate(146 57.4582 78.5488)" fill="#97F6FF"/>
<circle opacity="0.3" cx="95.4833" cy="134.923" r="2" transform="rotate(146 95.4833 134.923)" fill="#97F6FF"/>
<circle opacity="0.5" cx="7.71603" cy="112.1" r="6" transform="rotate(146 7.71603 112.1)" fill="#97F6FF"/>
<circle opacity="0.3" cx="45.7411" cy="168.475" r="2" transform="rotate(146 45.7411 168.475)" fill="#97F6FF"/>
<circle opacity="0.55" cx="62.8552" cy="50.7841" r="6" transform="rotate(146 62.8552 50.7841)" fill="#97F6FF"/>
<circle opacity="0.35" cx="104.795" cy="112.962" r="3" transform="rotate(146 104.795 112.962)" fill="#97F6FF"/>
<circle opacity="0.35" cx="5.30992" cy="180.065" r="3" transform="rotate(146 5.30992 180.065)" fill="#97F6FF"/>
<circle opacity="0.55" cx="13.113" cy="84.3356" r="6" transform="rotate(146 13.113 84.3356)" fill="#97F6FF"/>
<circle opacity="0.35" cx="55.0526" cy="146.513" r="3" transform="rotate(146 55.0526 146.513)" fill="#97F6FF"/>
<circle opacity="0.55" cx="46.2746" cy="61.968" r="6" transform="rotate(146 46.2746 61.968)" fill="#97F6FF"/>
<circle opacity="0.35" cx="88.2137" cy="124.146" r="3" transform="rotate(146 88.2137 124.146)" fill="#97F6FF"/>
<circle opacity="0.55" cx="-3.46757" cy="95.5196" r="6" transform="rotate(146 -3.46757 95.5196)" fill="#97F6FF"/>
<circle opacity="0.35" cx="38.4715" cy="157.697" r="3" transform="rotate(146 38.4715 157.697)" fill="#97F6FF"/>
<circle opacity="0.6" cx="51.6711" cy="34.2033" r="6" transform="rotate(146 51.6711 34.2033)" fill="#97F6FF"/>
<circle opacity="0.4" cx="95.8474" cy="99.6973" r="5" transform="rotate(146 95.8474 99.6973)" fill="#97F6FF"/>
<circle opacity="0.4" cx="-3.63695" cy="166.8" r="5" transform="rotate(146 -3.63695 166.8)" fill="#97F6FF"/>
<circle opacity="0.6" cx="1.92892" cy="67.755" r="6" transform="rotate(146 1.92892 67.755)" fill="#97F6FF"/>
<circle opacity="0.4" cx="46.1052" cy="133.249" r="5" transform="rotate(146 46.1052 133.249)" fill="#97F6FF"/>
<circle opacity="0.7" cx="29.3034" cy="1.04182" r="6" transform="rotate(146 29.3034 1.04182)" fill="#97F6FF"/>
<circle opacity="0.6" cx="35.0905" cy="45.3873" r="6" transform="rotate(146 35.0905 45.3873)" fill="#97F6FF"/>
<circle opacity="0.4" cx="79.2669" cy="110.881" r="5" transform="rotate(146 79.2669 110.881)" fill="#97F6FF"/>
<circle opacity="0.4" cx="29.5247" cy="144.433" r="5" transform="rotate(146 29.5247 144.433)" fill="#97F6FF"/>
<circle opacity="0.7" cx="12.7229" cy="12.2258" r="6" transform="rotate(146 12.7229 12.2258)" fill="#97F6FF"/>
<circle opacity="0.65" cx="40.4875" cy="17.6226" r="6" transform="rotate(146 40.4875 17.6226)" fill="#97F6FF"/>
<circle opacity="0.45" cx="85.2229" cy="83.9456" r="6" transform="rotate(146 85.2229 83.9456)" fill="#97F6FF"/>
<circle opacity="0.45" cx="35.4807" cy="117.497" r="6" transform="rotate(146 35.4807 117.497)" fill="#97F6FF"/>
<circle opacity="0.65" cx="23.9069" cy="28.8065" r="6" transform="rotate(146 23.9069 28.8065)" fill="#97F6FF"/>
<circle opacity="0.45" cx="68.6423" cy="95.1295" r="6" transform="rotate(146 68.6423 95.1295)" fill="#97F6FF"/>
<circle opacity="0.45" cx="18.9001" cy="128.681" r="6" transform="rotate(146 18.9001 128.681)" fill="#97F6FF"/>
<circle opacity="0.55" cx="79.4358" cy="39.6003" r="6" transform="rotate(146 79.4358 39.6003)" fill="#97F6FF"/>
<circle opacity="0.35" cx="121.375" cy="101.778" r="3" transform="rotate(146 121.375 101.778)" fill="#97F6FF"/>
<circle opacity="0.35" cx="21.891" cy="168.881" r="3" transform="rotate(146 21.891 168.881)" fill="#97F6FF"/>
<circle opacity="0.55" cx="29.6936" cy="73.1518" r="6" transform="rotate(146 29.6936 73.1518)" fill="#97F6FF"/>
<circle opacity="0.35" cx="71.6332" cy="135.33" r="3" transform="rotate(146 71.6332 135.33)" fill="#97F6FF"/>
<circle opacity="0.6" cx="68.2522" cy="23.0195" r="6" transform="rotate(146 68.2522 23.0195)" fill="#97F6FF"/>
<circle opacity="0.4" cx="112.428" cy="88.5135" r="5" transform="rotate(146 112.428 88.5135)" fill="#97F6FF"/>
<circle opacity="0.4" cx="12.9436" cy="155.617" r="5" transform="rotate(146 12.9436 155.617)" fill="#97F6FF"/>
<circle opacity="0.6" cx="18.51" cy="56.5711" r="6" transform="rotate(146 18.51 56.5711)" fill="#97F6FF"/>
<circle opacity="0.4" cx="62.6863" cy="122.065" r="5" transform="rotate(146 62.6863 122.065)" fill="#97F6FF"/>
<circle opacity="0.7" cx="-3.8577" cy="23.4096" r="6" transform="rotate(146 -3.8577 23.4096)" fill="#97F6FF"/>
<circle opacity="0.65" cx="57.0681" cy="6.43879" r="6" transform="rotate(146 57.0681 6.43879)" fill="#97F6FF"/>
<circle opacity="0.45" cx="101.803" cy="72.7618" r="6" transform="rotate(146 101.803 72.7618)" fill="#97F6FF"/>
<circle opacity="0.45" cx="2.31905" cy="139.865" r="6" transform="rotate(146 2.31905 139.865)" fill="#97F6FF"/>
<circle opacity="0.65" cx="7.32589" cy="39.9903" r="6" transform="rotate(146 7.32589 39.9903)" fill="#97F6FF"/>
<circle opacity="0.45" cx="52.0612" cy="106.313" r="6" transform="rotate(146 52.0612 106.313)" fill="#97F6FF"/>
</g>
</g>
<defs>
<clipPath id="clip0_228_487369">
<rect width="1280" height="397" fill="white"/>
</clipPath>
</defs>
</svg>
