<svg width="741" height="741" viewBox="0 0 741 741" fill="none" xmlns="http://www.w3.org/2000/svg">
<path d="M345.202 638.957C362.458 640.525 380.193 640.449 398.253 638.551L408.706 738.003C384.13 740.586 359.864 740.701 336.154 738.547L345.202 638.957ZM450.229 627.918L479.784 723.451C457.04 730.487 433.281 735.42 408.706 738.003L398.253 638.551C416.314 636.653 433.676 633.039 450.229 627.918ZM162.352 542.63C185.067 569.892 212.992 592.505 244.381 609.056L197.74 697.511C154.789 674.864 116.609 643.946 85.5268 606.642L162.352 542.63ZM697.511 542.319C674.864 585.271 643.946 623.451 606.641 654.534L542.63 577.708C569.892 554.993 592.505 527.069 609.056 495.68L697.511 542.319ZM2.05727 408.706C-0.525724 384.13 -0.641202 359.864 1.51258 336.154L1.51366 336.155L101.104 345.202C99.5361 362.458 99.6112 380.192 101.509 398.253C103.408 416.313 107.021 433.676 112.142 450.229L64.3745 465.006L64.3755 465.007L16.6087 479.784C9.57256 457.04 4.64023 433.281 2.05727 408.706ZM738.003 331.355C740.586 355.93 740.701 380.196 738.547 403.905L638.957 394.859C640.525 377.603 640.45 359.868 638.551 341.808C636.653 323.747 633.039 306.384 627.918 289.832L723.451 260.277C730.487 283.021 735.42 306.779 738.003 331.355ZM197.43 162.352C170.169 185.067 147.556 212.992 131.005 244.381L42.5485 197.74C65.1957 154.789 96.1134 116.609 133.417 85.5268L197.43 162.352ZM542.319 42.5485C585.271 65.1959 623.451 96.1137 654.534 133.418L616.122 165.424L616.121 165.423L577.708 197.43C554.994 170.169 527.069 147.555 495.68 131.005L542.319 42.5485ZM331.355 2.05716C355.93 -0.525794 380.196 -0.641115 403.905 1.51258L394.859 101.103C377.603 99.536 359.868 99.6111 341.808 101.509C323.747 103.408 306.384 107.021 289.832 112.142L260.277 16.6095L260.276 16.6087C283.019 9.5724 306.779 4.64016 331.355 2.05716Z" fill="#FFB3ED" fill-opacity="0.2"/>
</svg>
