<svg width="720" height="720" viewBox="0 0 720 720" fill="none" xmlns="http://www.w3.org/2000/svg">
<path d="M305.232 655.023C322.946 658.287 341.247 660 360 660V720C337.583 720 315.645 717.95 294.362 714.029L305.232 655.023ZM425.637 714.029C404.354 717.95 382.417 720 360 720V660C378.753 660 397.054 658.287 414.768 655.023L425.637 714.029ZM112.702 529.894C133.552 560.174 159.826 586.448 190.106 607.298L156.079 656.714C119.774 631.715 88.2841 600.226 63.2852 563.92L112.702 529.894ZM656.714 563.92C631.715 600.226 600.226 631.715 563.92 656.714L529.894 607.298C560.174 586.448 586.448 560.174 607.298 529.894L656.714 563.92ZM0 360C1.85961e-06 337.583 2.04898 315.645 5.96973 294.362L64.9766 305.232C61.7133 322.946 60 341.247 60 360C60 378.753 61.7132 397.054 64.9766 414.768L5.96973 425.637C2.04909 404.354 0 382.417 0 360ZM720 360C720 382.417 717.95 404.354 714.029 425.637L655.023 414.768C658.287 397.054 660 378.753 660 360C660 341.247 658.287 322.946 655.023 305.232L714.029 294.362C717.95 315.645 720 337.583 720 360ZM190.106 112.702C159.826 133.552 133.552 159.826 112.702 190.106L63.2852 156.079C88.2842 119.774 119.774 88.2842 156.079 63.2852L190.106 112.702ZM563.92 63.2852C600.226 88.2841 631.715 119.774 656.714 156.079L607.298 190.106C586.448 159.826 560.174 133.552 529.894 112.702L563.92 63.2852ZM360 0C382.416 0 404.354 2.0491 425.637 5.96973L414.768 64.9766C397.054 61.7132 378.753 60 360 60C341.247 60 322.946 61.7132 305.232 64.9766L294.362 5.96973C315.645 2.04898 337.583 1.86057e-06 360 0Z" fill="#70E9F5" fill-opacity="0.2"/>
</svg>
