<svg width="128" height="128" viewBox="0 0 128 128" fill="none" xmlns="http://www.w3.org/2000/svg">
  <style>
    @media (prefers-color-scheme: dark) {
      .main {
        fill: #fff
      }

      .blue {
        fill: #70E9F5
      }

      .pink {
        fill: #FF9ADC
      }
    }
  </style>

  <path d="M94.5914 22.0817L115.064 22L104.105 49.2219L82.8505 49.4262L94.5914 22.0817Z" fill="#FFB3ED" class="pink" />
  <g fill="#121212" class="main">
    <path d="M4 84.2148L20.5232 44.0462H39.3353L23.7624 84.082L4 84.2148Z" />
    <path
      d="M89.3493 34.2928C77.9252 37.8386 58.1116 43.1266 42.1913 44.0462L30.3431 73.3884L50.9945 67.7274L56.0884 54.4946C63.5631 53.4216 74.502 51.332 82.8504 49.4262L89.3493 34.2928Z" />
    <path
      d="M61.6676 105.122C47.5611 98.5513 34.4713 92.6808 23.7624 87.2395L23.7624 84.082C34.6093 83.5609 48.164 77.113 55.9096 73.1381L61.8822 60.176H80.2447L73.6589 76.7605C66.7309 81.7624 61.637 84.0667 53.4009 86.7746L66.7768 92.5531L61.6676 105.122Z" />
  </g>
  <g fill="#97F6FF" class="blue">
    <path d="M81.66 82.3347H90.7901L86.6364 92.5531H77.5062L81.66 82.3347Z" />
    <path d="M76.5508 94.9033H85.6809L81.5272 105.122H72.397L76.5508 94.9033Z" />
    <path d="M65.8214 94.9033H74.9516L70.7978 105.122H61.6677L65.8214 94.9033Z" />
    <path d="M70.9307 82.3347H80.0608L75.907 92.5531H66.7769L70.9307 82.3347Z" />
    <path d="M114.803 49.2219H124L119.913 59.4403H110.716L114.803 49.2219Z" />
    <path d="M110.205 60.6716H119.402L115.314 70.89H106.118L110.205 60.6716Z" />
    <path d="M105.607 72.1162H114.803L110.716 82.3347H101.519L105.607 72.1162Z" />
    <path d="M94.8775 72.1162H104.074L99.9867 82.3347H90.7901L94.8775 72.1162Z" />
    <path d="M99.4758 60.6716H108.672L104.585 70.89H95.3884L99.4758 60.6716Z" />
    <path d="M104.1 49.2219H113.296L109.209 59.4403H100.012L104.1 49.2219Z" />
  </g>
</svg>