<svg width="1100" height="536" viewBox="0 0 1100 536" fill="none" xmlns="http://www.w3.org/2000/svg">
<path d="M45 0L0 37.6481V159.949L21 177.25V358.75L0 376.051V488.352L55 536H1045L1100 488.352V37.6481L1055 0H830.5L810 17.6481H665L645 0H45Z" fill="#697B93" fill-opacity="0.3"/>
<path d="M645 0L665 17.6481H810L830.5 0H1055L1100 37.6481V488.352L1045 536H55L0 488.352V376.051L21 358.75V177.25L0 159.949V37.6481L45 0H645ZM22 359.222L1 376.522V487.895L55.373 535H1044.63L1099 487.895V38.1143L1054.64 1H830.871L810.371 18.6484H664.622L644.622 1H45.3623L1 38.1143V159.478L22 176.778V359.222Z" fill="white"/>
<path d="M661 25.1494H814L834.5 8H1051L1092 41.6504V484.35L1041 528H59L8 484.35V380.05L28.71 362.75V173.25L8 155.95V41.6504L49 8H641L661 25.1494ZM1076.5 409.708L1076 476.585L1033.18 512.5H807.654L814.217 519.5H1036.82L1083.5 480.117V413.293L1091 405.793V395.207L1076.5 409.708ZM806.717 511.5H918.293L911.293 504.5H800.154L806.717 511.5ZM29.71 363.218L9 380.517V483.889L59.3701 527H1040.63L1091 483.889V407.207L1084.5 413.707V480.582L1084.32 480.732L1037.32 520.382L1037.18 520.5H813.783L813.636 520.342L798.784 504.5H744V503.5H911.707L919.707 511.5H1032.82L1075 476.115L1075.5 409.496L1075.5 409.291L1091 393.793V104.37L1076.5 115.743V165H1075.5V115.257L1091 103.099V42.123L1050.64 9H834.862L814.642 25.916L814.363 26.1494H660.63L640.63 9H49.3584L9 42.123V155.482L29.71 172.782V363.218Z" fill="white"/>
<path d="M1100 500L1058 536H1100V500Z" fill="#697B93" fill-opacity="0.3"/>
<path d="M0 500V536H42L0 500Z" fill="#697B93" fill-opacity="0.3"/>
<path d="M1073 174H1079V186H1073V174Z" fill="white"/>
<path d="M1073 194H1079V294H1073V194Z" fill="white"/>
<path d="M1073 302H1079V342H1073V302Z" fill="white"/>
<path d="M743 504C743 502.895 742.105 502 741 502C739.895 502 739 502.895 739 504C739 505.105 739.895 506 741 506V507C739.343 507 738 505.657 738 504C738 502.343 739.343 501 741 501C742.657 501 744 502.343 744 504C744 505.657 742.657 507 741 507V506C742.105 506 743 505.105 743 504Z" fill="white"/>
<path d="M0 178H8V261.876H0V178Z" fill="#697B93" fill-opacity="0.3"/>
<path d="M0 268.089H8V288.799H0V268.089Z" fill="#697B93" fill-opacity="0.3"/>
<path d="M0 295.012H8V346.335L0 353V295.012Z" fill="#697B93" fill-opacity="0.3"/>
</svg>
