<svg width="368" height="899" viewBox="0 0 368 899" fill="none" xmlns="http://www.w3.org/2000/svg">
<path d="M368 879V20L348 0H296L285 10H184L173 0H20L0 20V879L20 899H348L368 879Z" fill="#697B93" fill-opacity="0.3"/>
<path d="M171.239 4L182 13.9111H287.805L297.565 4H346.435L364 21.8223V877.178L346.435 895H21.5654L4 877.178V21.8223L21.5654 4H171.239ZM5 22.2314V876.768L21.9834 894H346.017L363 876.768V22.2314L346.017 5H297.984L288.223 14.9111H181.609L170.849 5H21.9834L5 22.2314Z" fill="white"/>
<path d="M368 883L352 899H368V883Z" fill="#697B93" fill-opacity="0.3"/>
<path d="M0 883V899H16L0 883Z" fill="#697B93" fill-opacity="0.3"/>
</svg>
